<ttFont>
    <TTGlyph name="A" xMin="4" yMin="0" xMax="1288" yMax="1234">
      <contour>
        <pt x="872" y="1234" on="1"/>
        <pt x="872" y="1171" on="1"/>
        <pt x="715" y="1171" on="1"/>
        <pt x="1130" y="62" on="1"/>
        <pt x="1288" y="62" on="1"/>
        <pt x="1288" y="0" on="1"/>
        <pt x="885" y="0" on="1"/>
        <pt x="885" y="62" on="1"/>
        <pt x="1044" y="62" on="1"/>
        <pt x="884" y="503" on="1"/>
        <pt x="409" y="503" on="1"/>
        <pt x="249" y="62" on="1"/>
        <pt x="408" y="62" on="1"/>
        <pt x="408" y="0" on="1"/>
        <pt x="4" y="0" on="1"/>
        <pt x="4" y="62" on="1"/>
        <pt x="163" y="62" on="1"/>
        <pt x="579" y="1171" on="1"/>
        <pt x="421" y="1171" on="1"/>
        <pt x="421" y="1234" on="1"/>
      </contour>
      <contour>
        <pt x="430" y="564" on="1"/>
        <pt x="861" y="564" on="1"/>
        <pt x="646" y="1153" on="1"/>
      </contour>
    </TTGlyph>
    <TTGlyph name="AE" xMin="-12" yMin="0" xMax="1896" yMax="1234">
      <contour>
        <pt x="918" y="1164" on="1"/>
        <pt x="1012" y="666" on="1"/>
        <pt x="1444" y="666" on="1"/>
        <pt x="1414" y="824" on="1"/>
        <pt x="1481" y="824" on="1"/>
        <pt x="1555" y="424" on="1"/>
        <pt x="1488" y="424" on="1"/>
        <pt x="1457" y="596" on="1"/>
        <pt x="1025" y="596" on="1"/>
        <pt x="1123" y="70" on="1"/>
        <pt x="1806" y="70" on="1"/>
        <pt x="1750" y="376" on="1"/>
        <pt x="1827" y="376" on="1"/>
        <pt x="1896" y="0" on="1"/>
        <pt x="868" y="0" on="1"/>
        <pt x="880" y="62" on="1"/>
        <pt x="1038" y="62" on="1"/>
        <pt x="961" y="503" on="1"/>
        <pt x="486" y="503" on="1"/>
        <pt x="244" y="62" on="1"/>
        <pt x="402" y="62" on="1"/>
        <pt x="390" y="0" on="1"/>
        <pt x="-12" y="0" on="1"/>
        <pt x="0" y="62" on="1"/>
        <pt x="157" y="62" on="1"/>
        <pt x="781" y="1171" on="1"/>
        <pt x="623" y="1171" on="1"/>
        <pt x="635" y="1234" on="1"/>
        <pt x="1645" y="1234" on="1"/>
        <pt x="1715" y="858" on="1"/>
        <pt x="1638" y="858" on="1"/>
        <pt x="1582" y="1164" on="1"/>
      </contour>
      <contour>
        <pt x="519" y="564" on="1"/>
        <pt x="949" y="564" on="1"/>
        <pt x="845" y="1153" on="1"/>
      </contour>
    </TTGlyph>
    <TTGlyph name="Aacute" xMin="4" yMin="0" xMax="1288" yMax="1626">
      <component glyphName="acute" x="506" y="392" flags="0x1004"/>
      <component glyphName="A" x="0" y="0" flags="0x1204"/>
    </TTGlyph>
    <TTGlyph name="Acircumflex" xMin="4" yMin="0" xMax="1288" yMax="1650">
      <component glyphName="circumflex" x="350" y="455" flags="0x1004"/>
      <component glyphName="A" x="0" y="0" flags="0x1204"/>
    </TTGlyph>
    <TTGlyph name="Adieresis" xMin="4" yMin="0" xMax="1288" yMax="1483">
      <component glyphName="dieresis" x="344" y="437" flags="0x1004"/>
      <component glyphName="A" x="0" y="0" flags="0x1204"/>
    </TTGlyph>
    <TTGlyph name="Agrave" xMin="4" yMin="0" xMax="1288" yMax="1626">
      <component glyphName="grave" x="370" y="392" flags="0x1004"/>
      <component glyphName="A" x="0" y="0" flags="0x1204"/>
    </TTGlyph>
    <TTGlyph name="Aring" xMin="4" yMin="0" xMax="1288" yMax="1585">
      <component glyphName="ring" x="350" y="249" flags="0x1004"/>
      <component glyphName="A" x="0" y="0" flags="0x1204"/>
    </TTGlyph>
    <TTGlyph name="Atilde" xMin="4" yMin="0" xMax="1288" yMax="1512">
      <component glyphName="tilde" x="289" y="355" flags="0x1004"/>
      <component glyphName="A" x="0" y="0" flags="0x1204"/>
    </TTGlyph>
    <TTGlyph name="B" xMin="88" yMin="0" xMax="1183" yMax="1234">
      <contour>
        <pt x="940" y="654" on="1"/>
        <pt x="1053" y="622" on="0"/>
        <pt x="1181" y="461" on="0"/>
        <pt x="1183" y="331" on="1"/>
        <pt x="1183" y="201" on="0"/>
        <pt x="990" y="0" on="0"/>
        <pt x="820" y="0" on="1"/>
        <pt x="101" y="0" on="1"/>
        <pt x="101" y="62" on="1"/>
        <pt x="254" y="62" on="1"/>
        <pt x="254" y="1171" on="1"/>
        <pt x="88" y="1171" on="1"/>
        <pt x="88" y="1234" on="1"/>
        <pt x="748" y="1234" on="1"/>
        <pt x="919" y="1234" on="0"/>
        <pt x="1111" y="1053" on="0"/>
        <pt x="1111" y="931" on="1"/>
        <pt x="1111" y="744" on="0"/>
      </contour>
      <contour>
        <pt x="820" y="62" on="1"/>
        <pt x="953" y="62" on="0"/>
        <pt x="1103" y="226" on="0"/>
        <pt x="1103" y="448" on="0"/>
        <pt x="944" y="613" on="0"/>
        <pt x="805" y="613" on="1"/>
        <pt x="335" y="613" on="1"/>
        <pt x="335" y="62" on="1"/>
      </contour>
      <contour>
        <pt x="796" y="678" on="1"/>
        <pt x="908" y="678" on="0"/>
        <pt x="1031" y="823" on="0"/>
        <pt x="1031" y="954" on="1"/>
        <pt x="1031" y="1028" on="0"/>
        <pt x="882" y="1171" on="0"/>
        <pt x="748" y="1171" on="1"/>
        <pt x="335" y="1171" on="1"/>
        <pt x="335" y="678" on="1"/>
      </contour>
    </TTGlyph>
    <TTGlyph name="C" xMin="78" yMin="-23" xMax="1275" yMax="1255">
      <contour>
        <pt x="1275" y="283" on="1"/>
        <pt x="1097" y="-23" on="0"/>
        <pt x="701" y="-23" on="1"/>
        <pt x="457" y="-23" on="0"/>
        <pt x="78" y="312" on="0"/>
        <pt x="78" y="891" on="0"/>
        <pt x="436" y="1255" on="0"/>
        <pt x="1027" y="1255" on="0"/>
        <pt x="1191" y="1027" on="1"/>
        <pt x="1191" y="1234" on="1"/>
        <pt x="1266" y="1234" on="1"/>
        <pt x="1266" y="887" on="1"/>
        <pt x="1204" y="874" on="1"/>
        <pt x="1112" y="1082" on="0"/>
        <pt x="888" y="1156" on="1"/>
        <pt x="810" y="1182" on="0"/>
        <pt x="698" y="1182" on="1"/>
        <pt x="465" y="1182" on="0"/>
        <pt x="162" y="851" on="0"/>
        <pt x="162" y="384" on="0"/>
        <pt x="450" y="48" on="0"/>
        <pt x="718" y="48" on="1"/>
        <pt x="1052" y="48" on="0"/>
        <pt x="1206" y="334" on="1"/>
      </contour>
    </TTGlyph>
    <TTGlyph name="Ccedilla" xMin="78" yMin="-296" xMax="1275" yMax="1255">
      <component glyphName="cedilla" x="462" y="-20" flags="0x1004"/>
      <component glyphName="C" x="0" y="0" flags="0x1204"/>
    </TTGlyph>
    <TTGlyph name="D" xMin="100" yMin="0" xMax="1338" yMax="1234">
      <contour>
        <pt x="793" y="1234" on="1"/>
        <pt x="1136" y="1234" on="0"/>
        <pt x="1278" y="912" on="1"/>
        <pt x="1338" y="775" on="0"/>
        <pt x="1338" y="637" on="1"/>
        <pt x="1338" y="364" on="0"/>
        <pt x="1050" y="0" on="0"/>
        <pt x="793" y="0" on="1"/>
        <pt x="100" y="0" on="1"/>
        <pt x="100" y="62" on="1"/>
        <pt x="266" y="62" on="1"/>
        <pt x="266" y="1171" on="1"/>
        <pt x="100" y="1171" on="1"/>
        <pt x="100" y="1234" on="1"/>
      </contour>
      <contour>
        <pt x="348" y="1171" on="1"/>
        <pt x="348" y="62" on="1"/>
        <pt x="792" y="62" on="1"/>
        <pt x="1012" y="62" on="0"/>
        <pt x="1254" y="390" on="0"/>
        <pt x="1254" y="616" on="1"/>
        <pt x="1254" y="934" on="0"/>
        <pt x="1049" y="1088" on="1"/>
        <pt x="940" y="1170" on="0"/>
        <pt x="792" y="1171" on="1"/>
      </contour>
    </TTGlyph>
    <TTGlyph name="Delta" xMin="63" yMin="0" xMax="699" yMax="1062">
      <contour>
        <pt x="699" y="0" on="1"/>
        <pt x="63" y="0" on="1"/>
        <pt x="63" y="67" on="1"/>
        <pt x="380" y="1062" on="1"/>
        <pt x="699" y="66" on="1"/>
      </contour>
      <contour>
        <pt x="649" y="61" on="1"/>
        <pt x="380" y="935" on="1"/>
        <pt x="110" y="61" on="1"/>
      </contour>
    </TTGlyph>
    <TTGlyph name="E" xMin="98" yMin="0" xMax="1117" yMax="1234">
      <contour>
        <pt x="355" y="1164" on="1"/>
        <pt x="355" y="666" on="1"/>
        <pt x="788" y="666" on="1"/>
        <pt x="788" y="824" on="1"/>
        <pt x="855" y="824" on="1"/>
        <pt x="855" y="424" on="1"/>
        <pt x="788" y="424" on="1"/>
        <pt x="788" y="596" on="1"/>
        <pt x="355" y="596" on="1"/>
        <pt x="355" y="70" on="1"/>
        <pt x="1040" y="70" on="1"/>
        <pt x="1040" y="376" on="1"/>
        <pt x="1117" y="376" on="1"/>
        <pt x="1117" y="0" on="1"/>
        <pt x="98" y="0" on="1"/>
        <pt x="98" y="70" on="1"/>
        <pt x="273" y="70" on="1"/>
        <pt x="273" y="1164" on="1"/>
        <pt x="98" y="1164" on="1"/>
        <pt x="98" y="1234" on="1"/>
        <pt x="1095" y="1234" on="1"/>
        <pt x="1095" y="858" on="1"/>
        <pt x="1019" y="858" on="1"/>
        <pt x="1019" y="1164" on="1"/>
      </contour>
    </TTGlyph>
    <TTGlyph name="Eacute" xMin="98" yMin="0" xMax="1117" yMax="1626">
      <component glyphName="acute" x="467" y="392" flags="0x1004"/>
      <component glyphName="E" x="0" y="0" flags="0x1204"/>
    </TTGlyph>
    <TTGlyph name="Ecircumflex" xMin="98" yMin="0" xMax="1117" yMax="1650">
      <component glyphName="circumflex" x="312" y="455" flags="0x1004"/>
      <component glyphName="E" x="0" y="0" flags="0x1204"/>
    </TTGlyph>
    <TTGlyph name="Edieresis" xMin="98" yMin="0" xMax="1117" yMax="1483">
      <component glyphName="dieresis" x="306" y="437" flags="0x1004"/>
      <component glyphName="E" x="0" y="0" flags="0x1204"/>
    </TTGlyph>
    <TTGlyph name="Egrave" xMin="98" yMin="0" xMax="1117" yMax="1626">
      <component glyphName="grave" x="331" y="392" flags="0x1004"/>
      <component glyphName="E" x="0" y="0" flags="0x1204"/>
    </TTGlyph>
    <TTGlyph name="Eth" xMin="98" yMin="0" xMax="1336" yMax="1234">
      <contour>
        <pt x="791" y="1234" on="1"/>
        <pt x="1134" y="1234" on="0"/>
        <pt x="1276" y="912" on="1"/>
        <pt x="1336" y="775" on="0"/>
        <pt x="1336" y="637" on="1"/>
        <pt x="1336" y="364" on="0"/>
        <pt x="1048" y="0" on="0"/>
        <pt x="791" y="0" on="1"/>
        <pt x="98" y="0" on="1"/>
        <pt x="98" y="62" on="1"/>
        <pt x="264" y="62" on="1"/>
        <pt x="264" y="597" on="1"/>
        <pt x="109" y="597" on="1"/>
        <pt x="109" y="662" on="1"/>
        <pt x="264" y="662" on="1"/>
        <pt x="264" y="1171" on="1"/>
        <pt x="98" y="1171" on="1"/>
        <pt x="98" y="1234" on="1"/>
      </contour>
      <contour>
        <pt x="346" y="662" on="1"/>
        <pt x="500" y="662" on="1"/>
        <pt x="500" y="597" on="1"/>
        <pt x="346" y="597" on="1"/>
        <pt x="346" y="62" on="1"/>
        <pt x="790" y="62" on="1"/>
        <pt x="1010" y="62" on="0"/>
        <pt x="1252" y="390" on="0"/>
        <pt x="1252" y="616" on="1"/>
        <pt x="1252" y="934" on="0"/>
        <pt x="1047" y="1088" on="1"/>
        <pt x="938" y="1170" on="0"/>
        <pt x="790" y="1171" on="1"/>
        <pt x="346" y="1171" on="1"/>
      </contour>
    </TTGlyph>
    <TTGlyph name="Euro" xMin="10" yMin="-22" xMax="1222" yMax="1255">
      <contour>
        <pt x="280" y="455" on="1"/>
        <pt x="321" y="272" on="0"/>
        <pt x="591" y="47" on="0"/>
        <pt x="793" y="47" on="1"/>
        <pt x="984" y="47" on="0"/>
        <pt x="1175" y="174" on="1"/>
        <pt x="1209" y="110" on="1"/>
        <pt x="1009" y="-22" on="0"/>
        <pt x="779" y="-22" on="1"/>
        <pt x="440" y="-22" on="0"/>
        <pt x="274" y="245" on="1"/>
        <pt x="218" y="335" on="0"/>
        <pt x="194" y="455" on="1"/>
        <pt x="10" y="455" on="1"/>
        <pt x="10" y="517" on="1"/>
        <pt x="184" y="517" on="1"/>
        <pt x="178" y="595" on="0"/>
        <pt x="178" y="678" on="0"/>
        <pt x="187" y="732" on="1"/>
        <pt x="10" y="732" on="1"/>
        <pt x="10" y="794" on="1"/>
        <pt x="200" y="794" on="1"/>
        <pt x="253" y="997" on="0"/>
        <pt x="577" y="1255" on="0"/>
        <pt x="981" y="1255" on="0"/>
        <pt x="1147" y="1099" on="1"/>
        <pt x="1147" y="1237" on="1"/>
        <pt x="1222" y="1237" on="1"/>
        <pt x="1222" y="1007" on="1"/>
        <pt x="1160" y="994" on="1"/>
        <pt x="991" y="1178" on="0"/>
        <pt x="516" y="1178" on="0"/>
        <pt x="360" y="952" on="1"/>
        <pt x="312" y="882" on="0"/>
        <pt x="286" y="794" on="1"/>
        <pt x="901" y="794" on="1"/>
        <pt x="901" y="732" on="1"/>
        <pt x="272" y="732" on="1"/>
        <pt x="262" y="678" on="0"/>
        <pt x="262" y="622" on="1"/>
        <pt x="262" y="575" on="0"/>
        <pt x="269" y="517" on="1"/>
        <pt x="901" y="517" on="1"/>
        <pt x="901" y="455" on="1"/>
      </contour>
    </TTGlyph>
    <TTGlyph name="F" xMin="98" yMin="0" xMax="1103" yMax="1234">
      <contour>
        <pt x="355" y="1164" on="1"/>
        <pt x="355" y="643" on="1"/>
        <pt x="848" y="643" on="1"/>
        <pt x="848" y="817" on="1"/>
        <pt x="915" y="817" on="1"/>
        <pt x="915" y="404" on="1"/>
        <pt x="848" y="404" on="1"/>
        <pt x="848" y="577" on="1"/>
        <pt x="355" y="577" on="1"/>
        <pt x="355" y="70" on="1"/>
        <pt x="557" y="70" on="1"/>
        <pt x="557" y="0" on="1"/>
        <pt x="98" y="0" on="1"/>
        <pt x="98" y="70" on="1"/>
        <pt x="273" y="70" on="1"/>
        <pt x="273" y="1164" on="1"/>
        <pt x="98" y="1164" on="1"/>
        <pt x="98" y="1234" on="1"/>
        <pt x="1103" y="1234" on="1"/>
        <pt x="1103" y="858" on="1"/>
        <pt x="1026" y="858" on="1"/>
        <pt x="1026" y="1164" on="1"/>
      </contour>
    </TTGlyph>
    <TTGlyph name="G" xMin="78" yMin="-23" xMax="1294" yMax="1255">
      <contour>
        <pt x="1180" y="898" on="1"/>
        <pt x="1048" y="1182" on="0"/>
        <pt x="696" y="1182" on="1"/>
        <pt x="465" y="1182" on="0"/>
        <pt x="162" y="851" on="0"/>
        <pt x="162" y="382" on="0"/>
        <pt x="450" y="48" on="0"/>
        <pt x="719" y="48" on="1"/>
        <pt x="936" y="48" on="0"/>
        <pt x="1205" y="303" on="0"/>
        <pt x="1210" y="523" on="1"/>
        <pt x="945" y="523" on="1"/>
        <pt x="945" y="589" on="1"/>
        <pt x="1294" y="589" on="1"/>
        <pt x="1294" y="162" on="0"/>
        <pt x="975" y="28" on="1"/>
        <pt x="856" y="-22" on="0"/>
        <pt x="743" y="-23" on="1"/>
        <pt x="351" y="-23" on="0"/>
        <pt x="169" y="268" on="1"/>
        <pt x="78" y="414" on="0"/>
        <pt x="78" y="891" on="0"/>
        <pt x="436" y="1255" on="0"/>
        <pt x="1009" y="1255" on="0"/>
        <pt x="1167" y="1051" on="1"/>
        <pt x="1167" y="1234" on="1"/>
        <pt x="1242" y="1234" on="1"/>
        <pt x="1242" y="898" on="1"/>
      </contour>
    </TTGlyph>
    <TTGlyph name="H" xMin="104" yMin="0" xMax="1360" yMax="1234">
      <contour>
        <pt x="1360" y="1234" on="1"/>
        <pt x="1360" y="1171" on="1"/>
        <pt x="1220" y="1171" on="1"/>
        <pt x="1220" y="62" on="1"/>
        <pt x="1360" y="62" on="1"/>
        <pt x="1360" y="0" on="1"/>
        <pt x="991" y="0" on="1"/>
        <pt x="991" y="62" on="1"/>
        <pt x="1139" y="62" on="1"/>
        <pt x="1139" y="598" on="1"/>
        <pt x="337" y="598" on="1"/>
        <pt x="337" y="62" on="1"/>
        <pt x="492" y="62" on="1"/>
        <pt x="492" y="0" on="1"/>
        <pt x="104" y="0" on="1"/>
        <pt x="104" y="62" on="1"/>
        <pt x="256" y="62" on="1"/>
        <pt x="256" y="1171" on="1"/>
        <pt x="104" y="1171" on="1"/>
        <pt x="104" y="1234" on="1"/>
        <pt x="492" y="1234" on="1"/>
        <pt x="492" y="1171" on="1"/>
        <pt x="337" y="1171" on="1"/>
        <pt x="337" y="661" on="1"/>
        <pt x="1139" y="661" on="1"/>
        <pt x="1139" y="1171" on="1"/>
        <pt x="991" y="1171" on="1"/>
        <pt x="991" y="1234" on="1"/>
      </contour>
    </TTGlyph>
    <TTGlyph name="I" xMin="102" yMin="0" xMax="505" yMax="1234">
      <contour>
        <pt x="505" y="1234" on="1"/>
        <pt x="505" y="1171" on="1"/>
        <pt x="345" y="1171" on="1"/>
        <pt x="345" y="62" on="1"/>
        <pt x="505" y="62" on="1"/>
        <pt x="505" y="0" on="1"/>
        <pt x="102" y="0" on="1"/>
        <pt x="102" y="62" on="1"/>
        <pt x="263" y="62" on="1"/>
        <pt x="263" y="1171" on="1"/>
        <pt x="102" y="1171" on="1"/>
        <pt x="102" y="1234" on="1"/>
      </contour>
    </TTGlyph>
    <TTGlyph name="IJ" xMin="102" yMin="-101" xMax="1014" yMax="1234">
      <contour>
        <pt x="719" y="-41" on="1"/>
        <pt x="764" y="-41" on="0"/>
        <pt x="793" y="8" on="0"/>
        <pt x="793" y="59" on="1"/>
        <pt x="793" y="1174" on="1"/>
        <pt x="654" y="1174" on="1"/>
        <pt x="654" y="1234" on="1"/>
        <pt x="1014" y="1234" on="1"/>
        <pt x="1014" y="1174" on="1"/>
        <pt x="875" y="1174" on="1"/>
        <pt x="875" y="60" on="1"/>
        <pt x="876" y="-91" on="0"/>
        <pt x="762" y="-99" on="1"/>
        <pt x="732" y="-101" on="0"/>
        <pt x="706" y="-101" on="1"/>
        <pt x="635" y="-101" on="1"/>
        <pt x="635" y="-41" on="1"/>
      </contour>
      <contour>
        <pt x="505" y="1234" on="1"/>
        <pt x="505" y="1171" on="1"/>
        <pt x="345" y="1171" on="1"/>
        <pt x="345" y="62" on="1"/>
        <pt x="505" y="62" on="1"/>
        <pt x="505" y="0" on="1"/>
        <pt x="102" y="0" on="1"/>
        <pt x="102" y="62" on="1"/>
        <pt x="263" y="62" on="1"/>
        <pt x="263" y="1171" on="1"/>
        <pt x="102" y="1171" on="1"/>
        <pt x="102" y="1234" on="1"/>
      </contour>
    </TTGlyph>
    <TTGlyph name="Iacute" xMin="102" yMin="0" xMax="505" yMax="1626">
      <component glyphName="acute" x="163" y="392" flags="0x1004"/>
      <component glyphName="I" x="0" y="0" flags="0x1204"/>
    </TTGlyph>
    <TTGlyph name="Icircumflex" xMin="102" yMin="0" xMax="505" yMax="1650">
      <component glyphName="circumflex" x="8" y="455" flags="0x1004"/>
      <component glyphName="I" x="0" y="0" flags="0x1204"/>
    </TTGlyph>
    <TTGlyph name="Idieresis" xMin="102" yMin="0" xMax="505" yMax="1483">
      <component glyphName="dieresis" x="2" y="437" flags="0x1004"/>
      <component glyphName="I" x="0" y="0" flags="0x1204"/>
    </TTGlyph>
    <TTGlyph name="Igrave" xMin="102" yMin="0" xMax="505" yMax="1626">
      <component glyphName="grave" x="27" y="392" flags="0x1004"/>
      <component glyphName="I" x="0" y="0" flags="0x1204"/>
    </TTGlyph>
    <TTGlyph name="Itilde" xMin="71" yMin="0" xMax="535" yMax="1512">
      <component glyphName="tilde" x="-54" y="355" flags="0x1004"/>
      <component glyphName="I" x="0" y="0" flags="0x1204"/>
    </TTGlyph>
    <TTGlyph name="J" xMin="23" yMin="-101" xMax="402" yMax="1234">
      <contour>
        <pt x="107" y="-41" on="1"/>
        <pt x="152" y="-41" on="0"/>
        <pt x="181" y="8" on="0"/>
        <pt x="181" y="59" on="1"/>
        <pt x="181" y="1174" on="1"/>
        <pt x="42" y="1174" on="1"/>
        <pt x="42" y="1234" on="1"/>
        <pt x="402" y="1234" on="1"/>
        <pt x="402" y="1174" on="1"/>
        <pt x="263" y="1174" on="1"/>
        <pt x="263" y="60" on="1"/>
        <pt x="264" y="-91" on="0"/>
        <pt x="150" y="-99" on="1"/>
        <pt x="120" y="-101" on="0"/>
        <pt x="94" y="-101" on="1"/>
        <pt x="23" y="-101" on="1"/>
        <pt x="23" y="-41" on="1"/>
      </contour>
    </TTGlyph>
    <TTGlyph name="Jcircumflex" xMin="23" yMin="-101" xMax="412" yMax="1650">
      <component glyphName="circumflex" x="-74" y="455" flags="0x1004"/>
      <component glyphName="J" x="0" y="0" flags="0x1204"/>
    </TTGlyph>
    <TTGlyph name="K" xMin="102" yMin="0" xMax="1277" yMax="1234">
      <contour>
        <pt x="506" y="1234" on="1"/>
        <pt x="506" y="1174" on="1"/>
        <pt x="345" y="1174" on="1"/>
        <pt x="345" y="642" on="1"/>
        <pt x="941" y="1174" on="1"/>
        <pt x="788" y="1174" on="1"/>
        <pt x="788" y="1234" on="1"/>
        <pt x="1220" y="1234" on="1"/>
        <pt x="1220" y="1174" on="1"/>
        <pt x="1047" y="1174" on="1"/>
        <pt x="447" y="634" on="1"/>
        <pt x="1107" y="60" on="1"/>
        <pt x="1277" y="60" on="1"/>
        <pt x="1277" y="0" on="1"/>
        <pt x="822" y="0" on="1"/>
        <pt x="822" y="60" on="1"/>
        <pt x="989" y="60" on="1"/>
        <pt x="345" y="625" on="1"/>
        <pt x="345" y="60" on="1"/>
        <pt x="506" y="60" on="1"/>
        <pt x="506" y="0" on="1"/>
        <pt x="102" y="0" on="1"/>
        <pt x="102" y="60" on="1"/>
        <pt x="263" y="60" on="1"/>
        <pt x="263" y="1174" on="1"/>
        <pt x="102" y="1174" on="1"/>
        <pt x="102" y="1234" on="1"/>
      </contour>
    </TTGlyph>
    <TTGlyph name="L" xMin="111" yMin="0" xMax="1036" yMax="1234">
      <contour>
        <pt x="471" y="1234" on="1"/>
        <pt x="471" y="1174" on="1"/>
        <pt x="332" y="1174" on="1"/>
        <pt x="332" y="70" on="1"/>
        <pt x="960" y="70" on="1"/>
        <pt x="960" y="412" on="1"/>
        <pt x="1036" y="412" on="1"/>
        <pt x="1036" y="0" on="1"/>
        <pt x="111" y="0" on="1"/>
        <pt x="111" y="70" on="1"/>
        <pt x="250" y="70" on="1"/>
        <pt x="250" y="1174" on="1"/>
        <pt x="111" y="1174" on="1"/>
        <pt x="111" y="1234" on="1"/>
      </contour>
    </TTGlyph>
    <TTGlyph name="Ldotaccent" xMin="111" yMin="0" xMax="1036" yMax="1234">
      <component glyphName="periodcentered" x="390" y="-128" flags="0x1004"/>
      <component glyphName="L" x="0" y="0" flags="0x1204"/>
    </TTGlyph>
    <TTGlyph name="Lslash" xMin="133" yMin="0" xMax="1058" yMax="1234">
      <contour>
        <pt x="493" y="1234" on="1"/>
        <pt x="493" y="1174" on="1"/>
        <pt x="354" y="1174" on="1"/>
        <pt x="354" y="764" on="1"/>
        <pt x="562" y="887" on="1"/>
        <pt x="562" y="807" on="1"/>
        <pt x="354" y="684" on="1"/>
        <pt x="354" y="70" on="1"/>
        <pt x="982" y="70" on="1"/>
        <pt x="982" y="412" on="1"/>
        <pt x="1058" y="412" on="1"/>
        <pt x="1058" y="0" on="1"/>
        <pt x="133" y="0" on="1"/>
        <pt x="133" y="70" on="1"/>
        <pt x="272" y="70" on="1"/>
        <pt x="272" y="635" on="1"/>
        <pt x="140" y="557" on="1"/>
        <pt x="140" y="637" on="1"/>
        <pt x="272" y="715" on="1"/>
        <pt x="272" y="1174" on="1"/>
        <pt x="133" y="1174" on="1"/>
        <pt x="133" y="1234" on="1"/>
      </contour>
    </TTGlyph>
    <TTGlyph name="M" xMin="102" yMin="0" xMax="1556" yMax="1234">
      <contour>
        <pt x="342" y="1088" on="1"/>
        <pt x="342" y="62" on="1"/>
        <pt x="503" y="62" on="1"/>
        <pt x="503" y="0" on="1"/>
        <pt x="102" y="0" on="1"/>
        <pt x="102" y="62" on="1"/>
        <pt x="263" y="62" on="1"/>
        <pt x="263" y="1171" on="1"/>
        <pt x="102" y="1171" on="1"/>
        <pt x="102" y="1234" on="1"/>
        <pt x="358" y="1234" on="1"/>
        <pt x="839" y="239" on="1"/>
        <pt x="1300" y="1234" on="1"/>
        <pt x="1556" y="1234" on="1"/>
        <pt x="1556" y="1171" on="1"/>
        <pt x="1395" y="1171" on="1"/>
        <pt x="1395" y="62" on="1"/>
        <pt x="1556" y="62" on="1"/>
        <pt x="1556" y="0" on="1"/>
        <pt x="1155" y="0" on="1"/>
        <pt x="1155" y="62" on="1"/>
        <pt x="1316" y="62" on="1"/>
        <pt x="1316" y="1088" on="1"/>
        <pt x="839" y="78" on="1"/>
      </contour>
    </TTGlyph>
    <TTGlyph name="N" xMin="102" yMin="0" xMax="1426" yMax="1234">
      <contour>
        <pt x="342" y="1234" on="1"/>
        <pt x="1186" y="125" on="1"/>
        <pt x="1186" y="1171" on="1"/>
        <pt x="1025" y="1171" on="1"/>
        <pt x="1025" y="1234" on="1"/>
        <pt x="1426" y="1234" on="1"/>
        <pt x="1426" y="1171" on="1"/>
        <pt x="1265" y="1171" on="1"/>
        <pt x="1265" y="0" on="1"/>
        <pt x="1186" y="0" on="1"/>
        <pt x="342" y="1114" on="1"/>
        <pt x="342" y="62" on="1"/>
        <pt x="503" y="62" on="1"/>
        <pt x="503" y="0" on="1"/>
        <pt x="102" y="0" on="1"/>
        <pt x="102" y="62" on="1"/>
        <pt x="263" y="62" on="1"/>
        <pt x="263" y="1171" on="1"/>
        <pt x="102" y="1171" on="1"/>
        <pt x="102" y="1234" on="1"/>
      </contour>
    </TTGlyph>
    <TTGlyph name="Nacute" xMin="102" yMin="0" xMax="1426" yMax="1626">
      <component glyphName="acute" x="624" y="392" flags="0x1004"/>
      <component glyphName="N" x="0" y="0" flags="0x1204"/>
    </TTGlyph>
    <TTGlyph name="Ntilde" xMin="102" yMin="0" xMax="1426" yMax="1512">
      <component glyphName="tilde" x="407" y="355" flags="0x1004"/>
      <component glyphName="N" x="0" y="0" flags="0x1204"/>
    </TTGlyph>
    <TTGlyph name="O" xMin="78" yMin="-23" xMax="1358" yMax="1255">
      <contour>
        <pt x="716" y="1182" on="1"/>
        <pt x="600" y="1182" on="0"/>
        <pt x="401" y="1104" on="0"/>
        <pt x="267" y="975" on="0"/>
        <pt x="226" y="890" on="1"/>
        <pt x="162" y="760" on="0"/>
        <pt x="162" y="633" on="1"/>
        <pt x="162" y="381" on="0"/>
        <pt x="453" y="48" on="0"/>
        <pt x="718" y="48" on="1"/>
        <pt x="1064" y="48" on="0"/>
        <pt x="1212" y="342" on="1"/>
        <pt x="1274" y="468" on="0"/>
        <pt x="1274" y="576" on="1"/>
        <pt x="1274" y="939" on="0"/>
        <pt x="1019" y="1101" on="1"/>
        <pt x="892" y="1182" on="0"/>
      </contour>
      <contour>
        <pt x="718" y="-23" on="1"/>
        <pt x="415" y="-23" on="0"/>
        <pt x="78" y="354" on="0"/>
        <pt x="78" y="871" on="0"/>
        <pt x="415" y="1255" on="0"/>
        <pt x="718" y="1255" on="1"/>
        <pt x="1120" y="1255" on="0"/>
        <pt x="1286" y="922" on="1"/>
        <pt x="1358" y="779" on="0"/>
        <pt x="1358" y="636" on="1"/>
        <pt x="1358" y="354" on="0"/>
        <pt x="1021" y="-23" on="0"/>
      </contour>
    </TTGlyph>
    <TTGlyph name="OE" xMin="76" yMin="0" xMax="1806" yMax="1234">
      <contour>
        <pt x="1068" y="1164" on="1"/>
        <pt x="1068" y="666" on="1"/>
        <pt x="1501" y="666" on="1"/>
        <pt x="1501" y="824" on="1"/>
        <pt x="1568" y="824" on="1"/>
        <pt x="1568" y="424" on="1"/>
        <pt x="1501" y="424" on="1"/>
        <pt x="1501" y="596" on="1"/>
        <pt x="1068" y="596" on="1"/>
        <pt x="1068" y="70" on="1"/>
        <pt x="1729" y="70" on="1"/>
        <pt x="1729" y="376" on="1"/>
        <pt x="1806" y="376" on="1"/>
        <pt x="1806" y="0" on="1"/>
        <pt x="716" y="0" on="1"/>
        <pt x="413" y="0" on="0"/>
        <pt x="76" y="364" on="0"/>
        <pt x="76" y="865" on="0"/>
        <pt x="415" y="1234" on="0"/>
        <pt x="716" y="1234" on="1"/>
        <pt x="1784" y="1234" on="1"/>
        <pt x="1784" y="858" on="1"/>
        <pt x="1707" y="858" on="1"/>
        <pt x="1707" y="1164" on="1"/>
      </contour>
      <contour>
        <pt x="986" y="1158" on="1"/>
        <pt x="716" y="1158" on="1"/>
        <pt x="454" y="1158" on="0"/>
        <pt x="160" y="834" on="0"/>
        <pt x="160" y="390" on="0"/>
        <pt x="451" y="70" on="0"/>
        <pt x="716" y="70" on="1"/>
        <pt x="986" y="70" on="1"/>
      </contour>
    </TTGlyph>
    <TTGlyph name="Oacute" xMin="78" yMin="-23" xMax="1358" yMax="1626">
      <component glyphName="acute" x="578" y="392" flags="0x1004"/>
      <component glyphName="O" x="0" y="0" flags="0x1204"/>
    </TTGlyph>
    <TTGlyph name="Ocircumflex" xMin="78" yMin="-23" xMax="1358" yMax="1650">
      <component glyphName="circumflex" x="422" y="455" flags="0x1004"/>
      <component glyphName="O" x="0" y="0" flags="0x1204"/>
    </TTGlyph>
    <TTGlyph name="Odieresis" xMin="78" yMin="-23" xMax="1358" yMax="1483">
      <component glyphName="dieresis" x="416" y="437" flags="0x1004"/>
      <component glyphName="O" x="0" y="0" flags="0x1204"/>
    </TTGlyph>
    <TTGlyph name="Ograve" xMin="78" yMin="-23" xMax="1358" yMax="1626">
      <component glyphName="grave" x="442" y="392" flags="0x1004"/>
      <component glyphName="O" x="0" y="0" flags="0x1204"/>
    </TTGlyph>
    <TTGlyph name="Oslash" xMin="82" yMin="-42" xMax="1362" yMax="1255">
      <contour>
        <pt x="1160" y="1095" on="1"/>
        <pt x="1362" y="909" on="0"/>
        <pt x="1362" y="354" on="0"/>
        <pt x="1025" y="-23" on="0"/>
        <pt x="722" y="-23" on="1"/>
        <pt x="517" y="-23" on="0"/>
        <pt x="365" y="72" on="1"/>
        <pt x="276" y="-42" on="1"/>
        <pt x="228" y="-8" on="1"/>
        <pt x="317" y="105" on="1"/>
        <pt x="82" y="288" on="0"/>
        <pt x="82" y="613" on="1"/>
        <pt x="82" y="871" on="0"/>
        <pt x="419" y="1255" on="0"/>
        <pt x="722" y="1255" on="1"/>
        <pt x="956" y="1255" on="0"/>
        <pt x="1118" y="1131" on="1"/>
        <pt x="1204" y="1242" on="1"/>
        <pt x="1250" y="1210" on="1"/>
      </contour>
      <contour>
        <pt x="1069" y="1069" on="1"/>
        <pt x="923" y="1182" on="0"/>
        <pt x="722" y="1182" on="1"/>
        <pt x="372" y="1182" on="0"/>
        <pt x="228" y="886" on="1"/>
        <pt x="166" y="759" on="0"/>
        <pt x="166" y="654" on="1"/>
        <pt x="166" y="322" on="0"/>
        <pt x="363" y="165" on="1"/>
      </contour>
      <contour>
        <pt x="411" y="131" on="1"/>
        <pt x="543" y="48" on="0"/>
        <pt x="678" y="48" on="1"/>
        <pt x="1068" y="48" on="0"/>
        <pt x="1213" y="337" on="1"/>
        <pt x="1278" y="467" on="0"/>
        <pt x="1278" y="598" on="1"/>
        <pt x="1278" y="866" on="0"/>
        <pt x="1111" y="1031" on="1"/>
      </contour>
    </TTGlyph>
    <TTGlyph name="Otilde" xMin="78" yMin="-23" xMax="1358" yMax="1512">
      <component glyphName="tilde" x="361" y="355" flags="0x1004"/>
      <component glyphName="O" x="0" y="0" flags="0x1204"/>
    </TTGlyph>
    <TTGlyph name="P" xMin="88" yMin="0" xMax="1131" yMax="1234">
      <contour>
        <pt x="101" y="62" on="1"/>
        <pt x="254" y="62" on="1"/>
        <pt x="254" y="1171" on="1"/>
        <pt x="88" y="1171" on="1"/>
        <pt x="88" y="1234" on="1"/>
        <pt x="769" y="1234" on="1"/>
        <pt x="940" y="1234" on="0"/>
        <pt x="1131" y="1024" on="0"/>
        <pt x="1131" y="737" on="0"/>
        <pt x="940" y="517" on="0"/>
        <pt x="769" y="517" on="1"/>
        <pt x="335" y="517" on="1"/>
        <pt x="335" y="62" on="1"/>
        <pt x="505" y="62" on="1"/>
        <pt x="505" y="0" on="1"/>
        <pt x="101" y="0" on="1"/>
      </contour>
      <contour>
        <pt x="335" y="582" on="1"/>
        <pt x="769" y="582" on="1"/>
        <pt x="902" y="582" on="0"/>
        <pt x="1052" y="760" on="0"/>
        <pt x="1052" y="1000" on="0"/>
        <pt x="902" y="1171" on="0"/>
        <pt x="769" y="1171" on="1"/>
        <pt x="335" y="1171" on="1"/>
      </contour>
    </TTGlyph>
    <TTGlyph name="Q" xMin="78" yMin="-181" xMax="1358" yMax="1255">
      <contour>
        <pt x="422" y="38" on="1"/>
        <pt x="78" y="198" on="0"/>
        <pt x="78" y="652" on="1"/>
        <pt x="78" y="779" on="0"/>
        <pt x="152" y="926" on="1"/>
        <pt x="226" y="1075" on="0"/>
        <pt x="518" y="1255" on="0"/>
        <pt x="718" y="1255" on="1"/>
        <pt x="1120" y="1255" on="0"/>
        <pt x="1286" y="922" on="1"/>
        <pt x="1358" y="780" on="0"/>
        <pt x="1358" y="640" on="1"/>
        <pt x="1358" y="373" on="0"/>
        <pt x="1061" y="6" on="0"/>
        <pt x="794" y="-19" on="1"/>
        <pt x="951" y="-108" on="0"/>
        <pt x="1108" y="-108" on="0"/>
        <pt x="1167" y="-84" on="1"/>
        <pt x="1192" y="-157" on="1"/>
        <pt x="1114" y="-181" on="0"/>
        <pt x="1054" y="-181" on="1"/>
        <pt x="989" y="-181" on="0"/>
        <pt x="869" y="-145" on="0"/>
        <pt x="790" y="-99" on="0"/>
        <pt x="683" y="-40" on="0"/>
        <pt x="640" y="-26" on="1"/>
        <pt x="603" y="-13" on="0"/>
        <pt x="438" y="-13" on="0"/>
        <pt x="303" y="-78" on="1"/>
        <pt x="285" y="-7" on="1"/>
        <pt x="358" y="23" on="0"/>
      </contour>
      <contour>
        <pt x="716" y="1182" on="1"/>
        <pt x="600" y="1182" on="0"/>
        <pt x="401" y="1104" on="0"/>
        <pt x="267" y="975" on="0"/>
        <pt x="226" y="890" on="1"/>
        <pt x="162" y="760" on="0"/>
        <pt x="162" y="633" on="1"/>
        <pt x="162" y="381" on="0"/>
        <pt x="453" y="48" on="0"/>
        <pt x="718" y="48" on="1"/>
        <pt x="1064" y="48" on="0"/>
        <pt x="1212" y="342" on="1"/>
        <pt x="1274" y="468" on="0"/>
        <pt x="1274" y="576" on="1"/>
        <pt x="1274" y="939" on="0"/>
        <pt x="1019" y="1101" on="1"/>
        <pt x="892" y="1182" on="0"/>
      </contour>
    </TTGlyph>
    <TTGlyph name="R" xMin="88" yMin="0" xMax="1217" yMax="1234">
      <contour>
        <pt x="101" y="62" on="1"/>
        <pt x="254" y="62" on="1"/>
        <pt x="254" y="1171" on="1"/>
        <pt x="88" y="1171" on="1"/>
        <pt x="88" y="1234" on="1"/>
        <pt x="728" y="1234" on="1"/>
        <pt x="899" y="1234" on="0"/>
        <pt x="1090" y="1039" on="0"/>
        <pt x="1090" y="907" on="1"/>
        <pt x="1090" y="775" on="0"/>
        <pt x="899" y="577" on="0"/>
        <pt x="728" y="577" on="1"/>
        <pt x="727" y="577" on="1"/>
        <pt x="1043" y="62" on="1"/>
        <pt x="1217" y="62" on="1"/>
        <pt x="1217" y="0" on="1"/>
        <pt x="985" y="0" on="1"/>
        <pt x="643" y="577" on="1"/>
        <pt x="335" y="577" on="1"/>
        <pt x="335" y="62" on="1"/>
        <pt x="505" y="62" on="1"/>
        <pt x="505" y="0" on="1"/>
        <pt x="101" y="0" on="1"/>
      </contour>
      <contour>
        <pt x="728" y="642" on="1"/>
        <pt x="863" y="642" on="0"/>
        <pt x="1011" y="791" on="0"/>
        <pt x="1011" y="934" on="1"/>
        <pt x="1011" y="1014" on="0"/>
        <pt x="862" y="1171" on="0"/>
        <pt x="728" y="1171" on="1"/>
        <pt x="335" y="1171" on="1"/>
        <pt x="335" y="642" on="1"/>
      </contour>
    </TTGlyph>
    <TTGlyph name="Racute" xMin="88" yMin="0" xMax="1217" yMax="1626">
      <component glyphName="acute" x="512" y="392" flags="0x1004"/>
      <component glyphName="R" x="0" y="0" flags="0x1204"/>
    </TTGlyph>
    <TTGlyph name="Rcaron" xMin="88" yMin="0" xMax="1217" yMax="1650">
      <component glyphName="caron" x="354" y="455" flags="0x1004"/>
      <component glyphName="R" x="0" y="0" flags="0x1204"/>
    </TTGlyph>
    <TTGlyph name="Rcommaaccent" xMin="88" yMin="-410" xMax="1217" yMax="1234">
      <component glyphName="uni0326" x="420" y="-230" flags="0x1004"/>
      <component glyphName="R" x="0" y="0" flags="0x1204"/>
    </TTGlyph>
    <TTGlyph name="S" xMin="143" yMin="-23" xMax="1049" yMax="1255">
      <contour>
        <pt x="565" y="1182" on="1"/>
        <pt x="234" y="1182" on="0"/>
        <pt x="234" y="904" on="1"/>
        <pt x="234" y="777" on="0"/>
        <pt x="408" y="686" on="0"/>
        <pt x="809" y="646" on="0"/>
        <pt x="1049" y="499" on="0"/>
        <pt x="1049" y="194" on="0"/>
        <pt x="847" y="-23" on="0"/>
        <pt x="424" y="-23" on="0"/>
        <pt x="231" y="112" on="1"/>
        <pt x="231" y="0" on="1"/>
        <pt x="152" y="0" on="1"/>
        <pt x="152" y="416" on="1"/>
        <pt x="231" y="416" on="1"/>
        <pt x="231" y="196" on="1"/>
        <pt x="426" y="52" on="0"/>
        <pt x="868" y="52" on="0"/>
        <pt x="940" y="220" on="1"/>
        <pt x="960" y="268" on="0"/>
        <pt x="960" y="333" on="1"/>
        <pt x="960" y="462" on="0"/>
        <pt x="776" y="573" on="0"/>
        <pt x="354" y="615" on="0"/>
        <pt x="143" y="755" on="0"/>
        <pt x="143" y="1081" on="0"/>
        <pt x="380" y="1255" on="0"/>
        <pt x="725" y="1255" on="0"/>
        <pt x="899" y="1163" on="1"/>
        <pt x="899" y="1234" on="1"/>
        <pt x="978" y="1234" on="1"/>
        <pt x="978" y="899" on="1"/>
        <pt x="899" y="899" on="1"/>
        <pt x="899" y="1080" on="1"/>
        <pt x="746" y="1182" on="0"/>
      </contour>
    </TTGlyph>
    <TTGlyph name="Scaron" xMin="143" yMin="-23" xMax="1049" yMax="1650">
      <component glyphName="caron" x="297" y="455" flags="0x1004"/>
      <component glyphName="S" x="0" y="0" flags="0x1204"/>
    </TTGlyph>
    <TTGlyph name="T" xMin="-14" yMin="0" xMax="1073" yMax="1234">
      <contour>
        <pt x="1073" y="1234" on="1"/>
        <pt x="1073" y="842" on="1"/>
        <pt x="996" y="842" on="1"/>
        <pt x="996" y="1164" on="1"/>
        <pt x="566" y="1164" on="1"/>
        <pt x="566" y="60" on="1"/>
        <pt x="742" y="60" on="1"/>
        <pt x="742" y="0" on="1"/>
        <pt x="310" y="0" on="1"/>
        <pt x="310" y="60" on="1"/>
        <pt x="485" y="60" on="1"/>
        <pt x="485" y="1164" on="1"/>
        <pt x="62" y="1164" on="1"/>
        <pt x="62" y="842" on="1"/>
        <pt x="-14" y="842" on="1"/>
        <pt x="-14" y="1234" on="1"/>
      </contour>
    </TTGlyph>
    <TTGlyph name="Thorn" xMin="104" yMin="0" xMax="1074" yMax="1234">
      <contour>
        <pt x="338" y="1042" on="1"/>
        <pt x="736" y="1042" on="1"/>
        <pt x="899" y="1042" on="0"/>
        <pt x="1074" y="865" on="0"/>
        <pt x="1074" y="614" on="0"/>
        <pt x="892" y="421" on="0"/>
        <pt x="736" y="421" on="1"/>
        <pt x="338" y="421" on="1"/>
        <pt x="338" y="62" on="1"/>
        <pt x="508" y="62" on="1"/>
        <pt x="508" y="0" on="1"/>
        <pt x="104" y="0" on="1"/>
        <pt x="104" y="62" on="1"/>
        <pt x="257" y="62" on="1"/>
        <pt x="257" y="1171" on="1"/>
        <pt x="106" y="1171" on="1"/>
        <pt x="106" y="1234" on="1"/>
        <pt x="493" y="1234" on="1"/>
        <pt x="493" y="1171" on="1"/>
        <pt x="338" y="1171" on="1"/>
      </contour>
      <contour>
        <pt x="736" y="486" on="1"/>
        <pt x="857" y="486" on="0"/>
        <pt x="995" y="633" on="0"/>
        <pt x="995" y="767" on="1"/>
        <pt x="995" y="840" on="0"/>
        <pt x="860" y="979" on="0"/>
        <pt x="736" y="979" on="1"/>
        <pt x="338" y="979" on="1"/>
        <pt x="338" y="486" on="1"/>
      </contour>
    </TTGlyph>
    <TTGlyph name="U" xMin="2" yMin="-23" xMax="1384" yMax="1234">
      <contour>
        <pt x="1142" y="1171" on="1"/>
        <pt x="981" y="1171" on="1"/>
        <pt x="981" y="1234" on="1"/>
        <pt x="1384" y="1234" on="1"/>
        <pt x="1384" y="1171" on="1"/>
        <pt x="1224" y="1171" on="1"/>
        <pt x="1224" y="404" on="1"/>
        <pt x="1224" y="203" on="0"/>
        <pt x="901" y="-23" on="0"/>
        <pt x="471" y="-23" on="0"/>
        <pt x="163" y="201" on="0"/>
        <pt x="163" y="404" on="1"/>
        <pt x="163" y="1171" on="1"/>
        <pt x="2" y="1171" on="1"/>
        <pt x="2" y="1234" on="1"/>
        <pt x="405" y="1234" on="1"/>
        <pt x="405" y="1171" on="1"/>
        <pt x="244" y="1171" on="1"/>
        <pt x="244" y="406" on="1"/>
        <pt x="244" y="235" on="0"/>
        <pt x="503" y="48" on="0"/>
        <pt x="680" y="48" on="1"/>
        <pt x="981" y="48" on="0"/>
        <pt x="1102" y="250" on="1"/>
        <pt x="1142" y="317" on="0"/>
        <pt x="1142" y="406" on="1"/>
      </contour>
    </TTGlyph>
    <TTGlyph name="Uacute" xMin="2" yMin="-23" xMax="1384" yMax="1626">
      <component glyphName="acute" x="552" y="392" flags="0x1004"/>
      <component glyphName="U" x="0" y="0" flags="0x1204"/>
    </TTGlyph>
    <TTGlyph name="Ucircumflex" xMin="2" yMin="-23" xMax="1384" yMax="1650">
      <component glyphName="circumflex" x="397" y="455" flags="0x1004"/>
      <component glyphName="U" x="0" y="0" flags="0x1204"/>
    </TTGlyph>
    <TTGlyph name="Udieresis" xMin="2" yMin="-23" xMax="1384" yMax="1483">
      <component glyphName="dieresis" x="391" y="437" flags="0x1004"/>
      <component glyphName="U" x="0" y="0" flags="0x1204"/>
    </TTGlyph>
    <TTGlyph name="Ugrave" xMin="2" yMin="-23" xMax="1384" yMax="1626">
      <component glyphName="grave" x="416" y="392" flags="0x1004"/>
      <component glyphName="U" x="0" y="0" flags="0x1204"/>
    </TTGlyph>
    <TTGlyph name="V" xMin="-82" yMin="0" xMax="1202" yMax="1234">
      <contour>
        <pt x="516" y="0" on="1"/>
        <pt x="76" y="1171" on="1"/>
        <pt x="-82" y="1171" on="1"/>
        <pt x="-82" y="1234" on="1"/>
        <pt x="321" y="1234" on="1"/>
        <pt x="321" y="1171" on="1"/>
        <pt x="164" y="1171" on="1"/>
        <pt x="560" y="100" on="1"/>
        <pt x="952" y="1171" on="1"/>
        <pt x="799" y="1171" on="1"/>
        <pt x="799" y="1234" on="1"/>
        <pt x="1202" y="1234" on="1"/>
        <pt x="1202" y="1171" on="1"/>
        <pt x="1046" y="1171" on="1"/>
        <pt x="602" y="0" on="1"/>
      </contour>
    </TTGlyph>
    <TTGlyph name="W" xMin="-78" yMin="0" xMax="1862" yMax="1234">
      <contour>
        <pt x="1239" y="0" on="1"/>
        <pt x="893" y="1044" on="1"/>
        <pt x="560" y="0" on="1"/>
        <pt x="471" y="0" on="1"/>
        <pt x="80" y="1171" on="1"/>
        <pt x="-78" y="1171" on="1"/>
        <pt x="-78" y="1234" on="1"/>
        <pt x="325" y="1234" on="1"/>
        <pt x="325" y="1171" on="1"/>
        <pt x="168" y="1171" on="1"/>
        <pt x="516" y="100" on="1"/>
        <pt x="848" y="1171" on="1"/>
        <pt x="695" y="1171" on="1"/>
        <pt x="695" y="1234" on="1"/>
        <pt x="1093" y="1234" on="1"/>
        <pt x="1093" y="1171" on="1"/>
        <pt x="936" y="1171" on="1"/>
        <pt x="1284" y="100" on="1"/>
        <pt x="1616" y="1171" on="1"/>
        <pt x="1463" y="1171" on="1"/>
        <pt x="1463" y="1234" on="1"/>
        <pt x="1862" y="1234" on="1"/>
        <pt x="1862" y="1171" on="1"/>
        <pt x="1706" y="1171" on="1"/>
        <pt x="1326" y="0" on="1"/>
      </contour>
    </TTGlyph>
    <TTGlyph name="X" xMin="55" yMin="0" xMax="1214" yMax="1234">
      <contour>
        <pt x="470" y="1234" on="1"/>
        <pt x="470" y="1171" on="1"/>
        <pt x="310" y="1171" on="1"/>
        <pt x="629" y="695" on="1"/>
        <pt x="947" y="1171" on="1"/>
        <pt x="787" y="1171" on="1"/>
        <pt x="787" y="1234" on="1"/>
        <pt x="1190" y="1234" on="1"/>
        <pt x="1190" y="1171" on="1"/>
        <pt x="1032" y="1171" on="1"/>
        <pt x="673" y="629" on="1"/>
        <pt x="1054" y="62" on="1"/>
        <pt x="1214" y="62" on="1"/>
        <pt x="1214" y="0" on="1"/>
        <pt x="811" y="0" on="1"/>
        <pt x="811" y="62" on="1"/>
        <pt x="972" y="62" on="1"/>
        <pt x="632" y="568" on="1"/>
        <pt x="298" y="62" on="1"/>
        <pt x="458" y="62" on="1"/>
        <pt x="458" y="0" on="1"/>
        <pt x="55" y="0" on="1"/>
        <pt x="55" y="62" on="1"/>
        <pt x="209" y="62" on="1"/>
        <pt x="588" y="634" on="1"/>
        <pt x="228" y="1171" on="1"/>
        <pt x="67" y="1171" on="1"/>
        <pt x="67" y="1234" on="1"/>
      </contour>
    </TTGlyph>
    <TTGlyph name="Y" xMin="-88" yMin="0" xMax="1189" yMax="1234">
      <contour>
        <pt x="-88" y="1171" on="1"/>
        <pt x="-88" y="1234" on="1"/>
        <pt x="315" y="1234" on="1"/>
        <pt x="315" y="1171" on="1"/>
        <pt x="158" y="1171" on="1"/>
        <pt x="555" y="508" on="1"/>
        <pt x="945" y="1171" on="1"/>
        <pt x="786" y="1171" on="1"/>
        <pt x="786" y="1234" on="1"/>
        <pt x="1189" y="1234" on="1"/>
        <pt x="1189" y="1171" on="1"/>
        <pt x="1033" y="1171" on="1"/>
        <pt x="594" y="436" on="1"/>
        <pt x="594" y="62" on="1"/>
        <pt x="754" y="62" on="1"/>
        <pt x="754" y="0" on="1"/>
        <pt x="351" y="0" on="1"/>
        <pt x="351" y="62" on="1"/>
        <pt x="512" y="62" on="1"/>
        <pt x="512" y="436" on="1"/>
        <pt x="70" y="1171" on="1"/>
      </contour>
    </TTGlyph>
    <TTGlyph name="Yacute" xMin="-88" yMin="0" xMax="1189" yMax="1626">
      <component glyphName="acute" x="410" y="392" flags="0x1004"/>
      <component glyphName="Y" x="0" y="0" flags="0x1204"/>
    </TTGlyph>
    <TTGlyph name="Ydieresis" xMin="-88" yMin="0" xMax="1189" yMax="1483">
      <component glyphName="dieresis" x="248" y="437" flags="0x1004"/>
      <component glyphName="Y" x="0" y="0" flags="0x1204"/>
    </TTGlyph>
    <TTGlyph name="Z" xMin="102" yMin="0" xMax="1104" yMax="1234">
      <contour>
        <pt x="185" y="70" on="1"/>
        <pt x="1027" y="70" on="1"/>
        <pt x="1027" y="376" on="1"/>
        <pt x="1104" y="376" on="1"/>
        <pt x="1104" y="0" on="1"/>
        <pt x="102" y="0" on="1"/>
        <pt x="102" y="96" on="1"/>
        <pt x="979" y="1164" on="1"/>
        <pt x="198" y="1164" on="1"/>
        <pt x="198" y="870" on="1"/>
        <pt x="121" y="870" on="1"/>
        <pt x="121" y="1234" on="1"/>
        <pt x="1068" y="1234" on="1"/>
        <pt x="1068" y="1153" on="1"/>
      </contour>
    </TTGlyph>
    <TTGlyph name="Zcaron" xMin="102" yMin="0" xMax="1104" yMax="1650">
      <component glyphName="caron" x="304" y="455" flags="0x1004"/>
      <component glyphName="Z" x="0" y="0" flags="0x1204"/>
    </TTGlyph>
    <TTGlyph name="a" xMin="80" yMin="-14" xMax="907" yMax="854">
      <contour>
        <pt x="342" y="-14" on="1"/>
        <pt x="221" y="-14" on="0"/>
        <pt x="80" y="122" on="0"/>
        <pt x="80" y="248" on="1"/>
        <pt x="80" y="474" on="0"/>
        <pt x="401" y="475" on="1"/>
        <pt x="527" y="475" on="0"/>
        <pt x="674" y="446" on="1"/>
        <pt x="674" y="575" on="1"/>
        <pt x="674" y="787" on="0"/>
        <pt x="436" y="787" on="1"/>
        <pt x="246" y="787" on="0"/>
        <pt x="156" y="696" on="1"/>
        <pt x="120" y="755" on="1"/>
        <pt x="223" y="854" on="0"/>
        <pt x="692" y="854" on="0"/>
        <pt x="741" y="679" on="1"/>
        <pt x="754" y="633" on="0"/>
        <pt x="754" y="593" on="1"/>
        <pt x="754" y="60" on="1"/>
        <pt x="907" y="60" on="1"/>
        <pt x="907" y="0" on="1"/>
        <pt x="690" y="0" on="1"/>
        <pt x="674" y="95" on="1"/>
        <pt x="525" y="-14" on="0"/>
      </contour>
      <contour>
        <pt x="161" y="232" on="1"/>
        <pt x="161" y="148" on="0"/>
        <pt x="277" y="53" on="0"/>
        <pt x="376" y="53" on="1"/>
        <pt x="560" y="53" on="0"/>
        <pt x="674" y="158" on="1"/>
        <pt x="674" y="384" on="1"/>
        <pt x="544" y="410" on="0"/>
        <pt x="430" y="410" on="1"/>
        <pt x="296" y="410" on="0"/>
        <pt x="161" y="334" on="0"/>
      </contour>
    </TTGlyph>
    <TTGlyph name="aacute" xMin="80" yMin="-14" xMax="907" yMax="1225">
      <component glyphName="acute" x="353" y="-9" flags="0x1004"/>
      <component glyphName="a" x="0" y="0" flags="0x1204"/>
    </TTGlyph>
    <TTGlyph name="acircumflex" xMin="80" yMin="-14" xMax="907" yMax="1249">
      <component glyphName="circumflex" x="166" y="54" flags="0x1004"/>
      <component glyphName="a" x="0" y="0" flags="0x1204"/>
    </TTGlyph>
    <TTGlyph name="acute" xMin="125" yMin="985" xMax="310" yMax="1234">
      <contour>
        <pt x="125" y="985" on="1"/>
        <pt x="184" y="1234" on="1"/>
        <pt x="310" y="1234" on="1"/>
        <pt x="156" y="985" on="1"/>
      </contour>
    </TTGlyph>
    <TTGlyph name="adieresis" xMin="80" yMin="-14" xMax="907" yMax="1082">
      <component glyphName="dieresis" x="136" y="36" flags="0x1004"/>
      <component glyphName="a" x="0" y="0" flags="0x1204"/>
    </TTGlyph>
    <TTGlyph name="ae" xMin="80" yMin="-14" xMax="1448" yMax="854">
      <contour>
        <pt x="756" y="400" on="1"/>
        <pt x="756" y="223" on="0"/>
        <pt x="914" y="52" on="0"/>
        <pt x="1081" y="52" on="1"/>
        <pt x="1276" y="48" on="0"/>
        <pt x="1415" y="204" on="1"/>
        <pt x="1448" y="149" on="1"/>
        <pt x="1281" y="-14" on="0"/>
        <pt x="874" y="-14" on="0"/>
        <pt x="761" y="116" on="1"/>
        <pt x="619" y="-14" on="0"/>
        <pt x="388" y="-14" on="1"/>
        <pt x="80" y="-14" on="0"/>
        <pt x="80" y="248" on="1"/>
        <pt x="80" y="474" on="0"/>
        <pt x="404" y="475" on="1"/>
        <pt x="533" y="475" on="0"/>
        <pt x="680" y="446" on="1"/>
        <pt x="674" y="575" on="1"/>
        <pt x="674" y="787" on="0"/>
        <pt x="436" y="787" on="1"/>
        <pt x="246" y="787" on="0"/>
        <pt x="156" y="696" on="1"/>
        <pt x="120" y="755" on="1"/>
        <pt x="223" y="854" on="0"/>
        <pt x="695" y="854" on="0"/>
        <pt x="744" y="641" on="1"/>
        <pt x="857" y="854" on="0"/>
        <pt x="1097" y="854" on="1"/>
        <pt x="1206" y="854" on="0"/>
        <pt x="1369" y="723" on="0"/>
        <pt x="1447" y="520" on="0"/>
        <pt x="1447" y="400" on="1"/>
      </contour>
      <contour>
        <pt x="1369" y="466" on="1"/>
        <pt x="1352" y="680" on="0"/>
        <pt x="1208" y="760" on="1"/>
        <pt x="1160" y="787" on="0"/>
        <pt x="1088" y="787" on="1"/>
        <pt x="945" y="787" on="0"/>
        <pt x="765" y="595" on="0"/>
        <pt x="758" y="466" on="1"/>
      </contour>
      <contour>
        <pt x="430" y="410" on="1"/>
        <pt x="296" y="410" on="0"/>
        <pt x="161" y="334" on="0"/>
        <pt x="161" y="232" on="1"/>
        <pt x="161" y="53" on="0"/>
        <pt x="403" y="53" on="1"/>
        <pt x="516" y="53" on="0"/>
        <pt x="651" y="101" on="0"/>
        <pt x="731" y="164" on="1"/>
        <pt x="680" y="266" on="0"/>
        <pt x="680" y="384" on="1"/>
        <pt x="543" y="410" on="0"/>
      </contour>
    </TTGlyph>
    <TTGlyph name="agrave" xMin="80" yMin="-14" xMax="907" yMax="1225">
      <component glyphName="grave" x="217" y="-9" flags="0x1004"/>
      <component glyphName="a" x="0" y="0" flags="0x1204"/>
    </TTGlyph>
    <TTGlyph name="ampersand" xMin="72" yMin="-23" xMax="1108" yMax="1255">
      <contour>
        <pt x="487" y="1255" on="1"/>
        <pt x="606" y="1255" on="0"/>
        <pt x="769" y="1129" on="0"/>
        <pt x="769" y="1024" on="1"/>
        <pt x="769" y="853" on="0"/>
        <pt x="618" y="750" on="1"/>
        <pt x="561" y="711" on="0"/>
        <pt x="475" y="676" on="1"/>
        <pt x="824" y="229" on="1"/>
        <pt x="830" y="238" on="0"/>
        <pt x="844" y="257" on="1"/>
        <pt x="912" y="345" on="0"/>
        <pt x="912" y="511" on="1"/>
        <pt x="1108" y="511" on="1"/>
        <pt x="1108" y="446" on="1"/>
        <pt x="968" y="446" on="1"/>
        <pt x="968" y="310" on="0"/>
        <pt x="864" y="171" on="1"/>
        <pt x="948" y="68" on="1"/>
        <pt x="1108" y="68" on="1"/>
        <pt x="1108" y="0" on="1"/>
        <pt x="914" y="0" on="1"/>
        <pt x="812" y="113" on="1"/>
        <pt x="743" y="36" on="0"/>
        <pt x="582" y="-21" on="0"/>
        <pt x="447" y="-23" on="1"/>
        <pt x="301" y="-23" on="0"/>
        <pt x="72" y="180" on="0"/>
        <pt x="72" y="322" on="1"/>
        <pt x="72" y="484" on="0"/>
        <pt x="218" y="651" on="0"/>
        <pt x="373" y="702" on="1"/>
        <pt x="256" y="863" on="1"/>
        <pt x="206" y="930" on="0"/>
        <pt x="206" y="1112" on="0"/>
        <pt x="360" y="1255" on="0"/>
      </contour>
      <contour>
        <pt x="145" y="332" on="1"/>
        <pt x="145" y="220" on="0"/>
        <pt x="333" y="48" on="0"/>
        <pt x="450" y="48" on="1"/>
        <pt x="579" y="48" on="0"/>
        <pt x="711" y="98" on="0"/>
        <pt x="773" y="170" on="1"/>
        <pt x="410" y="646" on="1"/>
        <pt x="194" y="582" on="0"/>
        <pt x="156" y="430" on="1"/>
        <pt x="144" y="384" on="0"/>
      </contour>
      <contour>
        <pt x="489" y="1183" on="1"/>
        <pt x="408" y="1183" on="0"/>
        <pt x="279" y="1088" on="0"/>
        <pt x="279" y="1016" on="1"/>
        <pt x="279" y="950" on="0"/>
        <pt x="323" y="889" on="1"/>
        <pt x="440" y="728" on="1"/>
        <pt x="652" y="810" on="0"/>
        <pt x="684" y="932" on="1"/>
        <pt x="694" y="973" on="0"/>
        <pt x="694" y="1036" on="1"/>
        <pt x="694" y="1103" on="0"/>
        <pt x="571" y="1183" on="0"/>
      </contour>
    </TTGlyph>
    <TTGlyph name="approxequal" xMin="131" yMin="439" xMax="678" yMax="773">
      <contour>
        <pt x="255" y="574" on="1"/>
        <pt x="286" y="574" on="0"/>
        <pt x="539" y="527" on="0"/>
        <pt x="568" y="527" on="1"/>
        <pt x="616" y="527" on="0"/>
        <pt x="630" y="570" on="1"/>
        <pt x="667" y="570" on="1"/>
        <pt x="652" y="439" on="0"/>
        <pt x="543" y="439" on="1"/>
        <pt x="484" y="439" on="0"/>
        <pt x="262" y="486" on="0"/>
        <pt x="181" y="486" on="0"/>
        <pt x="169" y="445" on="1"/>
        <pt x="131" y="445" on="1"/>
        <pt x="146" y="574" on="0"/>
      </contour>
      <contour>
        <pt x="553" y="638" on="1"/>
        <pt x="495" y="638" on="0"/>
        <pt x="273" y="685" on="0"/>
        <pt x="190" y="685" on="0"/>
        <pt x="180" y="644" on="1"/>
        <pt x="142" y="644" on="1"/>
        <pt x="155" y="773" on="0"/>
        <pt x="265" y="773" on="1"/>
        <pt x="323" y="773" on="0"/>
        <pt x="530" y="726" on="0"/>
        <pt x="625" y="726" on="0"/>
        <pt x="641" y="769" on="1"/>
        <pt x="678" y="769" on="1"/>
        <pt x="663" y="638" on="0"/>
      </contour>
    </TTGlyph>
    <TTGlyph name="aring" xMin="80" yMin="-14" xMax="907" yMax="1317">
      <component glyphName="ring" x="161" y="-19" flags="0x1004"/>
      <component glyphName="a" x="0" y="0" flags="0x1204"/>
    </TTGlyph>
    <TTGlyph name="asciicircum" xMin="61" yMin="761" xMax="822" yMax="1255">
      <contour>
        <pt x="822" y="761" on="1"/>
        <pt x="750" y="761" on="1"/>
        <pt x="449" y="1186" on="1"/>
        <pt x="135" y="761" on="1"/>
        <pt x="61" y="761" on="1"/>
        <pt x="407" y="1255" on="1"/>
        <pt x="492" y="1255" on="1"/>
      </contour>
    </TTGlyph>
    <TTGlyph name="asciitilde" xMin="125" yMin="1022" xMax="661" yMax="1157">
      <contour>
        <pt x="249" y="1157" on="1"/>
        <pt x="280" y="1157" on="0"/>
        <pt x="532" y="1110" on="0"/>
        <pt x="561" y="1110" on="1"/>
        <pt x="609" y="1110" on="0"/>
        <pt x="624" y="1153" on="1"/>
        <pt x="661" y="1153" on="1"/>
        <pt x="646" y="1022" on="0"/>
        <pt x="537" y="1022" on="1"/>
        <pt x="478" y="1022" on="0"/>
        <pt x="256" y="1069" on="0"/>
        <pt x="175" y="1069" on="0"/>
        <pt x="163" y="1028" on="1"/>
        <pt x="125" y="1028" on="1"/>
        <pt x="140" y="1157" on="0"/>
      </contour>
    </TTGlyph>
    <TTGlyph name="asterisk" xMin="43" yMin="415" xMax="890" yMax="1229">
      <contour>
        <pt x="517" y="1229" on="1"/>
        <pt x="485" y="818" on="1"/>
        <pt x="859" y="992" on="1"/>
        <pt x="890" y="906" on="1"/>
        <pt x="494" y="785" on="1"/>
        <pt x="763" y="472" on="1"/>
        <pt x="687" y="415" on="1"/>
        <pt x="467" y="761" on="1"/>
        <pt x="246" y="415" on="1"/>
        <pt x="170" y="472" on="1"/>
        <pt x="439" y="785" on="1"/>
        <pt x="43" y="906" on="1"/>
        <pt x="74" y="992" on="1"/>
        <pt x="449" y="818" on="1"/>
        <pt x="416" y="1229" on="1"/>
      </contour>
    </TTGlyph>
    <TTGlyph name="at" xMin="84" yMin="-43" xMax="1357" yMax="1265">
      <contour>
        <pt x="983" y="252" on="1"/>
        <pt x="941" y="252" on="0"/>
        <pt x="888" y="324" on="0"/>
        <pt x="888" y="378" on="1"/>
        <pt x="888" y="408" on="0"/>
        <pt x="891" y="424" on="1"/>
        <pt x="776" y="252" on="0"/>
        <pt x="629" y="252" on="1"/>
        <pt x="527" y="252" on="0"/>
        <pt x="474" y="310" on="1"/>
        <pt x="377" y="417" on="0"/>
        <pt x="377" y="726" on="0"/>
        <pt x="564" y="983" on="0"/>
        <pt x="894" y="983" on="0"/>
        <pt x="964" y="840" on="1"/>
        <pt x="988" y="962" on="1"/>
        <pt x="1075" y="962" on="1"/>
        <pt x="953" y="402" on="1"/>
        <pt x="951" y="392" on="0"/>
        <pt x="951" y="375" on="1"/>
        <pt x="951" y="353" on="0"/>
        <pt x="990" y="325" on="0"/>
        <pt x="1018" y="325" on="1"/>
        <pt x="1051" y="325" on="0"/>
        <pt x="1116" y="375" on="1"/>
        <pt x="1182" y="426" on="0"/>
        <pt x="1278" y="614" on="0"/>
        <pt x="1278" y="716" on="1"/>
        <pt x="1278" y="921" on="0"/>
        <pt x="1003" y="1194" on="0"/>
        <pt x="508" y="1194" on="0"/>
        <pt x="172" y="851" on="0"/>
        <pt x="172" y="590" on="1"/>
        <pt x="172" y="331" on="0"/>
        <pt x="493" y="26" on="0"/>
        <pt x="756" y="26" on="1"/>
        <pt x="1021" y="26" on="0"/>
        <pt x="1174" y="133" on="1"/>
        <pt x="1211" y="83" on="1"/>
        <pt x="1044" y="-43" on="0"/>
        <pt x="783" y="-43" on="1"/>
        <pt x="335" y="-43" on="0"/>
        <pt x="159" y="281" on="1"/>
        <pt x="84" y="419" on="0"/>
        <pt x="84" y="545" on="1"/>
        <pt x="84" y="969" on="0"/>
        <pt x="404" y="1168" on="1"/>
        <pt x="560" y="1265" on="0"/>
        <pt x="744" y="1265" on="1"/>
        <pt x="1063" y="1265" on="0"/>
        <pt x="1357" y="953" on="0"/>
        <pt x="1357" y="550" on="0"/>
        <pt x="1124" y="252" on="0"/>
      </contour>
      <contour>
        <pt x="921" y="678" on="1"/>
        <pt x="921" y="782" on="0"/>
        <pt x="824" y="913" on="0"/>
        <pt x="737" y="913" on="1"/>
        <pt x="609" y="913" on="0"/>
        <pt x="471" y="693" on="0"/>
        <pt x="471" y="574" on="1"/>
        <pt x="471" y="469" on="0"/>
        <pt x="561" y="318" on="0"/>
        <pt x="644" y="318" on="1"/>
        <pt x="766" y="318" on="0"/>
        <pt x="921" y="560" on="0"/>
      </contour>
    </TTGlyph>
    <TTGlyph name="atilde" xMin="80" yMin="-14" xMax="907" yMax="1111">
      <component glyphName="tilde" x="106" y="-46" flags="0x1004"/>
      <component glyphName="a" x="0" y="0" flags="0x1204"/>
    </TTGlyph>
    <TTGlyph name="b" xMin="94" yMin="0" xMax="1136" yMax="1234">
      <contour>
        <pt x="338" y="1234" on="1"/>
        <pt x="338" y="695" on="1"/>
        <pt x="473" y="854" on="0"/>
        <pt x="900" y="854" on="0"/>
        <pt x="1136" y="603" on="0"/>
        <pt x="1136" y="434" on="1"/>
        <pt x="1136" y="186" on="0"/>
        <pt x="750" y="-84" on="0"/>
        <pt x="475" y="36" on="1"/>
        <pt x="381" y="77" on="0"/>
        <pt x="338" y="125" on="1"/>
        <pt x="334" y="93" on="0"/>
        <pt x="331" y="62" on="1"/>
        <pt x="325" y="0" on="1"/>
        <pt x="94" y="0" on="1"/>
        <pt x="94" y="60" on="1"/>
        <pt x="259" y="60" on="1"/>
        <pt x="259" y="1174" on="1"/>
        <pt x="110" y="1174" on="1"/>
        <pt x="110" y="1234" on="1"/>
      </contour>
      <contour>
        <pt x="1057" y="388" on="1"/>
        <pt x="1057" y="577" on="0"/>
        <pt x="864" y="787" on="0"/>
        <pt x="682" y="787" on="1"/>
        <pt x="503" y="787" on="0"/>
        <pt x="338" y="619" on="1"/>
        <pt x="338" y="193" on="1"/>
        <pt x="518" y="53" on="0"/>
        <pt x="871" y="53" on="0"/>
        <pt x="1057" y="277" on="0"/>
      </contour>
    </TTGlyph>
    <TTGlyph name="backslash" xMin="53" yMin="-23" xMax="496" yMax="1255">
      <contour>
        <pt x="496" y="-23" on="1"/>
        <pt x="420" y="-23" on="1"/>
        <pt x="53" y="1255" on="1"/>
        <pt x="124" y="1255" on="1"/>
      </contour>
    </TTGlyph>
    <TTGlyph name="bar" xMin="178" yMin="-23" xMax="246" yMax="1255">
      <contour>
        <pt x="178" y="1255" on="1"/>
        <pt x="246" y="1255" on="1"/>
        <pt x="246" y="-23" on="1"/>
        <pt x="178" y="-23" on="1"/>
      </contour>
    </TTGlyph>
    <TTGlyph name="braceleft" xMin="68" yMin="-23" xMax="475" yMax="1255">
      <contour>
        <pt x="301" y="212" on="1"/>
        <pt x="301" y="102" on="0"/>
        <pt x="368" y="31" on="0"/>
        <pt x="475" y="31" on="1"/>
        <pt x="475" y="-23" on="1"/>
        <pt x="410" y="-23" on="1"/>
        <pt x="225" y="-24" on="0"/>
        <pt x="218" y="184" on="1"/>
        <pt x="216" y="248" on="0"/>
        <pt x="216" y="480" on="0"/>
        <pt x="172" y="574" on="0"/>
        <pt x="68" y="574" on="1"/>
        <pt x="68" y="658" on="1"/>
        <pt x="172" y="658" on="0"/>
        <pt x="216" y="752" on="0"/>
        <pt x="216" y="1101" on="0"/>
        <pt x="238" y="1157" on="1"/>
        <pt x="276" y="1255" on="0"/>
        <pt x="410" y="1255" on="1"/>
        <pt x="475" y="1255" on="1"/>
        <pt x="475" y="1201" on="1"/>
        <pt x="367" y="1201" on="0"/>
        <pt x="301" y="1130" on="0"/>
        <pt x="301" y="796" on="0"/>
        <pt x="251" y="622" on="0"/>
        <pt x="164" y="616" on="1"/>
        <pt x="285" y="608" on="0"/>
        <pt x="297" y="392" on="1"/>
        <pt x="301" y="321" on="0"/>
      </contour>
    </TTGlyph>
    <TTGlyph name="braceright" xMin="86" yMin="-23" xMax="493" yMax="1255">
      <contour>
        <pt x="260" y="1022" on="1"/>
        <pt x="260" y="1133" on="0"/>
        <pt x="195" y="1201" on="0"/>
        <pt x="86" y="1201" on="1"/>
        <pt x="86" y="1255" on="1"/>
        <pt x="151" y="1255" on="1"/>
        <pt x="337" y="1256" on="0"/>
        <pt x="344" y="1048" on="1"/>
        <pt x="346" y="984" on="0"/>
        <pt x="346" y="752" on="0"/>
        <pt x="390" y="658" on="0"/>
        <pt x="493" y="658" on="1"/>
        <pt x="493" y="574" on="1"/>
        <pt x="390" y="574" on="0"/>
        <pt x="346" y="480" on="0"/>
        <pt x="346" y="131" on="0"/>
        <pt x="324" y="75" on="1"/>
        <pt x="286" y="-23" on="0"/>
        <pt x="151" y="-23" on="1"/>
        <pt x="86" y="-23" on="1"/>
        <pt x="86" y="31" on="1"/>
        <pt x="194" y="31" on="0"/>
        <pt x="260" y="102" on="0"/>
        <pt x="260" y="436" on="0"/>
        <pt x="312" y="610" on="0"/>
        <pt x="397" y="616" on="1"/>
        <pt x="276" y="624" on="0"/>
        <pt x="264" y="840" on="1"/>
        <pt x="260" y="912" on="0"/>
      </contour>
    </TTGlyph>
    <TTGlyph name="bracketleft" xMin="178" yMin="-23" xMax="420" yMax="1255">
      <contour>
        <pt x="420" y="1255" on="1"/>
        <pt x="420" y="1193" on="1"/>
        <pt x="260" y="1193" on="1"/>
        <pt x="260" y="40" on="1"/>
        <pt x="420" y="40" on="1"/>
        <pt x="420" y="-23" on="1"/>
        <pt x="178" y="-23" on="1"/>
        <pt x="178" y="1255" on="1"/>
      </contour>
    </TTGlyph>
    <TTGlyph name="bracketright" xMin="100" yMin="-23" xMax="342" yMax="1255">
      <contour>
        <pt x="342" y="1255" on="1"/>
        <pt x="342" y="-23" on="1"/>
        <pt x="100" y="-23" on="1"/>
        <pt x="100" y="40" on="1"/>
        <pt x="261" y="40" on="1"/>
        <pt x="261" y="1193" on="1"/>
        <pt x="100" y="1193" on="1"/>
        <pt x="100" y="1255" on="1"/>
      </contour>
    </TTGlyph>
    <TTGlyph name="breve" xMin="131" yMin="1080" xMax="457" yMax="1248">
      <contour>
        <pt x="182" y="1248" on="1"/>
        <pt x="186" y="1203" on="0"/>
        <pt x="246" y="1136" on="0"/>
        <pt x="286" y="1136" on="1"/>
        <pt x="399" y="1136" on="0"/>
        <pt x="414" y="1248" on="1"/>
        <pt x="457" y="1248" on="1"/>
        <pt x="450" y="1172" on="0"/>
        <pt x="369" y="1080" on="0"/>
        <pt x="296" y="1080" on="1"/>
        <pt x="231" y="1080" on="0"/>
        <pt x="140" y="1174" on="0"/>
        <pt x="131" y="1248" on="1"/>
      </contour>
    </TTGlyph>
    <TTGlyph name="brokenbar" xMin="172" yMin="-23" xMax="240" yMax="1255">
      <contour>
        <pt x="172" y="1255" on="1"/>
        <pt x="240" y="1255" on="1"/>
        <pt x="240" y="715" on="1"/>
        <pt x="172" y="715" on="1"/>
      </contour>
      <contour>
        <pt x="172" y="517" on="1"/>
        <pt x="240" y="517" on="1"/>
        <pt x="240" y="-23" on="1"/>
        <pt x="172" y="-23" on="1"/>
      </contour>
    </TTGlyph>
    <TTGlyph name="bullet" xMin="129" yMin="442" xMax="610" yMax="905">
      <contour>
        <pt x="129" y="674" on="1"/>
        <pt x="129" y="771" on="0"/>
        <pt x="270" y="905" on="0"/>
        <pt x="468" y="905" on="0"/>
        <pt x="610" y="771" on="0"/>
        <pt x="610" y="578" on="0"/>
        <pt x="468" y="442" on="0"/>
        <pt x="270" y="442" on="0"/>
        <pt x="129" y="577" on="0"/>
      </contour>
    </TTGlyph>
    <TTGlyph name="c" xMin="57" yMin="-13" xMax="867" yMax="860">
      <contour>
        <pt x="772" y="600" on="1"/>
        <pt x="763" y="690" on="0"/>
        <pt x="619" y="785" on="0"/>
        <pt x="502" y="787" on="1"/>
        <pt x="351" y="787" on="0"/>
        <pt x="139" y="592" on="0"/>
        <pt x="139" y="253" on="0"/>
        <pt x="353" y="56" on="0"/>
        <pt x="500" y="54" on="1"/>
        <pt x="716" y="54" on="0"/>
        <pt x="844" y="222" on="1"/>
        <pt x="867" y="149" on="1"/>
        <pt x="704" y="-14" on="0"/>
        <pt x="510" y="-13" on="1"/>
        <pt x="384" y="-12" on="0"/>
        <pt x="178" y="96" on="0"/>
        <pt x="57" y="294" on="0"/>
        <pt x="57" y="418" on="1"/>
        <pt x="57" y="612" on="0"/>
        <pt x="301" y="850" on="0"/>
        <pt x="498" y="852" on="1"/>
        <pt x="699" y="855" on="0"/>
        <pt x="762" y="750" on="1"/>
        <pt x="762" y="860" on="1"/>
        <pt x="838" y="860" on="1"/>
        <pt x="838" y="600" on="1"/>
      </contour>
    </TTGlyph>
    <TTGlyph name="caron" xMin="109" yMin="922" xMax="489" yMax="1195">
      <contour>
        <pt x="191" y="1195" on="1"/>
        <pt x="296" y="971" on="1"/>
        <pt x="400" y="1195" on="1"/>
        <pt x="489" y="1195" on="1"/>
        <pt x="343" y="922" on="1"/>
        <pt x="248" y="922" on="1"/>
        <pt x="109" y="1195" on="1"/>
      </contour>
    </TTGlyph>
    <TTGlyph name="ccedilla" xMin="57" yMin="-287" xMax="867" yMax="860">
      <component glyphName="cedilla" x="248" y="-11" flags="0x1004"/>
      <component glyphName="c" x="0" y="0" flags="0x1204"/>
    </TTGlyph>
    <TTGlyph name="cedilla" xMin="100" yMin="-276" xMax="336" yMax="6">
      <contour>
        <pt x="336" y="-188" on="1"/>
        <pt x="336" y="-276" on="0"/>
        <pt x="201" y="-276" on="1"/>
        <pt x="152" y="-276" on="0"/>
        <pt x="100" y="-256" on="1"/>
        <pt x="100" y="-210" on="1"/>
        <pt x="147" y="-224" on="0"/>
        <pt x="232" y="-224" on="0"/>
        <pt x="232" y="-153" on="0"/>
        <pt x="131" y="-144" on="1"/>
        <pt x="189" y="6" on="1"/>
        <pt x="239" y="6" on="1"/>
        <pt x="200" y="-108" on="1"/>
        <pt x="212" y="-108" on="1"/>
        <pt x="273" y="-108" on="0"/>
        <pt x="336" y="-164" on="0"/>
      </contour>
    </TTGlyph>
    <TTGlyph name="cent" xMin="55" yMin="-214" xMax="865" yMax="1064">
      <contour>
        <pt x="865" y="149" on="1"/>
        <pt x="702" y="-14" on="0"/>
        <pt x="494" y="-14" on="1"/>
        <pt x="439" y="-12" on="0"/>
        <pt x="392" y="-1" on="1"/>
        <pt x="331" y="-214" on="1"/>
        <pt x="268" y="-214" on="1"/>
        <pt x="335" y="15" on="1"/>
        <pt x="142" y="86" on="0"/>
        <pt x="76" y="278" on="1"/>
        <pt x="54" y="342" on="0"/>
        <pt x="55" y="426" on="1"/>
        <pt x="55" y="608" on="0"/>
        <pt x="294" y="850" on="0"/>
        <pt x="498" y="854" on="1"/>
        <pt x="533" y="854" on="0"/>
        <pt x="577" y="847" on="1"/>
        <pt x="640" y="1064" on="1"/>
        <pt x="698" y="1064" on="1"/>
        <pt x="632" y="834" on="1"/>
        <pt x="724" y="807" on="0"/>
        <pt x="760" y="750" on="1"/>
        <pt x="760" y="860" on="1"/>
        <pt x="836" y="860" on="1"/>
        <pt x="836" y="600" on="1"/>
        <pt x="770" y="600" on="1"/>
        <pt x="754" y="735" on="0"/>
        <pt x="614" y="773" on="1"/>
        <pt x="411" y="65" on="1"/>
        <pt x="455" y="54" on="0"/>
        <pt x="498" y="54" on="1"/>
        <pt x="714" y="54" on="0"/>
        <pt x="842" y="222" on="1"/>
      </contour>
      <contour>
        <pt x="558" y="783" on="1"/>
        <pt x="530" y="787" on="0"/>
        <pt x="479" y="787" on="1"/>
        <pt x="349" y="787" on="0"/>
        <pt x="137" y="592" on="0"/>
        <pt x="137" y="414" on="1"/>
        <pt x="137" y="298" on="0"/>
        <pt x="255" y="123" on="0"/>
        <pt x="355" y="83" on="1"/>
      </contour>
    </TTGlyph>
    <TTGlyph name="circumflex" xMin="106" yMin="922" xMax="486" yMax="1195">
      <contour>
        <pt x="106" y="922" on="1"/>
        <pt x="245" y="1195" on="1"/>
        <pt x="340" y="1195" on="1"/>
        <pt x="486" y="922" on="1"/>
        <pt x="397" y="922" on="1"/>
        <pt x="293" y="1146" on="1"/>
        <pt x="188" y="922" on="1"/>
      </contour>
    </TTGlyph>
    <TTGlyph name="colon" xMin="150" yMin="194" xMax="267" yMax="815">
      <contour>
        <pt x="267" y="815" on="1"/>
        <pt x="267" y="695" on="1"/>
        <pt x="150" y="695" on="1"/>
        <pt x="150" y="815" on="1"/>
      </contour>
      <contour>
        <pt x="267" y="314" on="1"/>
        <pt x="267" y="194" on="1"/>
        <pt x="150" y="194" on="1"/>
        <pt x="150" y="314" on="1"/>
      </contour>
    </TTGlyph>
    <TTGlyph name="comma" xMin="139" yMin="-180" xMax="274" yMax="116">
      <contour>
        <pt x="274" y="116" on="1"/>
        <pt x="274" y="-6" on="1"/>
        <pt x="274" y="-180" on="0"/>
        <pt x="139" y="-180" on="1"/>
        <pt x="139" y="-136" on="1"/>
        <pt x="186" y="-121" on="0"/>
        <pt x="210" y="-72" on="0"/>
        <pt x="210" y="-4" on="1"/>
        <pt x="148" y="-4" on="1"/>
        <pt x="148" y="116" on="1"/>
      </contour>
    </TTGlyph>
    <TTGlyph name="commaaccent" xMin="131" yMin="941" xMax="266" yMax="1237">
      <contour>
        <pt x="266" y="1237" on="1"/>
        <pt x="266" y="1115" on="1"/>
        <pt x="266" y="941" on="0"/>
        <pt x="131" y="941" on="1"/>
        <pt x="131" y="985" on="1"/>
        <pt x="178" y="1000" on="0"/>
        <pt x="202" y="1049" on="0"/>
        <pt x="202" y="1117" on="1"/>
        <pt x="140" y="1117" on="1"/>
        <pt x="140" y="1237" on="1"/>
      </contour>
    </TTGlyph>
    <TTGlyph name="copyright" xMin="86" yMin="-23" xMax="1370" yMax="1258">
      <contour>
        <pt x="1040" y="379" on="1"/>
        <pt x="904" y="241" on="0"/>
        <pt x="740" y="242" on="1"/>
        <pt x="660" y="242" on="0"/>
        <pt x="519" y="296" on="0"/>
        <pt x="417" y="389" on="0"/>
        <pt x="357" y="524" on="0"/>
        <pt x="357" y="602" on="1"/>
        <pt x="357" y="854" on="0"/>
        <pt x="574" y="942" on="1"/>
        <pt x="643" y="970" on="0"/>
        <pt x="890" y="972" on="0"/>
        <pt x="945" y="895" on="1"/>
        <pt x="945" y="977" on="1"/>
        <pt x="1016" y="977" on="1"/>
        <pt x="1016" y="754" on="1"/>
        <pt x="955" y="754" on="1"/>
        <pt x="938" y="910" on="0"/>
        <pt x="533" y="910" on="0"/>
        <pt x="458" y="735" on="1"/>
        <pt x="433" y="677" on="0"/>
        <pt x="433" y="468" on="0"/>
        <pt x="609" y="307" on="0"/>
        <pt x="911" y="305" on="0"/>
        <pt x="1018" y="448" on="1"/>
      </contour>
      <contour>
        <pt x="459" y="1199" on="0"/>
        <pt x="158" y="849" on="0"/>
        <pt x="158" y="375" on="0"/>
        <pt x="455" y="34" on="0"/>
        <pt x="994" y="34" on="0"/>
        <pt x="1299" y="381" on="0"/>
        <pt x="1299" y="617" on="1"/>
        <pt x="1299" y="849" on="0"/>
        <pt x="994" y="1199" on="0"/>
      </contour>
      <contour>
        <pt x="728" y="-23" on="1"/>
        <pt x="324" y="-23" on="0"/>
        <pt x="158" y="308" on="1"/>
        <pt x="86" y="451" on="0"/>
        <pt x="86" y="616" on="1"/>
        <pt x="86" y="873" on="0"/>
        <pt x="424" y="1258" on="0"/>
        <pt x="728" y="1258" on="1"/>
        <pt x="1132" y="1258" on="0"/>
        <pt x="1298" y="925" on="1"/>
        <pt x="1370" y="782" on="0"/>
        <pt x="1370" y="616" on="1"/>
        <pt x="1370" y="358" on="0"/>
        <pt x="1033" y="-23" on="0"/>
      </contour>
    </TTGlyph>
    <TTGlyph name="currency" xMin="139" yMin="541" xMax="934" yMax="1388">
      <contour>
        <pt x="743" y="647" on="1"/>
        <pt x="657" y="587" on="0"/>
        <pt x="419" y="587" on="0"/>
        <pt x="327" y="646" on="1"/>
        <pt x="221" y="541" on="1"/>
        <pt x="139" y="623" on="1"/>
        <pt x="237" y="721" on="1"/>
        <pt x="147" y="829" on="0"/>
        <pt x="147" y="1110" on="0"/>
        <pt x="235" y="1208" on="1"/>
        <pt x="139" y="1306" on="1"/>
        <pt x="221" y="1388" on="1"/>
        <pt x="325" y="1285" on="1"/>
        <pt x="417" y="1344" on="0"/>
        <pt x="652" y="1344" on="0"/>
        <pt x="746" y="1283" on="1"/>
        <pt x="851" y="1388" on="1"/>
        <pt x="934" y="1306" on="1"/>
        <pt x="835" y="1206" on="1"/>
        <pt x="919" y="1098" on="0"/>
        <pt x="919" y="965" on="1"/>
        <pt x="919" y="828" on="0"/>
        <pt x="832" y="724" on="1"/>
        <pt x="934" y="623" on="1"/>
        <pt x="851" y="541" on="1"/>
      </contour>
      <contour>
        <pt x="532" y="1247" on="1"/>
        <pt x="410" y="1247" on="0"/>
        <pt x="253" y="1096" on="0"/>
        <pt x="253" y="965" on="1"/>
        <pt x="253" y="830" on="0"/>
        <pt x="425" y="680" on="0"/>
        <pt x="508" y="680" on="1"/>
        <pt x="817" y="680" on="0"/>
        <pt x="817" y="991" on="1"/>
        <pt x="817" y="1096" on="0"/>
        <pt x="644" y="1247" on="0"/>
      </contour>
    </TTGlyph>
    <TTGlyph name="d" xMin="47" yMin="-14" xMax="1089" yMax="1234">
      <contour>
        <pt x="845" y="125" on="1"/>
        <pt x="720" y="-14" on="0"/>
        <pt x="439" y="-14" on="1"/>
        <pt x="327" y="-14" on="0"/>
        <pt x="134" y="130" on="0"/>
        <pt x="92" y="224" on="1"/>
        <pt x="47" y="326" on="0"/>
        <pt x="47" y="420" on="1"/>
        <pt x="47" y="604" on="0"/>
        <pt x="283" y="854" on="0"/>
        <pt x="710" y="854" on="0"/>
        <pt x="845" y="695" on="1"/>
        <pt x="845" y="1174" on="1"/>
        <pt x="641" y="1174" on="1"/>
        <pt x="641" y="1234" on="1"/>
        <pt x="924" y="1234" on="1"/>
        <pt x="924" y="60" on="1"/>
        <pt x="1089" y="60" on="1"/>
        <pt x="1089" y="0" on="1"/>
        <pt x="858" y="0" on="1"/>
      </contour>
      <contour>
        <pt x="480" y="53" on="1"/>
        <pt x="665" y="53" on="0"/>
        <pt x="845" y="193" on="1"/>
        <pt x="845" y="619" on="1"/>
        <pt x="680" y="787" on="0"/>
        <pt x="322" y="787" on="0"/>
        <pt x="126" y="580" on="0"/>
        <pt x="126" y="426" on="1"/>
        <pt x="126" y="184" on="0"/>
        <pt x="324" y="86" on="1"/>
        <pt x="390" y="53" on="0"/>
      </contour>
    </TTGlyph>
    <TTGlyph name="dagger" xMin="39" yMin="2" xMax="536" yMax="1210">
      <contour>
        <pt x="269" y="2" on="1"/>
        <pt x="243" y="590" on="1"/>
        <pt x="243" y="747" on="0"/>
        <pt x="269" y="887" on="1"/>
        <pt x="39" y="862" on="1"/>
        <pt x="39" y="941" on="1"/>
        <pt x="269" y="923" on="1"/>
        <pt x="236" y="1210" on="1"/>
        <pt x="342" y="1210" on="1"/>
        <pt x="309" y="923" on="1"/>
        <pt x="536" y="941" on="1"/>
        <pt x="536" y="862" on="1"/>
        <pt x="309" y="887" on="1"/>
        <pt x="335" y="750" on="0"/>
        <pt x="335" y="593" on="1"/>
        <pt x="309" y="2" on="1"/>
      </contour>
    </TTGlyph>
    <TTGlyph name="daggerdbl" xMin="72" yMin="-24" xMax="569" yMax="1210">
      <contour>
        <pt x="302" y="299" on="1"/>
        <pt x="288" y="365" on="0"/>
        <pt x="288" y="593" on="1"/>
        <pt x="288" y="817" on="0"/>
        <pt x="302" y="887" on="1"/>
        <pt x="72" y="862" on="1"/>
        <pt x="72" y="941" on="1"/>
        <pt x="302" y="923" on="1"/>
        <pt x="269" y="1210" on="1"/>
        <pt x="375" y="1210" on="1"/>
        <pt x="342" y="923" on="1"/>
        <pt x="569" y="941" on="1"/>
        <pt x="569" y="862" on="1"/>
        <pt x="342" y="887" on="1"/>
        <pt x="356" y="794" on="0"/>
        <pt x="356" y="388" on="0"/>
        <pt x="342" y="299" on="1"/>
        <pt x="569" y="324" on="1"/>
        <pt x="569" y="245" on="1"/>
        <pt x="342" y="263" on="1"/>
        <pt x="375" y="-24" on="1"/>
        <pt x="269" y="-24" on="1"/>
        <pt x="302" y="263" on="1"/>
        <pt x="72" y="245" on="1"/>
        <pt x="72" y="324" on="1"/>
      </contour>
    </TTGlyph>
    <TTGlyph name="degree" xMin="90" yMin="768" xMax="704" yMax="1336">
      <contour>
        <pt x="593" y="1052" on="1"/>
        <pt x="593" y="1137" on="0"/>
        <pt x="489" y="1239" on="0"/>
        <pt x="397" y="1239" on="1"/>
        <pt x="309" y="1240" on="0"/>
        <pt x="203" y="1142" on="0"/>
        <pt x="201" y="1052" on="1"/>
        <pt x="201" y="967" on="0"/>
        <pt x="305" y="865" on="0"/>
        <pt x="397" y="865" on="1"/>
        <pt x="485" y="864" on="0"/>
        <pt x="591" y="962" on="0"/>
      </contour>
      <contour>
        <pt x="397" y="768" on="1"/>
        <pt x="275" y="768" on="0"/>
        <pt x="210" y="822" on="1"/>
        <pt x="90" y="920" on="0"/>
        <pt x="90" y="1052" on="1"/>
        <pt x="90" y="1185" on="0"/>
        <pt x="275" y="1336" on="0"/>
        <pt x="397" y="1336" on="1"/>
        <pt x="519" y="1336" on="0"/>
        <pt x="584" y="1282" on="1"/>
        <pt x="704" y="1184" on="0"/>
        <pt x="704" y="1052" on="1"/>
        <pt x="704" y="919" on="0"/>
        <pt x="519" y="768" on="0"/>
      </contour>
    </TTGlyph>
    <TTGlyph name="dieresis" xMin="131" yMin="940" xMax="473" yMax="1046">
      <contour>
        <pt x="473" y="1046" on="1"/>
        <pt x="473" y="940" on="1"/>
        <pt x="373" y="940" on="1"/>
        <pt x="373" y="1046" on="1"/>
      </contour>
      <contour>
        <pt x="231" y="1046" on="1"/>
        <pt x="231" y="940" on="1"/>
        <pt x="131" y="940" on="1"/>
        <pt x="131" y="1046" on="1"/>
      </contour>
    </TTGlyph>
    <TTGlyph name="divide" xMin="0" yMin="156" xMax="529" yMax="725">
      <contour>
        <pt x="529" y="413" on="1"/>
        <pt x="0" y="413" on="1"/>
        <pt x="0" y="475" on="1"/>
        <pt x="529" y="475" on="1"/>
      </contour>
      <contour>
        <pt x="324" y="276" on="1"/>
        <pt x="324" y="156" on="1"/>
        <pt x="208" y="156" on="1"/>
        <pt x="208" y="276" on="1"/>
      </contour>
      <contour>
        <pt x="324" y="725" on="1"/>
        <pt x="324" y="605" on="1"/>
        <pt x="208" y="605" on="1"/>
        <pt x="208" y="725" on="1"/>
      </contour>
    </TTGlyph>
    <TTGlyph name="dollar" xMin="215" yMin="-190" xMax="1121" yMax="1421">
      <contour>
        <pt x="701" y="-23" on="1"/>
        <pt x="701" y="-190" on="1"/>
        <pt x="641" y="-190" on="1"/>
        <pt x="641" y="-20" on="1"/>
        <pt x="464" y="-1" on="0"/>
        <pt x="303" y="112" on="1"/>
        <pt x="303" y="0" on="1"/>
        <pt x="224" y="0" on="1"/>
        <pt x="224" y="416" on="1"/>
        <pt x="303" y="416" on="1"/>
        <pt x="303" y="196" on="1"/>
        <pt x="463" y="78" on="0"/>
        <pt x="641" y="57" on="1"/>
        <pt x="641" y="594" on="1"/>
        <pt x="423" y="616" on="0"/>
        <pt x="329" y="679" on="1"/>
        <pt x="215" y="756" on="0"/>
        <pt x="215" y="1081" on="0"/>
        <pt x="452" y="1255" on="0"/>
        <pt x="624" y="1255" on="1"/>
        <pt x="641" y="1255" on="1"/>
        <pt x="641" y="1421" on="1"/>
        <pt x="701" y="1421" on="1"/>
        <pt x="701" y="1250" on="1"/>
        <pt x="834" y="1235" on="0"/>
        <pt x="971" y="1163" on="1"/>
        <pt x="971" y="1234" on="1"/>
        <pt x="1050" y="1234" on="1"/>
        <pt x="1050" y="899" on="1"/>
        <pt x="971" y="899" on="1"/>
        <pt x="971" y="1080" on="1"/>
        <pt x="844" y="1162" on="0"/>
        <pt x="701" y="1178" on="1"/>
        <pt x="701" y="663" on="1"/>
        <pt x="780" y="654" on="0"/>
        <pt x="900" y="625" on="0"/>
        <pt x="1010" y="573" on="0"/>
        <pt x="1080" y="500" on="0"/>
        <pt x="1121" y="389" on="0"/>
        <pt x="1121" y="317" on="1"/>
        <pt x="1120" y="194" on="0"/>
        <pt x="1030" y="97" on="1"/>
        <pt x="919" y="-23" on="0"/>
        <pt x="704" y="-23" on="1"/>
      </contour>
      <contour>
        <pt x="1032" y="452" on="0"/>
        <pt x="871" y="565" on="0"/>
        <pt x="701" y="587" on="1"/>
        <pt x="701" y="53" on="1"/>
        <pt x="709" y="52" on="0"/>
        <pt x="717" y="52" on="1"/>
        <pt x="764" y="52" on="1"/>
        <pt x="812" y="52" on="0"/>
        <pt x="922" y="103" on="0"/>
        <pt x="953" y="134" on="1"/>
        <pt x="1032" y="212" on="0"/>
      </contour>
      <contour>
        <pt x="637" y="1182" on="1"/>
        <pt x="483" y="1182" on="0"/>
        <pt x="306" y="1045" on="0"/>
        <pt x="306" y="909" on="1"/>
        <pt x="306" y="782" on="0"/>
        <pt x="399" y="728" on="1"/>
        <pt x="468" y="688" on="0"/>
        <pt x="641" y="670" on="1"/>
        <pt x="641" y="1182" on="1"/>
      </contour>
    </TTGlyph>
    <TTGlyph name="dotaccent" xMin="141" yMin="1064" xMax="257" yMax="1184">
      <contour>
        <pt x="257" y="1184" on="1"/>
        <pt x="257" y="1064" on="1"/>
        <pt x="141" y="1064" on="1"/>
        <pt x="141" y="1184" on="1"/>
      </contour>
    </TTGlyph>
    <TTGlyph name="dotaccentcmb" xMin="141" yMin="1064" xMax="257" yMax="1184">
      <contour>
        <pt x="257" y="1184" on="1"/>
        <pt x="257" y="1064" on="1"/>
        <pt x="141" y="1064" on="1"/>
        <pt x="141" y="1184" on="1"/>
      </contour>
    </TTGlyph>
    <TTGlyph name="dotaccentcmb.cap" xMin="133" yMin="1001" xMax="250" yMax="1121">
      <contour>
        <pt x="250" y="1121" on="1"/>
        <pt x="250" y="1001" on="1"/>
        <pt x="133" y="1001" on="1"/>
        <pt x="133" y="1121" on="1"/>
      </contour>
    </TTGlyph>
    <TTGlyph name="dotlessi" xMin="106" yMin="0" xMax="489" yMax="836">
      <contour>
        <pt x="106" y="776" on="1"/>
        <pt x="106" y="836" on="1"/>
        <pt x="335" y="836" on="1"/>
        <pt x="335" y="60" on="1"/>
        <pt x="489" y="60" on="1"/>
        <pt x="489" y="0" on="1"/>
        <pt x="106" y="0" on="1"/>
        <pt x="106" y="60" on="1"/>
        <pt x="256" y="60" on="1"/>
        <pt x="256" y="776" on="1"/>
      </contour>
    </TTGlyph>
    <TTGlyph name="dotlessj" xMin="-80" yMin="-271" xMax="241" yMax="860">
      <contour>
        <pt x="74" y="-199" on="1"/>
        <pt x="105" y="-199" on="0"/>
        <pt x="146" y="-168" on="0"/>
        <pt x="165" y="-107" on="0"/>
        <pt x="172" y="-44" on="0"/>
        <pt x="172" y="0" on="1"/>
        <pt x="172" y="779" on="1"/>
        <pt x="25" y="779" on="1"/>
        <pt x="25" y="860" on="1"/>
        <pt x="241" y="860" on="1"/>
        <pt x="241" y="-44" on="1"/>
        <pt x="241" y="-142" on="0"/>
        <pt x="216" y="-183" on="1"/>
        <pt x="164" y="-271" on="0"/>
        <pt x="16" y="-271" on="1"/>
        <pt x="-80" y="-271" on="1"/>
        <pt x="-80" y="-199" on="1"/>
      </contour>
    </TTGlyph>
    <TTGlyph name="e" xMin="57" yMin="-14" xMax="890" yMax="854">
      <contour>
        <pt x="867" y="149" on="1"/>
        <pt x="695" y="-14" on="0"/>
        <pt x="307" y="-14" on="0"/>
        <pt x="57" y="233" on="0"/>
        <pt x="57" y="596" on="0"/>
        <pt x="294" y="854" on="0"/>
        <pt x="681" y="854" on="0"/>
        <pt x="890" y="592" on="0"/>
        <pt x="890" y="400" on="1"/>
        <pt x="139" y="400" on="1"/>
        <pt x="156" y="149" on="0"/>
        <pt x="362" y="74" on="1"/>
        <pt x="422" y="52" on="0"/>
        <pt x="488" y="52" on="1"/>
        <pt x="690" y="52" on="0"/>
        <pt x="834" y="204" on="1"/>
      </contour>
      <contour>
        <pt x="812" y="466" on="1"/>
        <pt x="791" y="680" on="0"/>
        <pt x="629" y="760" on="1"/>
        <pt x="574" y="787" on="0"/>
        <pt x="496" y="787" on="1"/>
        <pt x="340" y="787" on="0"/>
        <pt x="148" y="595" on="0"/>
        <pt x="141" y="466" on="1"/>
      </contour>
    </TTGlyph>
    <TTGlyph name="eacute" xMin="57" yMin="-14" xMax="890" yMax="1225">
      <component glyphName="acute" x="333" y="-9" flags="0x1004"/>
      <component glyphName="e" x="0" y="0" flags="0x1204"/>
    </TTGlyph>
    <TTGlyph name="ecircumflex" xMin="57" yMin="-14" xMax="890" yMax="1249">
      <component glyphName="circumflex" x="178" y="54" flags="0x1004"/>
      <component glyphName="e" x="0" y="0" flags="0x1204"/>
    </TTGlyph>
    <TTGlyph name="edieresis" xMin="57" yMin="-14" xMax="890" yMax="1082">
      <component glyphName="dieresis" x="172" y="36" flags="0x1004"/>
      <component glyphName="e" x="0" y="0" flags="0x1204"/>
    </TTGlyph>
    <TTGlyph name="egrave" xMin="57" yMin="-14" xMax="890" yMax="1225">
      <component glyphName="grave" x="197" y="-9" flags="0x1004"/>
      <component glyphName="e" x="0" y="0" flags="0x1204"/>
    </TTGlyph>
    <TTGlyph name="eight" xMin="111" yMin="-24" xMax="934" yMax="1255">
      <contour>
        <pt x="111" y="328" on="1"/>
        <pt x="112" y="443" on="0"/>
        <pt x="261" y="620" on="0"/>
        <pt x="380" y="644" on="1"/>
        <pt x="152" y="714" on="0"/>
        <pt x="152" y="946" on="1"/>
        <pt x="152" y="1067" on="0"/>
        <pt x="351" y="1255" on="0"/>
        <pt x="523" y="1255" on="1"/>
        <pt x="685" y="1255" on="0"/>
        <pt x="894" y="1075" on="0"/>
        <pt x="894" y="926" on="1"/>
        <pt x="894" y="830" on="0"/>
        <pt x="765" y="672" on="0"/>
        <pt x="666" y="644" on="1"/>
        <pt x="789" y="620" on="0"/>
        <pt x="934" y="446" on="0"/>
        <pt x="934" y="304" on="1"/>
        <pt x="934" y="154" on="0"/>
        <pt x="691" y="-24" on="0"/>
        <pt x="355" y="-24" on="0"/>
        <pt x="111" y="153" on="0"/>
      </contour>
      <contour>
        <pt x="523" y="596" on="1"/>
        <pt x="370" y="596" on="0"/>
        <pt x="195" y="432" on="0"/>
        <pt x="195" y="342" on="1"/>
        <pt x="195" y="193" on="0"/>
        <pt x="390" y="49" on="0"/>
        <pt x="655" y="49" on="0"/>
        <pt x="850" y="193" on="0"/>
        <pt x="850" y="322" on="1"/>
        <pt x="850" y="499" on="0"/>
        <pt x="665" y="572" on="1"/>
        <pt x="604" y="596" on="0"/>
      </contour>
      <contour>
        <pt x="523" y="1182" on="1"/>
        <pt x="318" y="1182" on="0"/>
        <pt x="255" y="1028" on="1"/>
        <pt x="237" y="984" on="0"/>
        <pt x="237" y="937" on="1"/>
        <pt x="237" y="833" on="0"/>
        <pt x="291" y="779" on="1"/>
        <pt x="389" y="679" on="0"/>
        <pt x="523" y="679" on="1"/>
        <pt x="726" y="680" on="0"/>
        <pt x="790" y="844" on="1"/>
        <pt x="808" y="890" on="0"/>
        <pt x="808" y="937" on="1"/>
        <pt x="808" y="1038" on="0"/>
        <pt x="755" y="1089" on="1"/>
        <pt x="660" y="1182" on="0"/>
      </contour>
    </TTGlyph>
    <TTGlyph name="ellipsis" xMin="147" yMin="0" xMax="784" yMax="120">
      <contour>
        <pt x="263" y="120" on="1"/>
        <pt x="263" y="0" on="1"/>
        <pt x="147" y="0" on="1"/>
        <pt x="147" y="120" on="1"/>
      </contour>
      <contour>
        <pt x="524" y="120" on="1"/>
        <pt x="524" y="0" on="1"/>
        <pt x="407" y="0" on="1"/>
        <pt x="407" y="120" on="1"/>
      </contour>
      <contour>
        <pt x="784" y="120" on="1"/>
        <pt x="784" y="0" on="1"/>
        <pt x="668" y="0" on="1"/>
        <pt x="668" y="120" on="1"/>
      </contour>
    </TTGlyph>
    <TTGlyph name="emdash" xMin="143" yMin="0" xMax="1220" yMax="60">
      <contour>
        <pt x="1220" y="60" on="1"/>
        <pt x="1220" y="0" on="1"/>
        <pt x="143" y="0" on="1"/>
        <pt x="143" y="60" on="1"/>
      </contour>
    </TTGlyph>
    <TTGlyph name="endash" xMin="143" yMin="0" xMax="859" yMax="60">
      <contour>
        <pt x="859" y="60" on="1"/>
        <pt x="859" y="0" on="1"/>
        <pt x="143" y="0" on="1"/>
        <pt x="143" y="60" on="1"/>
      </contour>
    </TTGlyph>
    <TTGlyph name="equal" xMin="143" yMin="356" xMax="652" yMax="696">
      <contour>
        <pt x="652" y="634" on="1"/>
        <pt x="143" y="634" on="1"/>
        <pt x="143" y="696" on="1"/>
        <pt x="652" y="696" on="1"/>
      </contour>
      <contour>
        <pt x="652" y="356" on="1"/>
        <pt x="143" y="356" on="1"/>
        <pt x="143" y="419" on="1"/>
        <pt x="652" y="419" on="1"/>
      </contour>
    </TTGlyph>
    <TTGlyph name="eth" xMin="53" yMin="-23" xMax="839" yMax="1361">
      <contour>
        <pt x="451" y="49" on="1"/>
        <pt x="594" y="49" on="0"/>
        <pt x="762" y="216" on="0"/>
        <pt x="762" y="356" on="1"/>
        <pt x="762" y="492" on="0"/>
        <pt x="575" y="658" on="0"/>
        <pt x="447" y="658" on="1"/>
        <pt x="303" y="658" on="0"/>
        <pt x="135" y="487" on="0"/>
        <pt x="135" y="330" on="1"/>
        <pt x="135" y="229" on="0"/>
        <pt x="302" y="49" on="0"/>
      </contour>
      <contour>
        <pt x="465" y="1143" on="1"/>
        <pt x="794" y="1230" on="1"/>
        <pt x="818" y="1175" on="1"/>
        <pt x="493" y="1091" on="1"/>
        <pt x="705" y="697" on="1"/>
        <pt x="839" y="472" on="0"/>
        <pt x="839" y="367" on="1"/>
        <pt x="839" y="185" on="0"/>
        <pt x="603" y="-23" on="0"/>
        <pt x="478" y="-23" on="1"/>
        <pt x="265" y="-23" on="0"/>
        <pt x="53" y="209" on="0"/>
        <pt x="53" y="518" on="0"/>
        <pt x="280" y="726" on="0"/>
        <pt x="534" y="726" on="0"/>
        <pt x="632" y="678" on="1"/>
        <pt x="415" y="1071" on="1"/>
        <pt x="94" y="988" on="1"/>
        <pt x="75" y="1040" on="1"/>
        <pt x="386" y="1122" on="1"/>
        <pt x="280" y="1314" on="1"/>
        <pt x="347" y="1361" on="1"/>
      </contour>
    </TTGlyph>
    <TTGlyph name="exclam" xMin="164" yMin="0" xMax="269" yMax="1171">
      <contour>
        <pt x="200" y="344" on="1"/>
        <pt x="171" y="809" on="1"/>
        <pt x="171" y="1171" on="1"/>
        <pt x="260" y="1171" on="1"/>
        <pt x="260" y="809" on="1"/>
        <pt x="231" y="344" on="1"/>
      </contour>
      <contour>
        <pt x="164" y="106" on="1"/>
        <pt x="269" y="106" on="1"/>
        <pt x="267" y="0" on="1"/>
        <pt x="164" y="0" on="1"/>
      </contour>
    </TTGlyph>
    <TTGlyph name="exclamdown" xMin="164" yMin="0" xMax="269" yMax="1171">
      <contour>
        <pt x="164" y="1171" on="1"/>
        <pt x="267" y="1171" on="1"/>
        <pt x="269" y="1066" on="1"/>
        <pt x="164" y="1066" on="1"/>
      </contour>
      <contour>
        <pt x="231" y="827" on="1"/>
        <pt x="260" y="362" on="1"/>
        <pt x="260" y="0" on="1"/>
        <pt x="171" y="0" on="1"/>
        <pt x="171" y="362" on="1"/>
        <pt x="200" y="827" on="1"/>
      </contour>
    </TTGlyph>
    <TTGlyph name="f" xMin="106" yMin="0" xMax="584" yMax="1234">
      <contour>
        <pt x="261" y="1064" on="1"/>
        <pt x="261" y="1143" on="0"/>
        <pt x="356" y="1234" on="0"/>
        <pt x="444" y="1234" on="1"/>
        <pt x="502" y="1234" on="0"/>
        <pt x="582" y="1134" on="0"/>
        <pt x="584" y="1066" on="1"/>
        <pt x="509" y="1066" on="1"/>
        <pt x="509" y="1172" on="0"/>
        <pt x="428" y="1172" on="1"/>
        <pt x="390" y="1172" on="0"/>
        <pt x="340" y="1109" on="0"/>
        <pt x="340" y="1066" on="1"/>
        <pt x="340" y="836" on="1"/>
        <pt x="543" y="836" on="1"/>
        <pt x="543" y="779" on="1"/>
        <pt x="340" y="779" on="1"/>
        <pt x="340" y="60" on="1"/>
        <pt x="531" y="60" on="1"/>
        <pt x="531" y="0" on="1"/>
        <pt x="106" y="0" on="1"/>
        <pt x="106" y="60" on="1"/>
        <pt x="261" y="60" on="1"/>
        <pt x="261" y="779" on="1"/>
        <pt x="106" y="779" on="1"/>
        <pt x="106" y="836" on="1"/>
        <pt x="261" y="836" on="1"/>
      </contour>
    </TTGlyph>
    <TTGlyph name="fi" xMin="104" yMin="0" xMax="1054" yMax="1248">
      <contour>
        <pt x="259" y="970" on="1"/>
        <pt x="259" y="1057" on="0"/>
        <pt x="379" y="1187" on="0"/>
        <pt x="555" y="1248" on="0"/>
        <pt x="654" y="1248" on="1"/>
        <pt x="816" y="1248" on="0"/>
        <pt x="894" y="1160" on="1"/>
        <pt x="920" y="1132" on="0"/>
        <pt x="921" y="1098" on="1"/>
        <pt x="921" y="1026" on="0"/>
        <pt x="856" y="1026" on="1"/>
        <pt x="792" y="1026" on="0"/>
        <pt x="792" y="1088" on="1"/>
        <pt x="792" y="1114" on="0"/>
        <pt x="820" y="1130" on="1"/>
        <pt x="754" y="1186" on="0"/>
        <pt x="637" y="1186" on="1"/>
        <pt x="564" y="1186" on="0"/>
        <pt x="430" y="1138" on="0"/>
        <pt x="338" y="1037" on="0"/>
        <pt x="338" y="972" on="1"/>
        <pt x="338" y="836" on="1"/>
        <pt x="901" y="836" on="1"/>
        <pt x="901" y="60" on="1"/>
        <pt x="1054" y="60" on="1"/>
        <pt x="1054" y="0" on="1"/>
        <pt x="672" y="0" on="1"/>
        <pt x="672" y="60" on="1"/>
        <pt x="822" y="60" on="1"/>
        <pt x="822" y="776" on="1"/>
        <pt x="338" y="776" on="1"/>
        <pt x="338" y="60" on="1"/>
        <pt x="529" y="60" on="1"/>
        <pt x="529" y="0" on="1"/>
        <pt x="104" y="0" on="1"/>
        <pt x="104" y="60" on="1"/>
        <pt x="259" y="60" on="1"/>
        <pt x="259" y="776" on="1"/>
        <pt x="104" y="776" on="1"/>
        <pt x="104" y="836" on="1"/>
        <pt x="259" y="836" on="1"/>
      </contour>
    </TTGlyph>
    <TTGlyph name="five" xMin="76" yMin="-18" xMax="956" yMax="1234">
      <contour>
        <pt x="123" y="217" on="1"/>
        <pt x="230" y="53" on="0"/>
        <pt x="763" y="52" on="0"/>
        <pt x="844" y="234" on="1"/>
        <pt x="872" y="296" on="0"/>
        <pt x="872" y="526" on="0"/>
        <pt x="711" y="727" on="0"/>
        <pt x="571" y="727" on="1"/>
        <pt x="346" y="727" on="0"/>
        <pt x="217" y="660" on="1"/>
        <pt x="165" y="685" on="1"/>
        <pt x="165" y="1234" on="1"/>
        <pt x="813" y="1234" on="1"/>
        <pt x="812" y="1164" on="1"/>
        <pt x="244" y="1164" on="1"/>
        <pt x="235" y="748" on="1"/>
        <pt x="344" y="796" on="0"/>
        <pt x="652" y="796" on="0"/>
        <pt x="726" y="764" on="1"/>
        <pt x="956" y="665" on="0"/>
        <pt x="956" y="375" on="1"/>
        <pt x="956" y="188" on="0"/>
        <pt x="695" y="-18" on="0"/>
        <pt x="497" y="-18" on="1"/>
        <pt x="206" y="-18" on="0"/>
        <pt x="76" y="163" on="1"/>
      </contour>
    </TTGlyph>
    <TTGlyph name="fl" xMin="104" yMin="0" xMax="1125" yMax="1253">
      <contour>
        <pt x="259" y="962" on="1"/>
        <pt x="259" y="1035" on="0"/>
        <pt x="328" y="1149" on="0"/>
        <pt x="445" y="1218" on="0"/>
        <pt x="589" y="1253" on="0"/>
        <pt x="670" y="1253" on="1"/>
        <pt x="845" y="1253" on="0"/>
        <pt x="918" y="1180" on="1"/>
        <pt x="942" y="1156" on="0"/>
        <pt x="942" y="1123" on="1"/>
        <pt x="942" y="60" on="1"/>
        <pt x="1125" y="60" on="1"/>
        <pt x="1125" y="0" on="1"/>
        <pt x="676" y="0" on="1"/>
        <pt x="676" y="60" on="1"/>
        <pt x="862" y="60" on="1"/>
        <pt x="862" y="1123" on="1"/>
        <pt x="862" y="1190" on="0"/>
        <pt x="610" y="1190" on="1"/>
        <pt x="527" y="1190" on="0"/>
        <pt x="338" y="1074" on="0"/>
        <pt x="338" y="965" on="1"/>
        <pt x="338" y="836" on="1"/>
        <pt x="541" y="836" on="1"/>
        <pt x="541" y="779" on="1"/>
        <pt x="338" y="779" on="1"/>
        <pt x="338" y="60" on="1"/>
        <pt x="529" y="60" on="1"/>
        <pt x="529" y="0" on="1"/>
        <pt x="104" y="0" on="1"/>
        <pt x="104" y="60" on="1"/>
        <pt x="259" y="60" on="1"/>
        <pt x="259" y="779" on="1"/>
        <pt x="104" y="779" on="1"/>
        <pt x="104" y="836" on="1"/>
        <pt x="259" y="836" on="1"/>
      </contour>
    </TTGlyph>
    <TTGlyph name="florin" xMin="-18" yMin="-86" xMax="724" yMax="1244">
      <contour>
        <pt x="710" y="1165" on="1"/>
        <pt x="658" y="1183" on="0"/>
        <pt x="617" y="1183" on="1"/>
        <pt x="524" y="1183" on="0"/>
        <pt x="501" y="1080" on="1"/>
        <pt x="434" y="836" on="1"/>
        <pt x="636" y="836" on="1"/>
        <pt x="621" y="779" on="1"/>
        <pt x="418" y="779" on="1"/>
        <pt x="220" y="60" on="1"/>
        <pt x="182" y="-74" on="0"/>
        <pt x="52" y="-84" on="1"/>
        <pt x="16" y="-86" on="0"/>
        <pt x="-18" y="-86" on="1"/>
        <pt x="-2" y="-24" on="1"/>
        <pt x="69" y="-24" on="0"/>
        <pt x="128" y="12" on="0"/>
        <pt x="141" y="60" on="1"/>
        <pt x="339" y="779" on="1"/>
        <pt x="184" y="779" on="1"/>
        <pt x="200" y="836" on="1"/>
        <pt x="354" y="836" on="1"/>
        <pt x="422" y="1078" on="1"/>
        <pt x="464" y="1244" on="0"/>
        <pt x="610" y="1244" on="1"/>
        <pt x="668" y="1244" on="0"/>
        <pt x="724" y="1219" on="1"/>
      </contour>
    </TTGlyph>
    <TTGlyph name="four" xMin="4" yMin="0" xMax="860" yMax="1234">
      <contour>
        <pt x="4" y="442" on="1"/>
        <pt x="489" y="1234" on="1"/>
        <pt x="603" y="1234" on="1"/>
        <pt x="603" y="442" on="1"/>
        <pt x="860" y="442" on="1"/>
        <pt x="860" y="379" on="1"/>
        <pt x="603" y="379" on="1"/>
        <pt x="603" y="62" on="1"/>
        <pt x="764" y="62" on="1"/>
        <pt x="764" y="0" on="1"/>
        <pt x="361" y="0" on="1"/>
        <pt x="361" y="62" on="1"/>
        <pt x="522" y="62" on="1"/>
        <pt x="522" y="379" on="1"/>
        <pt x="15" y="379" on="1"/>
      </contour>
      <contour>
        <pt x="522" y="442" on="1"/>
        <pt x="522" y="1156" on="1"/>
        <pt x="97" y="442" on="1"/>
      </contour>
    </TTGlyph>
    <TTGlyph name="foursuperior" xMin="74" yMin="0" xMax="682" yMax="866">
      <contour>
        <pt x="74" y="316" on="1"/>
        <pt x="412" y="866" on="1"/>
        <pt x="504" y="866" on="1"/>
        <pt x="504" y="323" on="1"/>
        <pt x="682" y="323" on="1"/>
        <pt x="682" y="260" on="1"/>
        <pt x="504" y="260" on="1"/>
        <pt x="504" y="61" on="1"/>
        <pt x="616" y="61" on="1"/>
        <pt x="616" y="0" on="1"/>
        <pt x="319" y="0" on="1"/>
        <pt x="319" y="61" on="1"/>
        <pt x="431" y="61" on="1"/>
        <pt x="431" y="260" on="1"/>
        <pt x="83" y="260" on="1"/>
      </contour>
      <contour>
        <pt x="431" y="323" on="1"/>
        <pt x="431" y="768" on="1"/>
        <pt x="403" y="721" on="0"/>
        <pt x="216" y="412" on="0"/>
        <pt x="164" y="323" on="1"/>
      </contour>
    </TTGlyph>
    <TTGlyph name="fraction" xMin="43" yMin="-23" xMax="486" yMax="1255">
      <contour>
        <pt x="415" y="1255" on="1"/>
        <pt x="486" y="1255" on="1"/>
        <pt x="118" y="-23" on="1"/>
        <pt x="43" y="-23" on="1"/>
      </contour>
    </TTGlyph>
    <TTGlyph name="g" xMin="57" yMin="-317" xMax="1074" yMax="854">
      <contour>
        <pt x="831" y="120" on="1"/>
        <pt x="702" y="-14" on="0"/>
        <pt x="286" y="-14" on="0"/>
        <pt x="57" y="244" on="0"/>
        <pt x="57" y="584" on="0"/>
        <pt x="270" y="854" on="0"/>
        <pt x="646" y="854" on="0"/>
        <pt x="780" y="758" on="1"/>
        <pt x="814" y="734" on="0"/>
        <pt x="831" y="715" on="1"/>
        <pt x="844" y="840" on="1"/>
        <pt x="1074" y="840" on="1"/>
        <pt x="1074" y="780" on="1"/>
        <pt x="910" y="780" on="1"/>
        <pt x="910" y="29" on="1"/>
        <pt x="910" y="-204" on="0"/>
        <pt x="717" y="-272" on="1"/>
        <pt x="606" y="-311" on="0"/>
        <pt x="349" y="-317" on="0"/>
        <pt x="261" y="-317" on="1"/>
        <pt x="261" y="-248" on="1"/>
        <pt x="410" y="-248" on="1"/>
        <pt x="659" y="-248" on="0"/>
        <pt x="831" y="-116" on="0"/>
        <pt x="831" y="12" on="1"/>
      </contour>
      <contour>
        <pt x="831" y="647" on="1"/>
        <pt x="654" y="787" on="0"/>
        <pt x="312" y="787" on="0"/>
        <pt x="136" y="565" on="0"/>
        <pt x="137" y="452" on="1"/>
        <pt x="139" y="273" on="0"/>
        <pt x="320" y="53" on="0"/>
        <pt x="482" y="53" on="1"/>
        <pt x="634" y="53" on="0"/>
        <pt x="782" y="146" on="0"/>
        <pt x="831" y="190" on="1"/>
      </contour>
    </TTGlyph>
    <TTGlyph name="germandbls" xMin="61" yMin="0" xMax="1048" yMax="1255">
      <contour>
        <pt x="694" y="676" on="1"/>
        <pt x="844" y="670" on="0"/>
        <pt x="1048" y="482" on="0"/>
        <pt x="1048" y="337" on="1"/>
        <pt x="1048" y="100" on="0"/>
        <pt x="781" y="26" on="1"/>
        <pt x="689" y="0" on="0"/>
        <pt x="562" y="0" on="1"/>
        <pt x="562" y="62" on="1"/>
        <pt x="969" y="62" on="0"/>
        <pt x="969" y="337" on="1"/>
        <pt x="969" y="544" on="0"/>
        <pt x="756" y="616" on="1"/>
        <pt x="680" y="642" on="0"/>
        <pt x="570" y="641" on="1"/>
        <pt x="570" y="685" on="1"/>
        <pt x="695" y="691" on="0"/>
        <pt x="834" y="851" on="0"/>
        <pt x="834" y="950" on="1"/>
        <pt x="834" y="1060" on="0"/>
        <pt x="680" y="1180" on="0"/>
        <pt x="554" y="1180" on="1"/>
        <pt x="407" y="1180" on="0"/>
        <pt x="295" y="1026" on="0"/>
        <pt x="295" y="856" on="1"/>
        <pt x="295" y="62" on="1"/>
        <pt x="411" y="62" on="1"/>
        <pt x="411" y="0" on="1"/>
        <pt x="61" y="0" on="1"/>
        <pt x="61" y="62" on="1"/>
        <pt x="214" y="62" on="1"/>
        <pt x="214" y="851" on="1"/>
        <pt x="214" y="1255" on="0"/>
        <pt x="563" y="1255" on="1"/>
        <pt x="664" y="1255" on="0"/>
        <pt x="822" y="1178" on="0"/>
        <pt x="913" y="1032" on="0"/>
        <pt x="912" y="936" on="1"/>
        <pt x="912" y="838" on="0"/>
        <pt x="793" y="696" on="0"/>
      </contour>
    </TTGlyph>
    <TTGlyph name="grave" xMin="104" yMin="985" xMax="292" yMax="1234">
      <contour>
        <pt x="261" y="985" on="1"/>
        <pt x="104" y="1234" on="1"/>
        <pt x="231" y="1234" on="1"/>
        <pt x="292" y="985" on="1"/>
      </contour>
    </TTGlyph>
    <TTGlyph name="greater" xMin="86" yMin="-23" xMax="933" yMax="1255">
      <contour>
        <pt x="86" y="-23" on="1"/>
        <pt x="86" y="68" on="1"/>
        <pt x="819" y="613" on="1"/>
        <pt x="86" y="1162" on="1"/>
        <pt x="86" y="1255" on="1"/>
        <pt x="933" y="613" on="1"/>
      </contour>
    </TTGlyph>
    <TTGlyph name="greaterequal" xMin="133" yMin="0" xMax="821" yMax="952">
      <contour>
        <pt x="133" y="194" on="1"/>
        <pt x="133" y="262" on="1"/>
        <pt x="715" y="571" on="1"/>
        <pt x="133" y="882" on="1"/>
        <pt x="133" y="952" on="1"/>
        <pt x="821" y="590" on="1"/>
        <pt x="821" y="553" on="1"/>
      </contour>
      <contour>
        <pt x="821" y="0" on="1"/>
        <pt x="133" y="0" on="1"/>
        <pt x="133" y="58" on="1"/>
        <pt x="821" y="58" on="1"/>
      </contour>
    </TTGlyph>
    <TTGlyph name="guillemotleft" xMin="76" yMin="281" xMax="664" yMax="1043">
      <contour>
        <pt x="616" y="1043" on="1"/>
        <pt x="664" y="1043" on="1"/>
        <pt x="451" y="664" on="1"/>
        <pt x="664" y="281" on="1"/>
        <pt x="616" y="281" on="1"/>
        <pt x="343" y="664" on="1"/>
      </contour>
      <contour>
        <pt x="348" y="1043" on="1"/>
        <pt x="396" y="1043" on="1"/>
        <pt x="184" y="664" on="1"/>
        <pt x="396" y="281" on="1"/>
        <pt x="348" y="281" on="1"/>
        <pt x="76" y="664" on="1"/>
      </contour>
    </TTGlyph>
    <TTGlyph name="guillemotright" xMin="117" yMin="281" xMax="705" yMax="1043">
      <contour>
        <pt x="437" y="664" on="1"/>
        <pt x="165" y="281" on="1"/>
        <pt x="117" y="281" on="1"/>
        <pt x="329" y="664" on="1"/>
        <pt x="117" y="1043" on="1"/>
        <pt x="165" y="1043" on="1"/>
      </contour>
      <contour>
        <pt x="705" y="664" on="1"/>
        <pt x="432" y="281" on="1"/>
        <pt x="384" y="281" on="1"/>
        <pt x="597" y="664" on="1"/>
        <pt x="384" y="1043" on="1"/>
        <pt x="432" y="1043" on="1"/>
      </contour>
    </TTGlyph>
    <TTGlyph name="guilsinglleft" xMin="76" yMin="281" xMax="396" yMax="1043">
      <contour>
        <pt x="348" y="1043" on="1"/>
        <pt x="396" y="1043" on="1"/>
        <pt x="184" y="664" on="1"/>
        <pt x="396" y="281" on="1"/>
        <pt x="348" y="281" on="1"/>
        <pt x="76" y="664" on="1"/>
      </contour>
    </TTGlyph>
    <TTGlyph name="guilsinglright" xMin="117" yMin="281" xMax="437" yMax="1043">
      <contour>
        <pt x="437" y="664" on="1"/>
        <pt x="165" y="281" on="1"/>
        <pt x="117" y="281" on="1"/>
        <pt x="329" y="664" on="1"/>
        <pt x="117" y="1043" on="1"/>
        <pt x="165" y="1043" on="1"/>
      </contour>
    </TTGlyph>
    <TTGlyph name="h" xMin="86" yMin="0" xMax="1135" yMax="1234">
      <contour>
        <pt x="86" y="1176" on="1"/>
        <pt x="86" y="1234" on="1"/>
        <pt x="338" y="1234" on="1"/>
        <pt x="338" y="736" on="1"/>
        <pt x="506" y="829" on="0"/>
        <pt x="643" y="854" on="0"/>
        <pt x="699" y="854" on="1"/>
        <pt x="833" y="854" on="0"/>
        <pt x="960" y="713" on="0"/>
        <pt x="960" y="617" on="1"/>
        <pt x="960" y="60" on="1"/>
        <pt x="1135" y="60" on="1"/>
        <pt x="1135" y="0" on="1"/>
        <pt x="723" y="0" on="1"/>
        <pt x="723" y="60" on="1"/>
        <pt x="881" y="60" on="1"/>
        <pt x="881" y="601" on="1"/>
        <pt x="881" y="787" on="0"/>
        <pt x="687" y="787" on="1"/>
        <pt x="561" y="787" on="0"/>
        <pt x="419" y="709" on="1"/>
        <pt x="379" y="687" on="0"/>
        <pt x="338" y="664" on="1"/>
        <pt x="338" y="60" on="1"/>
        <pt x="530" y="60" on="1"/>
        <pt x="530" y="0" on="1"/>
        <pt x="97" y="0" on="1"/>
        <pt x="97" y="60" on="1"/>
        <pt x="259" y="60" on="1"/>
        <pt x="259" y="1176" on="1"/>
      </contour>
    </TTGlyph>
    <TTGlyph name="hbar" xMin="92" yMin="0" xMax="1142" yMax="1234">
      <contour>
        <pt x="93" y="1176" on="1"/>
        <pt x="93" y="1234" on="1"/>
        <pt x="345" y="1234" on="1"/>
        <pt x="345" y="1012" on="1"/>
        <pt x="577" y="1012" on="1"/>
        <pt x="577" y="949" on="1"/>
        <pt x="345" y="949" on="1"/>
        <pt x="345" y="736" on="1"/>
        <pt x="513" y="829" on="0"/>
        <pt x="650" y="854" on="0"/>
        <pt x="706" y="854" on="1"/>
        <pt x="840" y="854" on="0"/>
        <pt x="967" y="713" on="0"/>
        <pt x="967" y="617" on="1"/>
        <pt x="967" y="60" on="1"/>
        <pt x="1142" y="60" on="1"/>
        <pt x="1142" y="0" on="1"/>
        <pt x="730" y="0" on="1"/>
        <pt x="730" y="60" on="1"/>
        <pt x="888" y="60" on="1"/>
        <pt x="888" y="601" on="1"/>
        <pt x="888" y="787" on="0"/>
        <pt x="694" y="787" on="1"/>
        <pt x="568" y="787" on="0"/>
        <pt x="426" y="709" on="1"/>
        <pt x="386" y="687" on="0"/>
        <pt x="345" y="664" on="1"/>
        <pt x="345" y="60" on="1"/>
        <pt x="537" y="60" on="1"/>
        <pt x="537" y="0" on="1"/>
        <pt x="104" y="0" on="1"/>
        <pt x="104" y="60" on="1"/>
        <pt x="266" y="60" on="1"/>
        <pt x="266" y="949" on="1"/>
        <pt x="92" y="949" on="1"/>
        <pt x="92" y="1012" on="1"/>
        <pt x="266" y="1012" on="1"/>
        <pt x="266" y="1176" on="1"/>
      </contour>
    </TTGlyph>
    <TTGlyph name="hungarumlaut" xMin="125" yMin="985" xMax="520" yMax="1234">
      <contour>
        <pt x="335" y="985" on="1"/>
        <pt x="394" y="1234" on="1"/>
        <pt x="520" y="1234" on="1"/>
        <pt x="366" y="985" on="1"/>
      </contour>
      <contour>
        <pt x="125" y="985" on="1"/>
        <pt x="184" y="1234" on="1"/>
        <pt x="310" y="1234" on="1"/>
        <pt x="156" y="985" on="1"/>
      </contour>
    </TTGlyph>
    <TTGlyph name="hyphen" xMin="131" yMin="413" xMax="661" yMax="475">
      <contour>
        <pt x="661" y="413" on="1"/>
        <pt x="131" y="413" on="1"/>
        <pt x="131" y="475" on="1"/>
        <pt x="661" y="475" on="1"/>
      </contour>
    </TTGlyph>
    <TTGlyph name="i" xMin="115" yMin="0" xMax="498" yMax="1205">
      <contour>
        <pt x="300" y="1092" on="1"/>
        <pt x="274" y="1092" on="0"/>
        <pt x="239" y="1124" on="0"/>
        <pt x="239" y="1148" on="1"/>
        <pt x="239" y="1205" on="0"/>
        <pt x="301" y="1205" on="1"/>
        <pt x="329" y="1205" on="0"/>
        <pt x="364" y="1174" on="0"/>
        <pt x="364" y="1124" on="0"/>
        <pt x="328" y="1092" on="0"/>
      </contour>
      <contour>
        <pt x="115" y="776" on="1"/>
        <pt x="115" y="836" on="1"/>
        <pt x="344" y="836" on="1"/>
        <pt x="344" y="60" on="1"/>
        <pt x="498" y="60" on="1"/>
        <pt x="498" y="0" on="1"/>
        <pt x="115" y="0" on="1"/>
        <pt x="115" y="60" on="1"/>
        <pt x="265" y="60" on="1"/>
        <pt x="265" y="776" on="1"/>
      </contour>
    </TTGlyph>
    <TTGlyph name="iacute" xMin="106" yMin="0" xMax="489" yMax="1225">
      <component glyphName="acute" x="157" y="-9" flags="0x1004"/>
      <component glyphName="dotlessi" x="0" y="0" flags="0x1204"/>
    </TTGlyph>
    <TTGlyph name="icircumflex" xMin="88" yMin="0" xMax="489" yMax="1249">
      <component glyphName="circumflex" x="-18" y="54" flags="0x1004"/>
      <component glyphName="dotlessi" x="0" y="0" flags="0x1204"/>
    </TTGlyph>
    <TTGlyph name="idieresis" xMin="97" yMin="0" xMax="489" yMax="1082">
      <component glyphName="dieresis" x="-34" y="36" flags="0x1004"/>
      <component glyphName="dotlessi" x="0" y="0" flags="0x1204"/>
    </TTGlyph>
    <TTGlyph name="igrave" xMin="106" yMin="0" xMax="489" yMax="1225">
      <component glyphName="grave" x="21" y="-9" flags="0x1004"/>
      <component glyphName="dotlessi" x="0" y="0" flags="0x1204"/>
    </TTGlyph>
    <TTGlyph name="ij" xMin="113" yMin="-271" xMax="848" yMax="1205">
      <contour>
        <pt x="742" y="779" on="1"/>
        <pt x="605" y="779" on="1"/>
        <pt x="605" y="836" on="1"/>
        <pt x="821" y="836" on="1"/>
        <pt x="821" y="-22" on="1"/>
        <pt x="822" y="-145" on="0"/>
        <pt x="798" y="-186" on="1"/>
        <pt x="749" y="-271" on="0"/>
        <pt x="607" y="-271" on="1"/>
        <pt x="527" y="-271" on="1"/>
        <pt x="527" y="-211" on="1"/>
        <pt x="605" y="-211" on="1"/>
        <pt x="699" y="-211" on="0"/>
        <pt x="742" y="-137" on="0"/>
        <pt x="742" y="-34" on="1"/>
      </contour>
      <contour>
        <pt x="812" y="1092" on="0"/>
        <pt x="759" y="1092" on="0"/>
        <pt x="724" y="1124" on="0"/>
        <pt x="724" y="1148" on="1"/>
        <pt x="724" y="1205" on="0"/>
        <pt x="786" y="1205" on="1"/>
        <pt x="848" y="1205" on="0"/>
        <pt x="848" y="1148" on="1"/>
        <pt x="848" y="1124" on="0"/>
      </contour>
      <contour>
        <pt x="298" y="1092" on="1"/>
        <pt x="272" y="1092" on="0"/>
        <pt x="237" y="1124" on="0"/>
        <pt x="237" y="1148" on="1"/>
        <pt x="237" y="1205" on="0"/>
        <pt x="299" y="1205" on="1"/>
        <pt x="327" y="1205" on="0"/>
        <pt x="362" y="1174" on="0"/>
        <pt x="362" y="1124" on="0"/>
        <pt x="326" y="1092" on="0"/>
      </contour>
      <contour>
        <pt x="113" y="776" on="1"/>
        <pt x="113" y="836" on="1"/>
        <pt x="342" y="836" on="1"/>
        <pt x="342" y="60" on="1"/>
        <pt x="496" y="60" on="1"/>
        <pt x="496" y="0" on="1"/>
        <pt x="113" y="0" on="1"/>
        <pt x="113" y="60" on="1"/>
        <pt x="263" y="60" on="1"/>
        <pt x="263" y="776" on="1"/>
      </contour>
    </TTGlyph>
    <TTGlyph name="infinity" xMin="135" yMin="265" xMax="1160" yMax="836">
      <contour>
        <pt x="647" y="644" on="1"/>
        <pt x="747" y="832" on="0"/>
        <pt x="913" y="832" on="1"/>
        <pt x="1013" y="832" on="0"/>
        <pt x="1066" y="779" on="1"/>
        <pt x="1160" y="683" on="0"/>
        <pt x="1160" y="418" on="0"/>
        <pt x="1010" y="265" on="0"/>
        <pt x="912" y="265" on="1"/>
        <pt x="745" y="265" on="0"/>
        <pt x="650" y="462" on="1"/>
        <pt x="546" y="270" on="0"/>
        <pt x="374" y="270" on="1"/>
        <pt x="135" y="270" on="0"/>
        <pt x="135" y="582" on="1"/>
        <pt x="135" y="670" on="0"/>
        <pt x="273" y="836" on="0"/>
        <pt x="496" y="836" on="0"/>
        <pt x="588" y="732" on="1"/>
        <pt x="620" y="696" on="0"/>
      </contour>
      <contour>
        <pt x="915" y="316" on="1"/>
        <pt x="1092" y="316" on="0"/>
        <pt x="1092" y="572" on="1"/>
        <pt x="1092" y="647" on="0"/>
        <pt x="994" y="780" on="0"/>
        <pt x="898" y="780" on="1"/>
        <pt x="782" y="780" on="0"/>
        <pt x="673" y="548" on="1"/>
        <pt x="756" y="365" on="0"/>
        <pt x="844" y="329" on="1"/>
        <pt x="876" y="316" on="0"/>
      </contour>
      <contour>
        <pt x="387" y="785" on="1"/>
        <pt x="203" y="785" on="0"/>
        <pt x="203" y="521" on="1"/>
        <pt x="203" y="449" on="0"/>
        <pt x="296" y="320" on="0"/>
        <pt x="372" y="320" on="1"/>
        <pt x="514" y="320" on="0"/>
        <pt x="621" y="553" on="1"/>
        <pt x="522" y="785" on="0"/>
      </contour>
    </TTGlyph>
    <TTGlyph name="integral" xMin="-27" yMin="-86" xMax="715" yMax="1244">
      <contour>
        <pt x="701" y="1165" on="1"/>
        <pt x="649" y="1183" on="0"/>
        <pt x="608" y="1183" on="1"/>
        <pt x="519" y="1183" on="0"/>
        <pt x="492" y="1080" on="1"/>
        <pt x="211" y="60" on="1"/>
        <pt x="174" y="-74" on="0"/>
        <pt x="44" y="-84" on="1"/>
        <pt x="8" y="-86" on="0"/>
        <pt x="-27" y="-86" on="1"/>
        <pt x="-11" y="-24" on="1"/>
        <pt x="60" y="-24" on="0"/>
        <pt x="119" y="12" on="0"/>
        <pt x="132" y="60" on="1"/>
        <pt x="413" y="1078" on="1"/>
        <pt x="458" y="1244" on="0"/>
        <pt x="601" y="1244" on="1"/>
        <pt x="659" y="1244" on="0"/>
        <pt x="715" y="1219" on="1"/>
      </contour>
    </TTGlyph>
    <TTGlyph name="itilde" xMin="25" yMin="0" xMax="489" yMax="1111">
      <component glyphName="tilde" x="-100" y="-46" flags="0x1004"/>
      <component glyphName="dotlessi" x="0" y="0" flags="0x1204"/>
    </TTGlyph>
    <TTGlyph name="j" xMin="-53" yMin="-271" xMax="254" yMax="1205">
      <contour>
        <pt x="162" y="779" on="1"/>
        <pt x="25" y="779" on="1"/>
        <pt x="25" y="836" on="1"/>
        <pt x="241" y="836" on="1"/>
        <pt x="241" y="-22" on="1"/>
        <pt x="242" y="-145" on="0"/>
        <pt x="218" y="-186" on="1"/>
        <pt x="169" y="-271" on="0"/>
        <pt x="27" y="-271" on="1"/>
        <pt x="-53" y="-271" on="1"/>
        <pt x="-53" y="-211" on="1"/>
        <pt x="25" y="-211" on="1"/>
        <pt x="119" y="-211" on="0"/>
        <pt x="162" y="-137" on="0"/>
        <pt x="162" y="-34" on="1"/>
      </contour>
      <contour>
        <pt x="218" y="1092" on="0"/>
        <pt x="165" y="1092" on="0"/>
        <pt x="130" y="1124" on="0"/>
        <pt x="130" y="1148" on="1"/>
        <pt x="130" y="1205" on="0"/>
        <pt x="192" y="1205" on="1"/>
        <pt x="254" y="1205" on="0"/>
        <pt x="254" y="1148" on="1"/>
        <pt x="254" y="1124" on="0"/>
      </contour>
    </TTGlyph>
    <TTGlyph name="jcircumflex" xMin="-80" yMin="-271" xMax="353" yMax="1255">
      <component glyphName="circumflex" x="-133" y="60" flags="0x1004"/>
      <component glyphName="dotlessj" x="0" y="0" flags="0x1204"/>
    </TTGlyph>
    <TTGlyph name="k" xMin="94" yMin="0" xMax="1049" yMax="1234">
      <contour>
        <pt x="94" y="1174" on="1"/>
        <pt x="94" y="1234" on="1"/>
        <pt x="359" y="1234" on="1"/>
        <pt x="359" y="454" on="1"/>
        <pt x="753" y="776" on="1"/>
        <pt x="629" y="776" on="1"/>
        <pt x="629" y="836" on="1"/>
        <pt x="1014" y="836" on="1"/>
        <pt x="1014" y="776" on="1"/>
        <pt x="855" y="776" on="1"/>
        <pt x="452" y="439" on="1"/>
        <pt x="898" y="60" on="1"/>
        <pt x="1049" y="60" on="1"/>
        <pt x="1049" y="0" on="1"/>
        <pt x="666" y="0" on="1"/>
        <pt x="666" y="60" on="1"/>
        <pt x="789" y="60" on="1"/>
        <pt x="359" y="431" on="1"/>
        <pt x="359" y="60" on="1"/>
        <pt x="543" y="60" on="1"/>
        <pt x="543" y="0" on="1"/>
        <pt x="94" y="0" on="1"/>
        <pt x="94" y="60" on="1"/>
        <pt x="280" y="60" on="1"/>
        <pt x="280" y="1174" on="1"/>
      </contour>
    </TTGlyph>
    <TTGlyph name="kcommaaccent" xMin="94" yMin="-410" xMax="1049" yMax="1234">
      <component glyphName="uni0326" x="340" y="-230" flags="0x1004"/>
      <component glyphName="k" x="0" y="0" flags="0x1204"/>
    </TTGlyph>
    <TTGlyph name="kgreenlandic" xMin="102" yMin="0" xMax="1057" yMax="838">
      <contour>
        <pt x="102" y="778" on="1"/>
        <pt x="102" y="838" on="1"/>
        <pt x="367" y="838" on="1"/>
        <pt x="367" y="445" on="1"/>
        <pt x="761" y="776" on="1"/>
        <pt x="637" y="776" on="1"/>
        <pt x="637" y="836" on="1"/>
        <pt x="1022" y="836" on="1"/>
        <pt x="1022" y="776" on="1"/>
        <pt x="863" y="776" on="1"/>
        <pt x="460" y="439" on="1"/>
        <pt x="906" y="60" on="1"/>
        <pt x="1057" y="60" on="1"/>
        <pt x="1057" y="0" on="1"/>
        <pt x="674" y="0" on="1"/>
        <pt x="674" y="60" on="1"/>
        <pt x="797" y="60" on="1"/>
        <pt x="367" y="422" on="1"/>
        <pt x="367" y="60" on="1"/>
        <pt x="551" y="60" on="1"/>
        <pt x="551" y="0" on="1"/>
        <pt x="102" y="0" on="1"/>
        <pt x="102" y="60" on="1"/>
        <pt x="288" y="60" on="1"/>
        <pt x="288" y="778" on="1"/>
      </contour>
    </TTGlyph>
    <TTGlyph name="l" xMin="94" yMin="0" xMax="543" yMax="1234">
      <contour>
        <pt x="94" y="1174" on="1"/>
        <pt x="94" y="1234" on="1"/>
        <pt x="359" y="1234" on="1"/>
        <pt x="359" y="60" on="1"/>
        <pt x="543" y="60" on="1"/>
        <pt x="543" y="0" on="1"/>
        <pt x="94" y="0" on="1"/>
        <pt x="94" y="60" on="1"/>
        <pt x="280" y="60" on="1"/>
        <pt x="280" y="1174" on="1"/>
      </contour>
    </TTGlyph>
    <TTGlyph name="ldot" xMin="94" yMin="0" xMax="854" yMax="1234">
      <component glyphName="periodcentered" x="612" y="0" flags="0x1004"/>
      <component glyphName="l" x="0" y="0" flags="0x1004"/>
    </TTGlyph>
    <TTGlyph name="less" xMin="-18" yMin="-23" xMax="829" yMax="1255">
      <contour>
        <pt x="-18" y="613" on="1"/>
        <pt x="829" y="1255" on="1"/>
        <pt x="829" y="1162" on="1"/>
        <pt x="96" y="613" on="1"/>
        <pt x="829" y="68" on="1"/>
        <pt x="829" y="-23" on="1"/>
      </contour>
    </TTGlyph>
    <TTGlyph name="lessequal" xMin="88" yMin="0" xMax="776" yMax="952">
      <contour>
        <pt x="88" y="553" on="1"/>
        <pt x="88" y="590" on="1"/>
        <pt x="776" y="952" on="1"/>
        <pt x="776" y="882" on="1"/>
        <pt x="194" y="571" on="1"/>
        <pt x="776" y="262" on="1"/>
        <pt x="776" y="194" on="1"/>
      </contour>
      <contour>
        <pt x="88" y="58" on="1"/>
        <pt x="776" y="58" on="1"/>
        <pt x="776" y="0" on="1"/>
        <pt x="88" y="0" on="1"/>
      </contour>
    </TTGlyph>
    <TTGlyph name="logicalnot" xMin="100" yMin="304" xMax="838" yMax="697">
      <contour>
        <pt x="838" y="697" on="1"/>
        <pt x="838" y="304" on="1"/>
        <pt x="761" y="304" on="1"/>
        <pt x="761" y="617" on="1"/>
        <pt x="100" y="617" on="1"/>
        <pt x="100" y="697" on="1"/>
      </contour>
    </TTGlyph>
    <TTGlyph name="lozenge" xMin="29" yMin="-23" xMax="881" yMax="1254">
      <contour>
        <pt x="481" y="-23" on="1"/>
        <pt x="430" y="-23" on="1"/>
        <pt x="29" y="614" on="1"/>
        <pt x="430" y="1254" on="1"/>
        <pt x="481" y="1254" on="1"/>
        <pt x="881" y="616" on="1"/>
      </contour>
      <contour>
        <pt x="458" y="1181" on="1"/>
        <pt x="115" y="616" on="1"/>
        <pt x="458" y="47" on="1"/>
        <pt x="799" y="616" on="1"/>
      </contour>
    </TTGlyph>
    <TTGlyph name="lslash" xMin="127" yMin="0" xMax="576" yMax="1234">
      <contour>
        <pt x="563" y="887" on="1"/>
        <pt x="563" y="807" on="1"/>
        <pt x="392" y="706" on="1"/>
        <pt x="392" y="60" on="1"/>
        <pt x="576" y="60" on="1"/>
        <pt x="576" y="0" on="1"/>
        <pt x="127" y="0" on="1"/>
        <pt x="127" y="60" on="1"/>
        <pt x="313" y="60" on="1"/>
        <pt x="313" y="659" on="1"/>
        <pt x="141" y="557" on="1"/>
        <pt x="141" y="637" on="1"/>
        <pt x="313" y="739" on="1"/>
        <pt x="313" y="1174" on="1"/>
        <pt x="127" y="1174" on="1"/>
        <pt x="127" y="1234" on="1"/>
        <pt x="392" y="1234" on="1"/>
        <pt x="392" y="786" on="1"/>
      </contour>
    </TTGlyph>
    <TTGlyph name="m" xMin="92" yMin="0" xMax="1588" yMax="854">
      <contour>
        <pt x="1201" y="854" on="1"/>
        <pt x="1300" y="854" on="0"/>
        <pt x="1412" y="728" on="0"/>
        <pt x="1412" y="617" on="1"/>
        <pt x="1412" y="60" on="1"/>
        <pt x="1588" y="60" on="1"/>
        <pt x="1588" y="0" on="1"/>
        <pt x="1176" y="0" on="1"/>
        <pt x="1176" y="60" on="1"/>
        <pt x="1333" y="60" on="1"/>
        <pt x="1333" y="601" on="1"/>
        <pt x="1332" y="736" on="0"/>
        <pt x="1262" y="772" on="1"/>
        <pt x="1214" y="792" on="0"/>
        <pt x="1090" y="780" on="0"/>
        <pt x="1042" y="758" on="1"/>
        <pt x="979" y="729" on="0"/>
        <pt x="875" y="664" on="1"/>
        <pt x="878" y="640" on="0"/>
        <pt x="878" y="617" on="1"/>
        <pt x="878" y="60" on="1"/>
        <pt x="1054" y="60" on="1"/>
        <pt x="1054" y="0" on="1"/>
        <pt x="642" y="0" on="1"/>
        <pt x="642" y="60" on="1"/>
        <pt x="799" y="60" on="1"/>
        <pt x="799" y="601" on="1"/>
        <pt x="798" y="736" on="0"/>
        <pt x="728" y="772" on="1"/>
        <pt x="682" y="791" on="0"/>
        <pt x="557" y="781" on="0"/>
        <pt x="510" y="759" on="1"/>
        <pt x="451" y="731" on="0"/>
        <pt x="344" y="664" on="1"/>
        <pt x="344" y="60" on="1"/>
        <pt x="500" y="60" on="1"/>
        <pt x="500" y="0" on="1"/>
        <pt x="103" y="0" on="1"/>
        <pt x="103" y="60" on="1"/>
        <pt x="265" y="60" on="1"/>
        <pt x="265" y="779" on="1"/>
        <pt x="92" y="779" on="1"/>
        <pt x="92" y="836" on="1"/>
        <pt x="332" y="836" on="1"/>
        <pt x="341" y="736" on="1"/>
        <pt x="489" y="829" on="0"/>
        <pt x="616" y="854" on="0"/>
        <pt x="661" y="854" on="1"/>
        <pt x="804" y="854" on="0"/>
        <pt x="858" y="727" on="1"/>
        <pt x="1041" y="854" on="0"/>
      </contour>
    </TTGlyph>
    <TTGlyph name="macron" xMin="131" yMin="1058" xMax="522" yMax="1123">
      <contour>
        <pt x="131" y="1123" on="1"/>
        <pt x="522" y="1123" on="1"/>
        <pt x="522" y="1058" on="1"/>
        <pt x="131" y="1058" on="1"/>
      </contour>
    </TTGlyph>
    <TTGlyph name="minus" xMin="125" yMin="872" xMax="1109" yMax="959">
      <contour>
        <pt x="1109" y="959" on="1"/>
        <pt x="1109" y="872" on="1"/>
        <pt x="125" y="872" on="1"/>
        <pt x="125" y="959" on="1"/>
      </contour>
    </TTGlyph>
    <TTGlyph name="mu" xMin="84" yMin="-232" xMax="1106" yMax="836">
      <contour>
        <pt x="529" y="53" on="1"/>
        <pt x="664" y="53" on="0"/>
        <pt x="854" y="173" on="1"/>
        <pt x="854" y="776" on="1"/>
        <pt x="680" y="776" on="1"/>
        <pt x="680" y="836" on="1"/>
        <pt x="933" y="836" on="1"/>
        <pt x="933" y="58" on="1"/>
        <pt x="1106" y="58" on="1"/>
        <pt x="1106" y="0" on="1"/>
        <pt x="866" y="0" on="1"/>
        <pt x="858" y="104" on="1"/>
        <pt x="704" y="12" on="0"/>
        <pt x="569" y="-14" on="0"/>
        <pt x="406" y="-14" on="0"/>
        <pt x="339" y="40" on="1"/>
        <pt x="339" y="-232" on="1"/>
        <pt x="259" y="-232" on="1"/>
        <pt x="259" y="776" on="1"/>
        <pt x="84" y="776" on="1"/>
        <pt x="84" y="836" on="1"/>
        <pt x="338" y="836" on="1"/>
        <pt x="339" y="208" on="1"/>
        <pt x="348" y="53" on="0"/>
      </contour>
    </TTGlyph>
    <TTGlyph name="multiply" xMin="78" yMin="317" xMax="573" yMax="814">
      <contour>
        <pt x="122" y="812" on="1"/>
        <pt x="325" y="610" on="1"/>
        <pt x="529" y="814" on="1"/>
        <pt x="573" y="769" on="1"/>
        <pt x="371" y="565" on="1"/>
        <pt x="573" y="361" on="1"/>
        <pt x="529" y="317" on="1"/>
        <pt x="325" y="521" on="1"/>
        <pt x="122" y="318" on="1"/>
        <pt x="78" y="362" on="1"/>
        <pt x="281" y="565" on="1"/>
        <pt x="78" y="768" on="1"/>
      </contour>
    </TTGlyph>
    <TTGlyph name="n" xMin="100" yMin="0" xMax="1133" yMax="854">
      <contour>
        <pt x="879" y="601" on="1"/>
        <pt x="878" y="698" on="0"/>
        <pt x="792" y="785" on="0"/>
        <pt x="698" y="787" on="1"/>
        <pt x="531" y="787" on="0"/>
        <pt x="361" y="668" on="1"/>
        <pt x="361" y="60" on="1"/>
        <pt x="543" y="60" on="1"/>
        <pt x="543" y="0" on="1"/>
        <pt x="100" y="0" on="1"/>
        <pt x="100" y="60" on="1"/>
        <pt x="281" y="60" on="1"/>
        <pt x="281" y="779" on="1"/>
        <pt x="101" y="779" on="1"/>
        <pt x="101" y="836" on="1"/>
        <pt x="349" y="836" on="1"/>
        <pt x="357" y="736" on="1"/>
        <pt x="536" y="854" on="0"/>
        <pt x="718" y="854" on="1"/>
        <pt x="830" y="854" on="0"/>
        <pt x="958" y="731" on="0"/>
        <pt x="958" y="617" on="1"/>
        <pt x="958" y="60" on="1"/>
        <pt x="1133" y="60" on="1"/>
        <pt x="1133" y="0" on="1"/>
        <pt x="722" y="0" on="1"/>
        <pt x="722" y="60" on="1"/>
        <pt x="879" y="60" on="1"/>
      </contour>
    </TTGlyph>
    <TTGlyph name="nacute" xMin="100" yMin="0" xMax="1133" yMax="1225">
      <component glyphName="acute" x="476" y="-9" flags="0x1004"/>
      <component glyphName="n" x="0" y="0" flags="0x1204"/>
    </TTGlyph>
    <TTGlyph name="nine" xMin="82" yMin="-128" xMax="868" yMax="1255">
      <contour>
        <pt x="480" y="1183" on="1"/>
        <pt x="337" y="1183" on="0"/>
        <pt x="163" y="1009" on="0"/>
        <pt x="163" y="870" on="1"/>
        <pt x="163" y="736" on="0"/>
        <pt x="348" y="575" on="0"/>
        <pt x="475" y="575" on="1"/>
        <pt x="603" y="576" on="0"/>
        <pt x="669" y="634" on="1"/>
        <pt x="791" y="741" on="0"/>
        <pt x="791" y="875" on="1"/>
        <pt x="792" y="1009" on="0"/>
        <pt x="734" y="1071" on="1"/>
        <pt x="630" y="1183" on="0"/>
      </contour>
      <contour>
        <pt x="474" y="506" on="1"/>
        <pt x="311" y="506" on="0"/>
        <pt x="82" y="712" on="0"/>
        <pt x="82" y="868" on="1"/>
        <pt x="82" y="1023" on="0"/>
        <pt x="295" y="1255" on="0"/>
        <pt x="631" y="1255" on="0"/>
        <pt x="868" y="1046" on="0"/>
        <pt x="868" y="765" on="0"/>
        <pt x="733" y="535" on="1"/>
        <pt x="376" y="-128" on="1"/>
        <pt x="308" y="-82" on="1"/>
        <pt x="660" y="554" on="1"/>
        <pt x="562" y="506" on="0"/>
      </contour>
    </TTGlyph>
    <TTGlyph name="notequal" xMin="94" yMin="84" xMax="797" yMax="868">
      <contour>
        <pt x="468" y="677" on="1"/>
        <pt x="517" y="868" on="1"/>
        <pt x="575" y="868" on="1"/>
        <pt x="522" y="677" on="1"/>
        <pt x="797" y="677" on="1"/>
        <pt x="797" y="613" on="1"/>
        <pt x="510" y="613" on="1"/>
        <pt x="437" y="337" on="1"/>
        <pt x="797" y="337" on="1"/>
        <pt x="797" y="276" on="1"/>
        <pt x="420" y="276" on="1"/>
        <pt x="373" y="84" on="1"/>
        <pt x="313" y="84" on="1"/>
        <pt x="363" y="276" on="1"/>
        <pt x="94" y="276" on="1"/>
        <pt x="94" y="337" on="1"/>
        <pt x="381" y="337" on="1"/>
        <pt x="453" y="613" on="1"/>
        <pt x="94" y="613" on="1"/>
        <pt x="94" y="677" on="1"/>
      </contour>
    </TTGlyph>
    <TTGlyph name="ntilde" xMin="100" yMin="0" xMax="1133" yMax="1111">
      <component glyphName="tilde" x="260" y="-46" flags="0x1004"/>
      <component glyphName="n" x="0" y="0" flags="0x1204"/>
    </TTGlyph>
    <TTGlyph name="numbersign" xMin="53" yMin="0" xMax="980" yMax="1234">
      <contour>
        <pt x="269" y="880" on="1"/>
        <pt x="298" y="1234" on="1"/>
        <pt x="377" y="1234" on="1"/>
        <pt x="348" y="880" on="1"/>
        <pt x="713" y="880" on="1"/>
        <pt x="742" y="1234" on="1"/>
        <pt x="821" y="1234" on="1"/>
        <pt x="792" y="880" on="1"/>
        <pt x="980" y="880" on="1"/>
        <pt x="975" y="821" on="1"/>
        <pt x="787" y="821" on="1"/>
        <pt x="757" y="457" on="1"/>
        <pt x="944" y="457" on="1"/>
        <pt x="939" y="398" on="1"/>
        <pt x="752" y="398" on="1"/>
        <pt x="719" y="0" on="1"/>
        <pt x="640" y="0" on="1"/>
        <pt x="673" y="398" on="1"/>
        <pt x="308" y="398" on="1"/>
        <pt x="275" y="0" on="1"/>
        <pt x="196" y="0" on="1"/>
        <pt x="229" y="398" on="1"/>
        <pt x="53" y="398" on="1"/>
        <pt x="58" y="457" on="1"/>
        <pt x="234" y="457" on="1"/>
        <pt x="264" y="821" on="1"/>
        <pt x="89" y="821" on="1"/>
        <pt x="94" y="880" on="1"/>
      </contour>
      <contour>
        <pt x="313" y="457" on="1"/>
        <pt x="678" y="457" on="1"/>
        <pt x="708" y="821" on="1"/>
        <pt x="343" y="821" on="1"/>
      </contour>
    </TTGlyph>
    <TTGlyph name="o" xMin="57" yMin="-14" xMax="959" yMax="854">
      <contour>
        <pt x="879" y="594" on="0"/>
        <pt x="656" y="787" on="0"/>
        <pt x="358" y="787" on="0"/>
        <pt x="139" y="593" on="0"/>
        <pt x="139" y="250" on="0"/>
        <pt x="357" y="53" on="0"/>
        <pt x="657" y="53" on="0"/>
        <pt x="879" y="250" on="0"/>
      </contour>
      <contour>
        <pt x="959" y="218" on="0"/>
        <pt x="689" y="-14" on="0"/>
        <pt x="324" y="-14" on="0"/>
        <pt x="57" y="219" on="0"/>
        <pt x="57" y="626" on="0"/>
        <pt x="323" y="854" on="0"/>
        <pt x="689" y="854" on="0"/>
        <pt x="959" y="626" on="0"/>
      </contour>
    </TTGlyph>
    <TTGlyph name="oacute" xMin="57" yMin="-14" xMax="959" yMax="1225">
      <component glyphName="acute" x="368" y="-9" flags="0x1004"/>
      <component glyphName="o" x="0" y="0" flags="0x1204"/>
    </TTGlyph>
    <TTGlyph name="ocircumflex" xMin="57" yMin="-14" xMax="959" yMax="1249">
      <component glyphName="circumflex" x="212" y="54" flags="0x1004"/>
      <component glyphName="o" x="0" y="0" flags="0x1204"/>
    </TTGlyph>
    <TTGlyph name="odieresis" xMin="57" yMin="-14" xMax="959" yMax="1082">
      <component glyphName="dieresis" x="206" y="36" flags="0x1004"/>
      <component glyphName="o" x="0" y="0" flags="0x1204"/>
    </TTGlyph>
    <TTGlyph name="oe" xMin="59" yMin="-14" xMax="1678" yMax="854">
      <contour>
        <pt x="509" y="854" on="1"/>
        <pt x="637" y="854" on="0"/>
        <pt x="851" y="719" on="0"/>
        <pt x="898" y="610" on="1"/>
        <pt x="1001" y="854" on="0"/>
        <pt x="1292" y="854" on="1"/>
        <pt x="1469" y="854" on="0"/>
        <pt x="1678" y="592" on="0"/>
        <pt x="1678" y="400" on="1"/>
        <pt x="939" y="400" on="1"/>
        <pt x="956" y="149" on="0"/>
        <pt x="1162" y="74" on="1"/>
        <pt x="1222" y="52" on="0"/>
        <pt x="1288" y="52" on="1"/>
        <pt x="1484" y="52" on="0"/>
        <pt x="1622" y="204" on="1"/>
        <pt x="1655" y="149" on="1"/>
        <pt x="1488" y="-14" on="0"/>
        <pt x="1288" y="-14" on="1"/>
        <pt x="1157" y="-14" on="0"/>
        <pt x="947" y="121" on="0"/>
        <pt x="897" y="232" on="1"/>
        <pt x="850" y="117" on="0"/>
        <pt x="641" y="-14" on="0"/>
        <pt x="488" y="-14" on="1"/>
        <pt x="320" y="-14" on="0"/>
        <pt x="59" y="219" on="0"/>
        <pt x="59" y="626" on="0"/>
        <pt x="319" y="854" on="0"/>
      </contour>
      <contour>
        <pt x="857" y="593" on="0"/>
        <pt x="642" y="787" on="0"/>
        <pt x="354" y="787" on="0"/>
        <pt x="141" y="595" on="0"/>
        <pt x="141" y="248" on="0"/>
        <pt x="353" y="53" on="0"/>
        <pt x="643" y="53" on="0"/>
        <pt x="857" y="250" on="0"/>
      </contour>
      <contour>
        <pt x="1600" y="466" on="1"/>
        <pt x="1583" y="679" on="0"/>
        <pt x="1417" y="760" on="1"/>
        <pt x="1362" y="787" on="0"/>
        <pt x="1285" y="787" on="1"/>
        <pt x="1133" y="787" on="0"/>
        <pt x="947" y="593" on="0"/>
        <pt x="941" y="466" on="1"/>
      </contour>
    </TTGlyph>
    <TTGlyph name="ogonek" xMin="119" yMin="-364" xMax="425" yMax="0">
      <contour>
        <pt x="303" y="-364" on="1"/>
        <pt x="119" y="-364" on="0"/>
        <pt x="119" y="-91" on="0"/>
        <pt x="240" y="0" on="1"/>
        <pt x="293" y="0" on="1"/>
        <pt x="202" y="-87" on="0"/>
        <pt x="202" y="-174" on="1"/>
        <pt x="202" y="-278" on="0"/>
        <pt x="320" y="-278" on="1"/>
        <pt x="372" y="-278" on="0"/>
        <pt x="425" y="-256" on="1"/>
        <pt x="425" y="-319" on="1"/>
        <pt x="360" y="-364" on="0"/>
      </contour>
    </TTGlyph>
    <TTGlyph name="ograve" xMin="57" yMin="-14" xMax="959" yMax="1225">
      <component glyphName="grave" x="232" y="-9" flags="0x1004"/>
      <component glyphName="o" x="0" y="0" flags="0x1204"/>
    </TTGlyph>
    <TTGlyph name="one" xMin="102" yMin="0" xMax="529" yMax="1234">
      <contour>
        <pt x="529" y="62" on="1"/>
        <pt x="529" y="0" on="1"/>
        <pt x="102" y="0" on="1"/>
        <pt x="102" y="62" on="1"/>
        <pt x="279" y="62" on="1"/>
        <pt x="279" y="1147" on="1"/>
        <pt x="123" y="1118" on="1"/>
        <pt x="106" y="1186" on="1"/>
        <pt x="360" y="1234" on="1"/>
        <pt x="360" y="62" on="1"/>
      </contour>
    </TTGlyph>
    <TTGlyph name="onehalf" xMin="86" yMin="-23" xMax="1273" yMax="1255">
      <contour>
        <pt x="398" y="426" on="1"/>
        <pt x="398" y="365" on="1"/>
        <pt x="86" y="365" on="1"/>
        <pt x="86" y="426" on="1"/>
        <pt x="207" y="426" on="1"/>
        <pt x="207" y="1152" on="1"/>
        <pt x="103" y="1132" on="1"/>
        <pt x="86" y="1197" on="1"/>
        <pt x="281" y="1234" on="1"/>
        <pt x="281" y="426" on="1"/>
      </contour>
      <contour>
        <pt x="1012" y="881" on="1"/>
        <pt x="1132" y="881" on="0"/>
        <pt x="1273" y="749" on="0"/>
        <pt x="1273" y="631" on="1"/>
        <pt x="1273" y="473" on="0"/>
        <pt x="932" y="164" on="1"/>
        <pt x="864" y="102" on="0"/>
        <pt x="834" y="72" on="1"/>
        <pt x="1232" y="72" on="1"/>
        <pt x="1232" y="0" on="1"/>
        <pt x="726" y="0" on="1"/>
        <pt x="726" y="70" on="1"/>
        <pt x="744" y="88" on="0"/>
        <pt x="786" y="125" on="1"/>
        <pt x="1195" y="486" on="0"/>
        <pt x="1195" y="640" on="1"/>
        <pt x="1195" y="812" on="0"/>
        <pt x="988" y="812" on="1"/>
        <pt x="878" y="812" on="0"/>
        <pt x="832" y="702" on="1"/>
        <pt x="807" y="640" on="0"/>
        <pt x="830" y="535" on="1"/>
        <pt x="752" y="535" on="1"/>
        <pt x="744" y="570" on="0"/>
        <pt x="744" y="744" on="0"/>
        <pt x="894" y="881" on="0"/>
      </contour>
      <contour>
        <pt x="742" y="1255" on="1"/>
        <pt x="813" y="1255" on="1"/>
        <pt x="445" y="-23" on="1"/>
        <pt x="370" y="-23" on="1"/>
      </contour>
    </TTGlyph>
    <TTGlyph name="onequarter" xMin="86" yMin="-23" xMax="1325" yMax="1255">
      <contour>
        <pt x="398" y="426" on="1"/>
        <pt x="398" y="365" on="1"/>
        <pt x="86" y="365" on="1"/>
        <pt x="86" y="426" on="1"/>
        <pt x="207" y="426" on="1"/>
        <pt x="207" y="1152" on="1"/>
        <pt x="103" y="1132" on="1"/>
        <pt x="86" y="1197" on="1"/>
        <pt x="281" y="1234" on="1"/>
        <pt x="281" y="426" on="1"/>
      </contour>
      <contour>
        <pt x="717" y="316" on="1"/>
        <pt x="1055" y="866" on="1"/>
        <pt x="1147" y="866" on="1"/>
        <pt x="1147" y="323" on="1"/>
        <pt x="1325" y="323" on="1"/>
        <pt x="1325" y="260" on="1"/>
        <pt x="1147" y="260" on="1"/>
        <pt x="1147" y="61" on="1"/>
        <pt x="1259" y="61" on="1"/>
        <pt x="1259" y="0" on="1"/>
        <pt x="962" y="0" on="1"/>
        <pt x="962" y="61" on="1"/>
        <pt x="1074" y="61" on="1"/>
        <pt x="1074" y="260" on="1"/>
        <pt x="726" y="260" on="1"/>
      </contour>
      <contour>
        <pt x="1074" y="323" on="1"/>
        <pt x="1074" y="768" on="1"/>
        <pt x="1046" y="721" on="0"/>
        <pt x="859" y="412" on="0"/>
        <pt x="807" y="323" on="1"/>
      </contour>
      <contour>
        <pt x="781" y="1255" on="1"/>
        <pt x="852" y="1255" on="1"/>
        <pt x="484" y="-23" on="1"/>
        <pt x="409" y="-23" on="1"/>
      </contour>
    </TTGlyph>
    <TTGlyph name="onesuperior" xMin="127" yMin="0" xMax="439" yMax="869">
      <contour>
        <pt x="439" y="61" on="1"/>
        <pt x="439" y="0" on="1"/>
        <pt x="127" y="0" on="1"/>
        <pt x="127" y="61" on="1"/>
        <pt x="248" y="61" on="1"/>
        <pt x="248" y="787" on="1"/>
        <pt x="144" y="767" on="1"/>
        <pt x="127" y="832" on="1"/>
        <pt x="322" y="869" on="1"/>
        <pt x="322" y="61" on="1"/>
      </contour>
    </TTGlyph>
    <TTGlyph name="ordfeminine" xMin="123" yMin="641" xMax="710" yMax="1255">
      <contour>
        <pt x="332" y="641" on="1"/>
        <pt x="232" y="641" on="0"/>
        <pt x="123" y="740" on="0"/>
        <pt x="123" y="835" on="1"/>
        <pt x="123" y="996" on="0"/>
        <pt x="352" y="996" on="1"/>
        <pt x="443" y="996" on="0"/>
        <pt x="531" y="978" on="1"/>
        <pt x="531" y="1055" on="1"/>
        <pt x="531" y="1192" on="0"/>
        <pt x="249" y="1192" on="0"/>
        <pt x="183" y="1123" on="1"/>
        <pt x="147" y="1181" on="1"/>
        <pt x="223" y="1255" on="0"/>
        <pt x="392" y="1255" on="1"/>
        <pt x="494" y="1255" on="0"/>
        <pt x="604" y="1160" on="0"/>
        <pt x="604" y="1067" on="1"/>
        <pt x="604" y="710" on="1"/>
        <pt x="710" y="710" on="1"/>
        <pt x="710" y="650" on="1"/>
        <pt x="542" y="650" on="1"/>
        <pt x="533" y="708" on="1"/>
        <pt x="435" y="641" on="0"/>
      </contour>
      <contour>
        <pt x="384" y="932" on="1"/>
        <pt x="337" y="932" on="0"/>
        <pt x="275" y="924" on="0"/>
        <pt x="222" y="900" on="0"/>
        <pt x="197" y="853" on="0"/>
        <pt x="197" y="817" on="1"/>
        <pt x="197" y="706" on="0"/>
        <pt x="456" y="706" on="0"/>
        <pt x="531" y="772" on="1"/>
        <pt x="531" y="917" on="1"/>
        <pt x="471" y="932" on="0"/>
      </contour>
    </TTGlyph>
    <TTGlyph name="ordmasculine" xMin="117" yMin="641" xMax="755" yMax="1255">
      <contour>
        <pt x="435" y="706" on="1"/>
        <pt x="550" y="706" on="0"/>
        <pt x="682" y="847" on="0"/>
        <pt x="682" y="976" on="1"/>
        <pt x="681" y="1034" on="0"/>
        <pt x="610" y="1135" on="0"/>
        <pt x="496" y="1192" on="0"/>
        <pt x="435" y="1192" on="1"/>
        <pt x="276" y="1192" on="0"/>
        <pt x="212" y="1055" on="1"/>
        <pt x="191" y="1010" on="0"/>
        <pt x="191" y="923" on="1"/>
        <pt x="191" y="834" on="0"/>
        <pt x="340" y="706" on="0"/>
      </contour>
      <contour>
        <pt x="755" y="806" on="0"/>
        <pt x="565" y="641" on="0"/>
        <pt x="435" y="641" on="1"/>
        <pt x="306" y="642" on="0"/>
        <pt x="239" y="700" on="1"/>
        <pt x="117" y="805" on="0"/>
        <pt x="117" y="1094" on="0"/>
        <pt x="306" y="1255" on="0"/>
        <pt x="435" y="1255" on="1"/>
        <pt x="566" y="1256" on="0"/>
        <pt x="633" y="1198" on="1"/>
        <pt x="755" y="1093" on="0"/>
      </contour>
    </TTGlyph>
    <TTGlyph name="oslash" xMin="51" yMin="-196" xMax="953" yMax="1039">
      <contour>
        <pt x="297" y="29" on="1"/>
        <pt x="185" y="80" on="0"/>
        <pt x="52" y="279" on="0"/>
        <pt x="51" y="423" on="1"/>
        <pt x="51" y="626" on="0"/>
        <pt x="317" y="854" on="0"/>
        <pt x="500" y="854" on="1"/>
        <pt x="604" y="854" on="0"/>
        <pt x="698" y="815" on="1"/>
        <pt x="813" y="1039" on="1"/>
        <pt x="854" y="1015" on="1"/>
        <pt x="741" y="794" on="1"/>
        <pt x="953" y="677" on="0"/>
        <pt x="953" y="218" on="0"/>
        <pt x="683" y="-14" on="0"/>
        <pt x="500" y="-14" on="1"/>
        <pt x="419" y="-14" on="0"/>
        <pt x="341" y="12" on="1"/>
        <pt x="234" y="-196" on="1"/>
        <pt x="194" y="-172" on="1"/>
      </contour>
      <contour>
        <pt x="708" y="730" on="1"/>
        <pt x="372" y="74" on="1"/>
        <pt x="504" y="30" on="0"/>
        <pt x="704" y="100" on="0"/>
        <pt x="756" y="146" on="1"/>
        <pt x="872" y="249" on="0"/>
        <pt x="873" y="629" on="0"/>
      </contour>
      <contour>
        <pt x="666" y="752" on="1"/>
        <pt x="587" y="787" on="0"/>
        <pt x="509" y="787" on="1"/>
        <pt x="352" y="787" on="0"/>
        <pt x="133" y="593" on="0"/>
        <pt x="133" y="424" on="1"/>
        <pt x="133" y="187" on="0"/>
        <pt x="329" y="92" on="1"/>
      </contour>
    </TTGlyph>
    <TTGlyph name="otilde" xMin="57" yMin="-14" xMax="959" yMax="1111">
      <component glyphName="tilde" x="151" y="-46" flags="0x1004"/>
      <component glyphName="o" x="0" y="0" flags="0x1204"/>
    </TTGlyph>
    <TTGlyph name="p" xMin="37" yMin="-322" xMax="1079" yMax="854">
      <contour>
        <pt x="281" y="715" on="1"/>
        <pt x="443" y="854" on="0"/>
        <pt x="687" y="854" on="1"/>
        <pt x="799" y="854" on="0"/>
        <pt x="992" y="710" on="0"/>
        <pt x="1034" y="616" on="1"/>
        <pt x="1079" y="514" on="0"/>
        <pt x="1079" y="420" on="1"/>
        <pt x="1079" y="236" on="0"/>
        <pt x="843" y="-14" on="0"/>
        <pt x="416" y="-14" on="0"/>
        <pt x="281" y="145" on="1"/>
        <pt x="281" y="-262" on="1"/>
        <pt x="428" y="-262" on="1"/>
        <pt x="428" y="-322" on="1"/>
        <pt x="53" y="-322" on="1"/>
        <pt x="53" y="-262" on="1"/>
        <pt x="202" y="-262" on="1"/>
        <pt x="202" y="780" on="1"/>
        <pt x="37" y="780" on="1"/>
        <pt x="37" y="840" on="1"/>
        <pt x="268" y="840" on="1"/>
      </contour>
      <contour>
        <pt x="646" y="787" on="1"/>
        <pt x="461" y="787" on="0"/>
        <pt x="281" y="647" on="1"/>
        <pt x="281" y="221" on="1"/>
        <pt x="446" y="53" on="0"/>
        <pt x="804" y="53" on="0"/>
        <pt x="1000" y="260" on="0"/>
        <pt x="1000" y="414" on="1"/>
        <pt x="1000" y="656" on="0"/>
        <pt x="802" y="754" on="1"/>
        <pt x="736" y="787" on="0"/>
      </contour>
    </TTGlyph>
    <TTGlyph name="paragraph" xMin="57" yMin="-23" xMax="956" yMax="1234">
      <contour>
        <pt x="709" y="661" on="1"/>
        <pt x="513" y="661" on="1"/>
        <pt x="513" y="-23" on="1"/>
        <pt x="432" y="-23" on="1"/>
        <pt x="432" y="661" on="1"/>
        <pt x="396" y="661" on="1"/>
        <pt x="237" y="661" on="0"/>
        <pt x="57" y="837" on="0"/>
        <pt x="57" y="1067" on="0"/>
        <pt x="237" y="1234" on="0"/>
        <pt x="396" y="1234" on="1"/>
        <pt x="956" y="1234" on="1"/>
        <pt x="956" y="1171" on="1"/>
        <pt x="790" y="1171" on="1"/>
        <pt x="790" y="-23" on="1"/>
        <pt x="709" y="-23" on="1"/>
      </contour>
    </TTGlyph>
    <TTGlyph name="parenleft" xMin="106" yMin="-37" xMax="508" yMax="1268">
      <contour>
        <pt x="508" y="1200" on="1"/>
        <pt x="356" y="1146" on="0"/>
        <pt x="191" y="841" on="0"/>
        <pt x="191" y="616" on="1"/>
        <pt x="191" y="294" on="0"/>
        <pt x="361" y="122" on="1"/>
        <pt x="421" y="62" on="0"/>
        <pt x="508" y="31" on="1"/>
        <pt x="508" y="-37" on="1"/>
        <pt x="315" y="11" on="0"/>
        <pt x="106" y="380" on="0"/>
        <pt x="106" y="616" on="1"/>
        <pt x="106" y="990" on="0"/>
        <pt x="332" y="1180" on="1"/>
        <pt x="408" y="1244" on="0"/>
        <pt x="508" y="1268" on="1"/>
      </contour>
    </TTGlyph>
    <TTGlyph name="parenright" xMin="78" yMin="-37" xMax="480" yMax="1268">
      <contour>
        <pt x="394" y="616" on="1"/>
        <pt x="394" y="835" on="0"/>
        <pt x="234" y="1142" on="0"/>
        <pt x="78" y="1200" on="1"/>
        <pt x="78" y="1268" on="1"/>
        <pt x="270" y="1220" on="0"/>
        <pt x="480" y="851" on="0"/>
        <pt x="480" y="616" on="1"/>
        <pt x="480" y="242" on="0"/>
        <pt x="254" y="52" on="1"/>
        <pt x="178" y="-12" on="0"/>
        <pt x="78" y="-37" on="1"/>
        <pt x="78" y="31" on="1"/>
        <pt x="230" y="86" on="0"/>
        <pt x="394" y="391" on="0"/>
      </contour>
    </TTGlyph>
    <TTGlyph name="partialdiff" xMin="49" yMin="-23" xMax="835" yMax="1361">
      <contour>
        <pt x="131" y="363" on="1"/>
        <pt x="131" y="223" on="0"/>
        <pt x="305" y="49" on="0"/>
        <pt x="447" y="49" on="1"/>
        <pt x="590" y="49" on="0"/>
        <pt x="758" y="216" on="0"/>
        <pt x="758" y="356" on="1"/>
        <pt x="758" y="492" on="0"/>
        <pt x="571" y="658" on="0"/>
        <pt x="443" y="658" on="1"/>
        <pt x="315" y="658" on="0"/>
        <pt x="250" y="601" on="1"/>
        <pt x="131" y="497" on="0"/>
      </contour>
      <contour>
        <pt x="343" y="1361" on="1"/>
        <pt x="701" y="697" on="1"/>
        <pt x="835" y="472" on="0"/>
        <pt x="835" y="367" on="1"/>
        <pt x="835" y="185" on="0"/>
        <pt x="599" y="-23" on="0"/>
        <pt x="474" y="-23" on="1"/>
        <pt x="261" y="-23" on="0"/>
        <pt x="49" y="209" on="0"/>
        <pt x="49" y="518" on="0"/>
        <pt x="276" y="726" on="0"/>
        <pt x="530" y="726" on="0"/>
        <pt x="628" y="678" on="1"/>
        <pt x="276" y="1314" on="1"/>
      </contour>
    </TTGlyph>
    <TTGlyph name="percent" xMin="156" yMin="-47" xMax="1635" yMax="1310">
      <contour>
        <pt x="1446" y="1310" on="1"/>
        <pt x="1487" y="1270" on="1"/>
        <pt x="386" y="-47" on="1"/>
        <pt x="341" y="0" on="1"/>
      </contour>
      <contour>
        <pt x="720" y="843" on="0"/>
        <pt x="720" y="1055" on="0"/>
        <pt x="579" y="1192" on="0"/>
        <pt x="369" y="1192" on="0"/>
        <pt x="230" y="1055" on="0"/>
        <pt x="230" y="843" on="0"/>
        <pt x="369" y="706" on="0"/>
        <pt x="579" y="706" on="0"/>
      </contour>
      <contour>
        <pt x="794" y="806" on="0"/>
        <pt x="604" y="641" on="0"/>
        <pt x="474" y="641" on="1"/>
        <pt x="345" y="641" on="0"/>
        <pt x="156" y="805" on="0"/>
        <pt x="156" y="1094" on="0"/>
        <pt x="345" y="1255" on="0"/>
        <pt x="474" y="1255" on="1"/>
        <pt x="605" y="1255" on="0"/>
        <pt x="794" y="1093" on="0"/>
      </contour>
      <contour>
        <pt x="1561" y="177" on="0"/>
        <pt x="1561" y="389" on="0"/>
        <pt x="1420" y="526" on="0"/>
        <pt x="1210" y="526" on="0"/>
        <pt x="1071" y="389" on="0"/>
        <pt x="1071" y="177" on="0"/>
        <pt x="1210" y="40" on="0"/>
        <pt x="1420" y="40" on="0"/>
      </contour>
      <contour>
        <pt x="1635" y="140" on="0"/>
        <pt x="1445" y="-25" on="0"/>
        <pt x="1315" y="-25" on="1"/>
        <pt x="1186" y="-25" on="0"/>
        <pt x="997" y="139" on="0"/>
        <pt x="997" y="428" on="0"/>
        <pt x="1186" y="589" on="0"/>
        <pt x="1315" y="589" on="1"/>
        <pt x="1446" y="589" on="0"/>
        <pt x="1635" y="427" on="0"/>
      </contour>
    </TTGlyph>
    <TTGlyph name="period" xMin="147" yMin="0" xMax="263" yMax="120">
      <contour>
        <pt x="263" y="120" on="1"/>
        <pt x="263" y="0" on="1"/>
        <pt x="147" y="0" on="1"/>
        <pt x="147" y="120" on="1"/>
      </contour>
    </TTGlyph>
    <TTGlyph name="periodcentered" xMin="125" yMin="695" xMax="242" yMax="815">
      <contour>
        <pt x="242" y="815" on="1"/>
        <pt x="242" y="695" on="1"/>
        <pt x="125" y="695" on="1"/>
        <pt x="125" y="815" on="1"/>
      </contour>
    </TTGlyph>
    <TTGlyph name="pi" xMin="162" yMin="-13" xMax="983" yMax="836">
      <contour>
        <pt x="168" y="709" on="1"/>
        <pt x="168" y="781" on="0"/>
        <pt x="218" y="836" on="0"/>
        <pt x="282" y="836" on="1"/>
        <pt x="963" y="836" on="1"/>
        <pt x="963" y="806" on="1"/>
        <pt x="855" y="806" on="1"/>
        <pt x="855" y="168" on="1"/>
        <pt x="855" y="49" on="0"/>
        <pt x="927" y="49" on="1"/>
        <pt x="950" y="49" on="0"/>
        <pt x="983" y="58" on="1"/>
        <pt x="983" y="13" on="1"/>
        <pt x="929" y="-13" on="0"/>
        <pt x="887" y="-13" on="1"/>
        <pt x="768" y="-13" on="0"/>
        <pt x="768" y="179" on="1"/>
        <pt x="769" y="806" on="1"/>
        <pt x="407" y="806" on="1"/>
        <pt x="372" y="308" on="1"/>
        <pt x="360" y="136" on="0"/>
        <pt x="267" y="-4" on="0"/>
        <pt x="162" y="-4" on="1"/>
        <pt x="162" y="53" on="1"/>
        <pt x="195" y="53" on="0"/>
        <pt x="240" y="75" on="0"/>
        <pt x="264" y="120" on="0"/>
        <pt x="275" y="170" on="0"/>
        <pt x="278" y="208" on="1"/>
        <pt x="281" y="260" on="0"/>
        <pt x="287" y="330" on="1"/>
        <pt x="330" y="806" on="1"/>
        <pt x="281" y="806" on="1"/>
        <pt x="212" y="806" on="0"/>
        <pt x="205" y="709" on="1"/>
      </contour>
    </TTGlyph>
    <TTGlyph name="plus" xMin="20" yMin="138" xMax="794" yMax="982">
      <contour>
        <pt x="439" y="598" on="1"/>
        <pt x="794" y="598" on="1"/>
        <pt x="794" y="534" on="1"/>
        <pt x="439" y="534" on="1"/>
        <pt x="439" y="138" on="1"/>
        <pt x="377" y="138" on="1"/>
        <pt x="377" y="534" on="1"/>
        <pt x="20" y="534" on="1"/>
        <pt x="20" y="598" on="1"/>
        <pt x="377" y="598" on="1"/>
        <pt x="377" y="982" on="1"/>
        <pt x="439" y="982" on="1"/>
      </contour>
    </TTGlyph>
    <TTGlyph name="plusminus" xMin="66" yMin="0" xMax="842" yMax="982">
      <contour>
        <pt x="840" y="0" on="1"/>
        <pt x="66" y="0" on="1"/>
        <pt x="66" y="62" on="1"/>
        <pt x="840" y="62" on="1"/>
      </contour>
      <contour>
        <pt x="486" y="598" on="1"/>
        <pt x="842" y="598" on="1"/>
        <pt x="842" y="534" on="1"/>
        <pt x="486" y="534" on="1"/>
        <pt x="486" y="138" on="1"/>
        <pt x="424" y="138" on="1"/>
        <pt x="424" y="534" on="1"/>
        <pt x="68" y="534" on="1"/>
        <pt x="68" y="598" on="1"/>
        <pt x="424" y="598" on="1"/>
        <pt x="424" y="982" on="1"/>
        <pt x="486" y="982" on="1"/>
      </contour>
    </TTGlyph>
    <TTGlyph name="q" xMin="57" yMin="-322" xMax="1099" yMax="854">
      <contour>
        <pt x="474" y="854" on="1"/>
        <pt x="586" y="854" on="0"/>
        <pt x="803" y="773" on="0"/>
        <pt x="855" y="715" on="1"/>
        <pt x="869" y="840" on="1"/>
        <pt x="1099" y="840" on="1"/>
        <pt x="1099" y="780" on="1"/>
        <pt x="935" y="780" on="1"/>
        <pt x="935" y="-262" on="1"/>
        <pt x="1083" y="-262" on="1"/>
        <pt x="1083" y="-322" on="1"/>
        <pt x="708" y="-322" on="1"/>
        <pt x="708" y="-262" on="1"/>
        <pt x="855" y="-262" on="1"/>
        <pt x="855" y="97" on="1"/>
        <pt x="720" y="-14" on="0"/>
        <pt x="293" y="-14" on="0"/>
        <pt x="57" y="237" on="0"/>
        <pt x="57" y="406" on="1"/>
        <pt x="56" y="654" on="0"/>
        <pt x="238" y="781" on="1"/>
        <pt x="342" y="854" on="0"/>
      </contour>
      <contour>
        <pt x="137" y="452" on="1"/>
        <pt x="137" y="261" on="0"/>
        <pt x="332" y="53" on="0"/>
        <pt x="706" y="53" on="0"/>
        <pt x="855" y="163" on="1"/>
        <pt x="855" y="647" on="1"/>
        <pt x="675" y="787" on="0"/>
        <pt x="323" y="787" on="0"/>
        <pt x="137" y="563" on="0"/>
      </contour>
    </TTGlyph>
    <TTGlyph name="question" xMin="20" yMin="-23" xMax="642" yMax="1224">
      <contour>
        <pt x="325" y="1151" on="1"/>
        <pt x="142" y="1151" on="0"/>
        <pt x="81" y="1004" on="1"/>
        <pt x="20" y="1040" on="1"/>
        <pt x="96" y="1223" on="0"/>
        <pt x="315" y="1224" on="1"/>
        <pt x="462" y="1224" on="0"/>
        <pt x="642" y="1059" on="0"/>
        <pt x="642" y="906" on="1"/>
        <pt x="642" y="820" on="0"/>
        <pt x="568" y="712" on="0"/>
        <pt x="411" y="576" on="0"/>
        <pt x="320" y="423" on="0"/>
        <pt x="313" y="289" on="1"/>
        <pt x="280" y="289" on="1"/>
        <pt x="280" y="544" on="0"/>
        <pt x="422" y="674" on="1"/>
        <pt x="515" y="759" on="0"/>
        <pt x="565" y="858" on="0"/>
        <pt x="565" y="1018" on="0"/>
        <pt x="440" y="1151" on="0"/>
      </contour>
      <contour>
        <pt x="349" y="-23" on="1"/>
        <pt x="265" y="-23" on="1"/>
        <pt x="265" y="56" on="1"/>
        <pt x="349" y="56" on="1"/>
      </contour>
    </TTGlyph>
    <TTGlyph name="questiondown" xMin="61" yMin="-24" xMax="683" yMax="1223">
      <contour>
        <pt x="378" y="49" on="1"/>
        <pt x="561" y="49" on="0"/>
        <pt x="622" y="196" on="1"/>
        <pt x="683" y="160" on="1"/>
        <pt x="607" y="-23" on="0"/>
        <pt x="388" y="-24" on="1"/>
        <pt x="241" y="-24" on="0"/>
        <pt x="61" y="141" on="0"/>
        <pt x="61" y="294" on="1"/>
        <pt x="61" y="380" on="0"/>
        <pt x="135" y="488" on="0"/>
        <pt x="292" y="624" on="0"/>
        <pt x="381" y="774" on="0"/>
        <pt x="390" y="911" on="1"/>
        <pt x="423" y="911" on="1"/>
        <pt x="422" y="656" on="0"/>
        <pt x="280" y="526" on="1"/>
        <pt x="187" y="441" on="0"/>
        <pt x="138" y="342" on="0"/>
        <pt x="138" y="182" on="0"/>
        <pt x="263" y="49" on="0"/>
      </contour>
      <contour>
        <pt x="354" y="1223" on="1"/>
        <pt x="438" y="1223" on="1"/>
        <pt x="438" y="1144" on="1"/>
        <pt x="354" y="1144" on="1"/>
      </contour>
    </TTGlyph>
    <TTGlyph name="quotedbl" xMin="131" yMin="854" xMax="416" yMax="1234">
      <contour>
        <pt x="383" y="854" on="1"/>
        <pt x="351" y="854" on="1"/>
        <pt x="325" y="1234" on="1"/>
        <pt x="416" y="1234" on="1"/>
      </contour>
      <contour>
        <pt x="190" y="854" on="1"/>
        <pt x="158" y="854" on="1"/>
        <pt x="131" y="1234" on="1"/>
        <pt x="223" y="1234" on="1"/>
      </contour>
    </TTGlyph>
    <TTGlyph name="quotedblbase" xMin="139" yMin="-180" xMax="525" yMax="116">
      <contour>
        <pt x="274" y="116" on="1"/>
        <pt x="274" y="-6" on="1"/>
        <pt x="274" y="-180" on="0"/>
        <pt x="139" y="-180" on="1"/>
        <pt x="139" y="-136" on="1"/>
        <pt x="186" y="-121" on="0"/>
        <pt x="210" y="-72" on="0"/>
        <pt x="210" y="-4" on="1"/>
        <pt x="148" y="-4" on="1"/>
        <pt x="148" y="116" on="1"/>
      </contour>
      <contour>
        <pt x="525" y="116" on="1"/>
        <pt x="525" y="-6" on="1"/>
        <pt x="525" y="-180" on="0"/>
        <pt x="390" y="-180" on="1"/>
        <pt x="390" y="-136" on="1"/>
        <pt x="435" y="-121" on="0"/>
        <pt x="460" y="-65" on="0"/>
        <pt x="460" y="-4" on="1"/>
        <pt x="399" y="-4" on="1"/>
        <pt x="399" y="116" on="1"/>
      </contour>
    </TTGlyph>
    <TTGlyph name="quotedblleft" xMin="135" yMin="959" xMax="497" yMax="1255">
      <contour>
        <pt x="361" y="959" on="1"/>
        <pt x="361" y="1081" on="1"/>
        <pt x="361" y="1255" on="0"/>
        <pt x="497" y="1255" on="1"/>
        <pt x="497" y="1211" on="1"/>
        <pt x="450" y="1196" on="0"/>
        <pt x="426" y="1147" on="0"/>
        <pt x="426" y="1079" on="1"/>
        <pt x="487" y="1079" on="1"/>
        <pt x="487" y="959" on="1"/>
      </contour>
      <contour>
        <pt x="135" y="959" on="1"/>
        <pt x="135" y="1081" on="1"/>
        <pt x="135" y="1255" on="0"/>
        <pt x="271" y="1255" on="1"/>
        <pt x="271" y="1211" on="1"/>
        <pt x="224" y="1196" on="0"/>
        <pt x="200" y="1147" on="0"/>
        <pt x="200" y="1079" on="1"/>
        <pt x="261" y="1079" on="1"/>
        <pt x="261" y="959" on="1"/>
      </contour>
    </TTGlyph>
    <TTGlyph name="quotedblright" xMin="133" yMin="937" xMax="495" yMax="1234">
      <contour>
        <pt x="269" y="1234" on="1"/>
        <pt x="269" y="1111" on="1"/>
        <pt x="269" y="937" on="0"/>
        <pt x="133" y="937" on="1"/>
        <pt x="133" y="982" on="1"/>
        <pt x="180" y="997" on="0"/>
        <pt x="204" y="1046" on="0"/>
        <pt x="204" y="1114" on="1"/>
        <pt x="143" y="1114" on="1"/>
        <pt x="143" y="1234" on="1"/>
      </contour>
      <contour>
        <pt x="495" y="1234" on="1"/>
        <pt x="495" y="1111" on="1"/>
        <pt x="495" y="937" on="0"/>
        <pt x="359" y="937" on="1"/>
        <pt x="359" y="982" on="1"/>
        <pt x="406" y="997" on="0"/>
        <pt x="430" y="1046" on="0"/>
        <pt x="430" y="1114" on="1"/>
        <pt x="369" y="1114" on="1"/>
        <pt x="369" y="1234" on="1"/>
      </contour>
    </TTGlyph>
    <TTGlyph name="quoteleft" xMin="135" yMin="959" xMax="271" yMax="1255">
      <contour>
        <pt x="135" y="959" on="1"/>
        <pt x="135" y="1081" on="1"/>
        <pt x="135" y="1255" on="0"/>
        <pt x="271" y="1255" on="1"/>
        <pt x="271" y="1211" on="1"/>
        <pt x="224" y="1196" on="0"/>
        <pt x="200" y="1147" on="0"/>
        <pt x="200" y="1079" on="1"/>
        <pt x="261" y="1079" on="1"/>
        <pt x="261" y="959" on="1"/>
      </contour>
    </TTGlyph>
    <TTGlyph name="quoteright" xMin="133" yMin="937" xMax="269" yMax="1234">
      <contour>
        <pt x="269" y="1234" on="1"/>
        <pt x="269" y="1111" on="1"/>
        <pt x="269" y="937" on="0"/>
        <pt x="133" y="937" on="1"/>
        <pt x="133" y="982" on="1"/>
        <pt x="180" y="997" on="0"/>
        <pt x="204" y="1046" on="0"/>
        <pt x="204" y="1114" on="1"/>
        <pt x="143" y="1114" on="1"/>
        <pt x="143" y="1234" on="1"/>
      </contour>
    </TTGlyph>
    <TTGlyph name="quotesinglbase" xMin="139" yMin="-180" xMax="274" yMax="116">
      <contour>
        <pt x="274" y="116" on="1"/>
        <pt x="274" y="-6" on="1"/>
        <pt x="274" y="-180" on="0"/>
        <pt x="139" y="-180" on="1"/>
        <pt x="139" y="-136" on="1"/>
        <pt x="186" y="-121" on="0"/>
        <pt x="210" y="-72" on="0"/>
        <pt x="210" y="-4" on="1"/>
        <pt x="148" y="-4" on="1"/>
        <pt x="148" y="116" on="1"/>
      </contour>
    </TTGlyph>
    <TTGlyph name="quotesingle" xMin="131" yMin="854" xMax="223" yMax="1234">
      <contour>
        <pt x="190" y="854" on="1"/>
        <pt x="158" y="854" on="1"/>
        <pt x="131" y="1234" on="1"/>
        <pt x="223" y="1234" on="1"/>
      </contour>
    </TTGlyph>
    <TTGlyph name="r" xMin="100" yMin="0" xMax="756" yMax="854">
      <contour>
        <pt x="574" y="787" on="1"/>
        <pt x="506" y="787" on="0"/>
        <pt x="408" y="692" on="0"/>
        <pt x="363" y="551" on="0"/>
        <pt x="363" y="468" on="1"/>
        <pt x="363" y="60" on="1"/>
        <pt x="546" y="60" on="1"/>
        <pt x="546" y="0" on="1"/>
        <pt x="100" y="0" on="1"/>
        <pt x="100" y="60" on="1"/>
        <pt x="284" y="60" on="1"/>
        <pt x="284" y="779" on="1"/>
        <pt x="101" y="779" on="1"/>
        <pt x="101" y="836" on="1"/>
        <pt x="351" y="836" on="1"/>
        <pt x="363" y="652" on="1"/>
        <pt x="387" y="739" on="0"/>
        <pt x="500" y="854" on="0"/>
        <pt x="586" y="854" on="1"/>
        <pt x="667" y="854" on="0"/>
        <pt x="756" y="814" on="1"/>
        <pt x="744" y="746" on="1"/>
        <pt x="660" y="787" on="0"/>
      </contour>
    </TTGlyph>
    <TTGlyph name="rcaron" xMin="100" yMin="0" xMax="756" yMax="1249">
      <component glyphName="caron" x="129" y="54" flags="0x1004"/>
      <component glyphName="r" x="0" y="0" flags="0x1204"/>
    </TTGlyph>
    <TTGlyph name="rcommaaccent" xMin="100" yMin="-410" xMax="756" yMax="854">
      <component glyphName="uni0326" x="196" y="-230" flags="0x1004"/>
      <component glyphName="r" x="0" y="0" flags="0x1204"/>
    </TTGlyph>
    <TTGlyph name="registered" xMin="86" yMin="-23" xMax="1370" yMax="1258">
      <contour>
        <pt x="998" y="791" on="1"/>
        <pt x="998" y="706" on="0"/>
        <pt x="888" y="596" on="0"/>
        <pt x="802" y="590" on="1"/>
        <pt x="970" y="316" on="1"/>
        <pt x="1072" y="316" on="1"/>
        <pt x="1072" y="258" on="1"/>
        <pt x="921" y="258" on="1"/>
        <pt x="724" y="590" on="1"/>
        <pt x="566" y="590" on="1"/>
        <pt x="566" y="316" on="1"/>
        <pt x="662" y="316" on="1"/>
        <pt x="662" y="258" on="1"/>
        <pt x="411" y="258" on="1"/>
        <pt x="411" y="316" on="1"/>
        <pt x="497" y="316" on="1"/>
        <pt x="497" y="931" on="1"/>
        <pt x="404" y="931" on="1"/>
        <pt x="404" y="988" on="1"/>
        <pt x="782" y="988" on="1"/>
        <pt x="875" y="988" on="0"/>
        <pt x="998" y="878" on="0"/>
      </contour>
      <contour>
        <pt x="782" y="648" on="1"/>
        <pt x="853" y="648" on="0"/>
        <pt x="933" y="728" on="0"/>
        <pt x="933" y="804" on="1"/>
        <pt x="933" y="846" on="0"/>
        <pt x="852" y="931" on="0"/>
        <pt x="782" y="931" on="1"/>
        <pt x="566" y="931" on="1"/>
        <pt x="566" y="648" on="1"/>
      </contour>
      <contour>
        <pt x="459" y="1199" on="0"/>
        <pt x="158" y="849" on="0"/>
        <pt x="158" y="375" on="0"/>
        <pt x="455" y="34" on="0"/>
        <pt x="994" y="34" on="0"/>
        <pt x="1299" y="381" on="0"/>
        <pt x="1299" y="617" on="1"/>
        <pt x="1299" y="849" on="0"/>
        <pt x="994" y="1199" on="0"/>
      </contour>
      <contour>
        <pt x="728" y="-23" on="1"/>
        <pt x="324" y="-23" on="0"/>
        <pt x="158" y="308" on="1"/>
        <pt x="86" y="451" on="0"/>
        <pt x="86" y="616" on="1"/>
        <pt x="86" y="873" on="0"/>
        <pt x="424" y="1258" on="0"/>
        <pt x="728" y="1258" on="1"/>
        <pt x="1132" y="1258" on="0"/>
        <pt x="1298" y="925" on="1"/>
        <pt x="1370" y="782" on="0"/>
        <pt x="1370" y="616" on="1"/>
        <pt x="1370" y="358" on="0"/>
        <pt x="1033" y="-23" on="0"/>
      </contour>
    </TTGlyph>
    <TTGlyph name="ring" xMin="125" yMin="995" xMax="466" yMax="1336">
      <contour>
        <pt x="418" y="1166" on="1"/>
        <pt x="418" y="1214" on="0"/>
        <pt x="354" y="1291" on="0"/>
        <pt x="310" y="1291" on="1"/>
        <pt x="173" y="1291" on="0"/>
        <pt x="173" y="1152" on="1"/>
        <pt x="173" y="1107" on="0"/>
        <pt x="247" y="1039" on="0"/>
        <pt x="296" y="1039" on="1"/>
        <pt x="350" y="1039" on="0"/>
        <pt x="418" y="1112" on="0"/>
      </contour>
      <contour>
        <pt x="296" y="1336" on="1"/>
        <pt x="370" y="1336" on="0"/>
        <pt x="466" y="1244" on="0"/>
        <pt x="466" y="1165" on="1"/>
        <pt x="466" y="1091" on="0"/>
        <pt x="375" y="997" on="0"/>
        <pt x="296" y="995" on="1"/>
        <pt x="221" y="994" on="0"/>
        <pt x="125" y="1085" on="0"/>
        <pt x="125" y="1165" on="1"/>
        <pt x="125" y="1238" on="0"/>
        <pt x="217" y="1336" on="0"/>
      </contour>
    </TTGlyph>
    <TTGlyph name="s" xMin="129" yMin="-14" xMax="811" yMax="853">
      <contour>
        <pt x="811" y="228" on="1"/>
        <pt x="811" y="143" on="0"/>
        <pt x="705" y="31" on="0"/>
        <pt x="547" y="-14" on="0"/>
        <pt x="447" y="-14" on="1"/>
        <pt x="284" y="-14" on="0"/>
        <pt x="197" y="73" on="1"/>
        <pt x="197" y="0" on="1"/>
        <pt x="129" y="0" on="1"/>
        <pt x="129" y="268" on="1"/>
        <pt x="197" y="268" on="1"/>
        <pt x="197" y="168" on="1"/>
        <pt x="253" y="53" on="0"/>
        <pt x="647" y="54" on="0"/>
        <pt x="710" y="148" on="1"/>
        <pt x="731" y="180" on="0"/>
        <pt x="731" y="243" on="1"/>
        <pt x="731" y="369" on="0"/>
        <pt x="313" y="416" on="0"/>
        <pt x="133" y="506" on="0"/>
        <pt x="133" y="620" on="1"/>
        <pt x="132" y="792" on="0"/>
        <pt x="320" y="840" on="1"/>
        <pt x="374" y="854" on="0"/>
        <pt x="430" y="853" on="1"/>
        <pt x="598" y="853" on="0"/>
        <pt x="684" y="776" on="1"/>
        <pt x="684" y="836" on="1"/>
        <pt x="754" y="836" on="1"/>
        <pt x="754" y="572" on="1"/>
        <pt x="684" y="572" on="1"/>
        <pt x="684" y="695" on="1"/>
        <pt x="610" y="786" on="0"/>
        <pt x="294" y="786" on="0"/>
        <pt x="235" y="696" on="1"/>
        <pt x="215" y="666" on="0"/>
        <pt x="215" y="620" on="1"/>
        <pt x="215" y="538" on="0"/>
        <pt x="308" y="504" on="1"/>
        <pt x="353" y="487" on="0"/>
        <pt x="654" y="444" on="0"/>
        <pt x="811" y="346" on="0"/>
      </contour>
    </TTGlyph>
    <TTGlyph name="scaron" xMin="129" yMin="-14" xMax="811" yMax="1249">
      <component glyphName="caron" x="171" y="54" flags="0x1004"/>
      <component glyphName="s" x="0" y="0" flags="0x1204"/>
    </TTGlyph>
    <TTGlyph name="section" xMin="152" yMin="37" xMax="833" yMax="1141">
      <contour>
        <pt x="512" y="104" on="1"/>
        <pt x="610" y="104" on="0"/>
        <pt x="749" y="183" on="0"/>
        <pt x="749" y="258" on="1"/>
        <pt x="748" y="328" on="0"/>
        <pt x="656" y="364" on="1"/>
        <pt x="604" y="384" on="0"/>
        <pt x="312" y="426" on="0"/>
        <pt x="156" y="509" on="0"/>
        <pt x="156" y="727" on="0"/>
        <pt x="261" y="782" on="1"/>
        <pt x="156" y="836" on="0"/>
        <pt x="156" y="944" on="1"/>
        <pt x="156" y="1090" on="0"/>
        <pt x="344" y="1130" on="1"/>
        <pt x="398" y="1142" on="0"/>
        <pt x="453" y="1141" on="1"/>
        <pt x="621" y="1141" on="0"/>
        <pt x="707" y="1064" on="1"/>
        <pt x="707" y="1124" on="1"/>
        <pt x="777" y="1124" on="1"/>
        <pt x="777" y="896" on="1"/>
        <pt x="707" y="896" on="1"/>
        <pt x="707" y="983" on="1"/>
        <pt x="633" y="1074" on="0"/>
        <pt x="316" y="1074" on="0"/>
        <pt x="258" y="1004" on="1"/>
        <pt x="238" y="980" on="0"/>
        <pt x="238" y="940" on="1"/>
        <pt x="238" y="866" on="0"/>
        <pt x="331" y="832" on="1"/>
        <pt x="376" y="815" on="0"/>
        <pt x="676" y="773" on="0"/>
        <pt x="834" y="684" on="0"/>
        <pt x="832" y="463" on="0"/>
        <pt x="730" y="407" on="1"/>
        <pt x="826" y="352" on="0"/>
        <pt x="826" y="248" on="1"/>
        <pt x="826" y="108" on="0"/>
        <pt x="650" y="56" on="1"/>
        <pt x="588" y="38" on="0"/>
        <pt x="498" y="37" on="1"/>
        <pt x="308" y="37" on="0"/>
        <pt x="220" y="125" on="1"/>
        <pt x="220" y="52" on="1"/>
        <pt x="152" y="52" on="1"/>
        <pt x="152" y="283" on="1"/>
        <pt x="220" y="283" on="1"/>
        <pt x="220" y="220" on="1"/>
        <pt x="276" y="104" on="0"/>
      </contour>
      <contour>
        <pt x="674" y="439" on="1"/>
        <pt x="754" y="475" on="0"/>
        <pt x="754" y="569" on="1"/>
        <pt x="754" y="675" on="0"/>
        <pt x="594" y="710" on="1"/>
        <pt x="575" y="714" on="0"/>
        <pt x="352" y="749" on="0"/>
        <pt x="324" y="758" on="1"/>
        <pt x="238" y="725" on="0"/>
        <pt x="238" y="614" on="1"/>
        <pt x="238" y="572" on="0"/>
        <pt x="298" y="513" on="0"/>
        <pt x="406" y="481" on="0"/>
        <pt x="510" y="463" on="0"/>
        <pt x="642" y="446" on="0"/>
      </contour>
    </TTGlyph>
    <TTGlyph name="semicolon" xMin="156" yMin="19" xMax="292" yMax="815">
      <contour>
        <pt x="292" y="316" on="1"/>
        <pt x="292" y="193" on="1"/>
        <pt x="292" y="19" on="0"/>
        <pt x="156" y="19" on="1"/>
        <pt x="156" y="64" on="1"/>
        <pt x="203" y="79" on="0"/>
        <pt x="227" y="128" on="0"/>
        <pt x="227" y="196" on="1"/>
        <pt x="166" y="196" on="1"/>
        <pt x="166" y="316" on="1"/>
      </contour>
      <contour>
        <pt x="287" y="815" on="1"/>
        <pt x="287" y="695" on="1"/>
        <pt x="170" y="695" on="1"/>
        <pt x="170" y="815" on="1"/>
      </contour>
    </TTGlyph>
    <TTGlyph name="seven" xMin="78" yMin="-11" xMax="870" yMax="1234">
      <contour>
        <pt x="368" y="52" on="1"/>
        <pt x="368" y="697" on="0"/>
        <pt x="782" y="1164" on="1"/>
        <pt x="155" y="1164" on="1"/>
        <pt x="155" y="916" on="1"/>
        <pt x="78" y="916" on="1"/>
        <pt x="78" y="1234" on="1"/>
        <pt x="870" y="1234" on="1"/>
        <pt x="870" y="1158" on="1"/>
        <pt x="526" y="784" on="0"/>
        <pt x="468" y="348" on="1"/>
        <pt x="450" y="208" on="0"/>
        <pt x="450" y="52" on="1"/>
        <pt x="631" y="52" on="1"/>
        <pt x="631" y="-11" on="1"/>
        <pt x="204" y="-11" on="1"/>
        <pt x="204" y="52" on="1"/>
      </contour>
    </TTGlyph>
    <TTGlyph name="six" xMin="53" yMin="-23" xMax="839" yMax="1361">
      <contour>
        <pt x="441" y="49" on="1"/>
        <pt x="583" y="49" on="0"/>
        <pt x="758" y="223" on="0"/>
        <pt x="758" y="362" on="1"/>
        <pt x="758" y="497" on="0"/>
        <pt x="573" y="658" on="0"/>
        <pt x="480" y="658" on="1"/>
        <pt x="325" y="658" on="0"/>
        <pt x="130" y="498" on="0"/>
        <pt x="130" y="356" on="1"/>
        <pt x="130" y="221" on="0"/>
        <pt x="188" y="160" on="1"/>
        <pt x="292" y="49" on="0"/>
      </contour>
      <contour>
        <pt x="446" y="726" on="1"/>
        <pt x="609" y="726" on="0"/>
        <pt x="839" y="520" on="0"/>
        <pt x="839" y="364" on="1"/>
        <pt x="839" y="209" on="0"/>
        <pt x="626" y="-23" on="0"/>
        <pt x="289" y="-23" on="0"/>
        <pt x="53" y="185" on="0"/>
        <pt x="53" y="477" on="0"/>
        <pt x="188" y="697" on="1"/>
        <pt x="545" y="1361" on="1"/>
        <pt x="612" y="1314" on="1"/>
        <pt x="261" y="678" on="1"/>
        <pt x="358" y="726" on="0"/>
      </contour>
    </TTGlyph>
    <TTGlyph name="slash" xMin="43" yMin="-23" xMax="486" yMax="1255">
      <contour>
        <pt x="415" y="1255" on="1"/>
        <pt x="486" y="1255" on="1"/>
        <pt x="118" y="-23" on="1"/>
        <pt x="43" y="-23" on="1"/>
      </contour>
    </TTGlyph>
    <TTGlyph name="sterling" xMin="49" yMin="-47" xMax="1018" yMax="1255">
      <contour>
        <pt x="291" y="960" on="1"/>
        <pt x="291" y="1096" on="0"/>
        <pt x="488" y="1255" on="0"/>
        <pt x="638" y="1255" on="1"/>
        <pt x="790" y="1255" on="0"/>
        <pt x="959" y="1109" on="0"/>
        <pt x="959" y="968" on="1"/>
        <pt x="883" y="968" on="1"/>
        <pt x="883" y="1189" on="0"/>
        <pt x="649" y="1189" on="1"/>
        <pt x="378" y="1189" on="0"/>
        <pt x="378" y="954" on="1"/>
        <pt x="378" y="846" on="0"/>
        <pt x="460" y="698" on="1"/>
        <pt x="483" y="656" on="0"/>
        <pt x="507" y="611" on="1"/>
        <pt x="882" y="611" on="1"/>
        <pt x="882" y="562" on="1"/>
        <pt x="523" y="562" on="1"/>
        <pt x="569" y="432" on="0"/>
        <pt x="569" y="234" on="0"/>
        <pt x="543" y="156" on="1"/>
        <pt x="630" y="44" on="0"/>
        <pt x="780" y="44" on="1"/>
        <pt x="965" y="44" on="0"/>
        <pt x="965" y="262" on="1"/>
        <pt x="1015" y="262" on="1"/>
        <pt x="1018" y="239" on="0"/>
        <pt x="1018" y="108" on="0"/>
        <pt x="898" y="-29" on="0"/>
        <pt x="628" y="-29" on="0"/>
        <pt x="526" y="107" on="1"/>
        <pt x="461" y="-47" on="0"/>
        <pt x="49" y="-47" on="0"/>
        <pt x="49" y="127" on="1"/>
        <pt x="49" y="215" on="0"/>
        <pt x="185" y="300" on="0"/>
        <pt x="294" y="300" on="1"/>
        <pt x="410" y="300" on="0"/>
        <pt x="481" y="204" on="1"/>
        <pt x="491" y="252" on="0"/>
        <pt x="491" y="421" on="0"/>
        <pt x="432" y="562" on="1"/>
        <pt x="184" y="562" on="1"/>
        <pt x="184" y="611" on="1"/>
        <pt x="407" y="611" on="1"/>
        <pt x="387" y="650" on="0"/>
        <pt x="366" y="690" on="1"/>
        <pt x="291" y="833" on="0"/>
      </contour>
      <contour>
        <pt x="281" y="244" on="1"/>
        <pt x="119" y="244" on="0"/>
        <pt x="119" y="109" on="1"/>
        <pt x="119" y="65" on="0"/>
        <pt x="172" y="27" on="1"/>
        <pt x="197" y="8" on="0"/>
        <pt x="262" y="0" on="0"/>
        <pt x="327" y="16" on="0"/>
        <pt x="380" y="39" on="0"/>
        <pt x="404" y="54" on="1"/>
        <pt x="449" y="84" on="0"/>
        <pt x="466" y="154" on="1"/>
        <pt x="393" y="244" on="0"/>
      </contour>
    </TTGlyph>
    <TTGlyph name="t" xMin="37" yMin="0" xMax="456" yMax="1166">
      <contour>
        <pt x="37" y="781" on="1"/>
        <pt x="37" y="836" on="1"/>
        <pt x="162" y="836" on="1"/>
        <pt x="162" y="1148" on="1"/>
        <pt x="241" y="1166" on="1"/>
        <pt x="241" y="836" on="1"/>
        <pt x="440" y="836" on="1"/>
        <pt x="440" y="781" on="1"/>
        <pt x="241" y="781" on="1"/>
        <pt x="241" y="238" on="1"/>
        <pt x="241" y="135" on="0"/>
        <pt x="284" y="60" on="0"/>
        <pt x="378" y="60" on="1"/>
        <pt x="456" y="60" on="1"/>
        <pt x="456" y="0" on="1"/>
        <pt x="375" y="0" on="1"/>
        <pt x="178" y="0" on="0"/>
        <pt x="166" y="160" on="1"/>
        <pt x="162" y="204" on="0"/>
        <pt x="162" y="250" on="1"/>
        <pt x="162" y="781" on="1"/>
      </contour>
    </TTGlyph>
    <TTGlyph name="thorn" xMin="8" yMin="-360" xMax="1050" yMax="1234">
      <contour>
        <pt x="252" y="1234" on="1"/>
        <pt x="252" y="695" on="1"/>
        <pt x="387" y="854" on="0"/>
        <pt x="814" y="854" on="0"/>
        <pt x="1050" y="603" on="0"/>
        <pt x="1050" y="434" on="1"/>
        <pt x="1050" y="186" on="0"/>
        <pt x="857" y="51" on="1"/>
        <pt x="755" y="-21" on="0"/>
        <pt x="519" y="-21" on="0"/>
        <pt x="295" y="77" on="0"/>
        <pt x="252" y="125" on="1"/>
        <pt x="249" y="-360" on="1"/>
        <pt x="8" y="-360" on="1"/>
        <pt x="8" y="-300" on="1"/>
        <pt x="173" y="-300" on="1"/>
        <pt x="173" y="1174" on="1"/>
        <pt x="24" y="1174" on="1"/>
        <pt x="24" y="1234" on="1"/>
      </contour>
      <contour>
        <pt x="971" y="388" on="1"/>
        <pt x="971" y="577" on="0"/>
        <pt x="778" y="787" on="0"/>
        <pt x="596" y="787" on="1"/>
        <pt x="417" y="787" on="0"/>
        <pt x="252" y="619" on="1"/>
        <pt x="252" y="193" on="1"/>
        <pt x="432" y="53" on="0"/>
        <pt x="785" y="53" on="0"/>
        <pt x="971" y="277" on="0"/>
      </contour>
    </TTGlyph>
    <TTGlyph name="three" xMin="49" yMin="-19" xMax="876" yMax="1256">
      <contour>
        <pt x="636" y="660" on="1"/>
        <pt x="747" y="634" on="0"/>
        <pt x="876" y="469" on="0"/>
        <pt x="876" y="336" on="1"/>
        <pt x="876" y="188" on="0"/>
        <pt x="624" y="-19" on="0"/>
        <pt x="438" y="-19" on="1"/>
        <pt x="313" y="-19" on="0"/>
        <pt x="99" y="111" on="0"/>
        <pt x="49" y="216" on="1"/>
        <pt x="113" y="257" on="1"/>
        <pt x="217" y="50" on="0"/>
        <pt x="465" y="50" on="1"/>
        <pt x="597" y="50" on="0"/>
        <pt x="792" y="217" on="0"/>
        <pt x="792" y="348" on="1"/>
        <pt x="792" y="602" on="0"/>
        <pt x="464" y="615" on="1"/>
        <pt x="412" y="617" on="0"/>
        <pt x="363" y="617" on="1"/>
        <pt x="324" y="617" on="1"/>
        <pt x="324" y="697" on="1"/>
        <pt x="418" y="697" on="1"/>
        <pt x="684" y="697" on="0"/>
        <pt x="748" y="825" on="1"/>
        <pt x="768" y="866" on="0"/>
        <pt x="769" y="930" on="1"/>
        <pt x="769" y="1050" on="0"/>
        <pt x="578" y="1183" on="0"/>
        <pt x="455" y="1183" on="1"/>
        <pt x="225" y="1183" on="0"/>
        <pt x="145" y="1026" on="1"/>
        <pt x="74" y="1057" on="1"/>
        <pt x="177" y="1256" on="0"/>
        <pt x="457" y="1256" on="1"/>
        <pt x="614" y="1256" on="0"/>
        <pt x="854" y="1080" on="0"/>
        <pt x="854" y="930" on="1"/>
        <pt x="854" y="833" on="0"/>
        <pt x="734" y="689" on="0"/>
      </contour>
    </TTGlyph>
    <TTGlyph name="threequarters" xMin="58" yMin="-23" xMax="1536" yMax="1255">
      <contour>
        <pt x="555" y="1001" on="1"/>
        <pt x="555" y="1085" on="0"/>
        <pt x="438" y="1177" on="0"/>
        <pt x="348" y="1177" on="1"/>
        <pt x="198" y="1177" on="0"/>
        <pt x="141" y="1067" on="1"/>
        <pt x="75" y="1097" on="1"/>
        <pt x="152" y="1247" on="0"/>
        <pt x="350" y="1247" on="1"/>
        <pt x="459" y="1247" on="0"/>
        <pt x="633" y="1121" on="0"/>
        <pt x="633" y="883" on="0"/>
        <pt x="504" y="829" on="1"/>
        <pt x="648" y="776" on="0"/>
        <pt x="648" y="595" on="1"/>
        <pt x="648" y="501" on="0"/>
        <pt x="470" y="352" on="0"/>
        <pt x="338" y="352" on="1"/>
        <pt x="249" y="352" on="0"/>
        <pt x="93" y="449" on="0"/>
        <pt x="58" y="526" on="1"/>
        <pt x="118" y="565" on="1"/>
        <pt x="189" y="418" on="0"/>
        <pt x="356" y="418" on="1"/>
        <pt x="439" y="418" on="0"/>
        <pt x="572" y="527" on="0"/>
        <pt x="572" y="603" on="1"/>
        <pt x="572" y="673" on="0"/>
        <pt x="524" y="744" on="0"/>
        <pt x="470" y="768" on="1"/>
        <pt x="419" y="790" on="0"/>
        <pt x="286" y="789" on="1"/>
        <pt x="250" y="789" on="1"/>
        <pt x="250" y="863" on="1"/>
        <pt x="284" y="863" on="1"/>
        <pt x="409" y="862" on="0"/>
        <pt x="449" y="876" on="1"/>
        <pt x="555" y="911" on="0"/>
      </contour>
      <contour>
        <pt x="928" y="316" on="1"/>
        <pt x="1266" y="866" on="1"/>
        <pt x="1358" y="866" on="1"/>
        <pt x="1358" y="323" on="1"/>
        <pt x="1536" y="323" on="1"/>
        <pt x="1536" y="260" on="1"/>
        <pt x="1358" y="260" on="1"/>
        <pt x="1358" y="61" on="1"/>
        <pt x="1470" y="61" on="1"/>
        <pt x="1470" y="0" on="1"/>
        <pt x="1173" y="0" on="1"/>
        <pt x="1173" y="61" on="1"/>
        <pt x="1285" y="61" on="1"/>
        <pt x="1285" y="260" on="1"/>
        <pt x="937" y="260" on="1"/>
      </contour>
      <contour>
        <pt x="1285" y="323" on="1"/>
        <pt x="1285" y="768" on="1"/>
        <pt x="1257" y="721" on="0"/>
        <pt x="1070" y="412" on="0"/>
        <pt x="1018" y="323" on="1"/>
      </contour>
      <contour>
        <pt x="1016" y="1255" on="1"/>
        <pt x="1087" y="1255" on="1"/>
        <pt x="719" y="-23" on="1"/>
        <pt x="644" y="-23" on="1"/>
      </contour>
    </TTGlyph>
    <TTGlyph name="threesuperior" xMin="92" yMin="-13" xMax="682" yMax="882">
      <contour>
        <pt x="589" y="652" on="1"/>
        <pt x="589" y="725" on="0"/>
        <pt x="466" y="812" on="0"/>
        <pt x="382" y="812" on="1"/>
        <pt x="232" y="812" on="0"/>
        <pt x="175" y="702" on="1"/>
        <pt x="109" y="732" on="1"/>
        <pt x="186" y="882" on="0"/>
        <pt x="384" y="882" on="1"/>
        <pt x="493" y="882" on="0"/>
        <pt x="555" y="837" on="1"/>
        <pt x="667" y="756" on="0"/>
        <pt x="667" y="518" on="0"/>
        <pt x="538" y="464" on="1"/>
        <pt x="682" y="411" on="0"/>
        <pt x="682" y="250" on="1"/>
        <pt x="682" y="172" on="0"/>
        <pt x="595" y="50" on="0"/>
        <pt x="454" y="-13" on="0"/>
        <pt x="372" y="-12" on="1"/>
        <pt x="283" y="-12" on="0"/>
        <pt x="127" y="85" on="0"/>
        <pt x="92" y="161" on="1"/>
        <pt x="152" y="200" on="1"/>
        <pt x="223" y="53" on="0"/>
        <pt x="376" y="52" on="1"/>
        <pt x="442" y="52" on="0"/>
        <pt x="544" y="96" on="0"/>
        <pt x="606" y="191" on="0"/>
        <pt x="606" y="258" on="1"/>
        <pt x="606" y="308" on="0"/>
        <pt x="564" y="376" on="0"/>
        <pt x="482" y="410" on="0"/>
        <pt x="386" y="424" on="0"/>
        <pt x="320" y="424" on="1"/>
        <pt x="284" y="424" on="1"/>
        <pt x="284" y="498" on="1"/>
        <pt x="318" y="498" on="1"/>
        <pt x="490" y="498" on="0"/>
        <pt x="589" y="577" on="0"/>
      </contour>
    </TTGlyph>
    <TTGlyph name="tilde" xMin="125" yMin="1022" xMax="589" yMax="1157">
      <contour>
        <pt x="249" y="1157" on="1"/>
        <pt x="273" y="1157" on="0"/>
        <pt x="470" y="1110" on="0"/>
        <pt x="494" y="1110" on="1"/>
        <pt x="537" y="1110" on="0"/>
        <pt x="552" y="1153" on="1"/>
        <pt x="589" y="1153" on="1"/>
        <pt x="574" y="1022" on="0"/>
        <pt x="465" y="1022" on="1"/>
        <pt x="420" y="1022" on="0"/>
        <pt x="248" y="1069" on="0"/>
        <pt x="175" y="1069" on="0"/>
        <pt x="163" y="1028" on="1"/>
        <pt x="125" y="1028" on="1"/>
        <pt x="140" y="1157" on="0"/>
      </contour>
    </TTGlyph>
    <TTGlyph name="trademark" xMin="90" yMin="612" xMax="1506" yMax="1236">
      <contour>
        <pt x="642" y="1236" on="1"/>
        <pt x="642" y="1026" on="1"/>
        <pt x="585" y="1026" on="1"/>
        <pt x="585" y="1183" on="1"/>
        <pt x="393" y="1183" on="1"/>
        <pt x="393" y="660" on="1"/>
        <pt x="480" y="660" on="1"/>
        <pt x="480" y="612" on="1"/>
        <pt x="248" y="612" on="1"/>
        <pt x="248" y="660" on="1"/>
        <pt x="334" y="660" on="1"/>
        <pt x="334" y="1183" on="1"/>
        <pt x="146" y="1183" on="1"/>
        <pt x="146" y="1026" on="1"/>
        <pt x="90" y="1026" on="1"/>
        <pt x="90" y="1236" on="1"/>
      </contour>
      <contour>
        <pt x="1144" y="760" on="1"/>
        <pt x="1365" y="1236" on="1"/>
        <pt x="1506" y="1236" on="1"/>
        <pt x="1506" y="1187" on="1"/>
        <pt x="1428" y="1187" on="1"/>
        <pt x="1428" y="661" on="1"/>
        <pt x="1506" y="661" on="1"/>
        <pt x="1506" y="612" on="1"/>
        <pt x="1291" y="612" on="1"/>
        <pt x="1291" y="661" on="1"/>
        <pt x="1370" y="661" on="1"/>
        <pt x="1370" y="1114" on="1"/>
        <pt x="1144" y="638" on="1"/>
        <pt x="910" y="1115" on="1"/>
        <pt x="910" y="661" on="1"/>
        <pt x="990" y="661" on="1"/>
        <pt x="990" y="612" on="1"/>
        <pt x="774" y="612" on="1"/>
        <pt x="774" y="661" on="1"/>
        <pt x="853" y="661" on="1"/>
        <pt x="853" y="1187" on="1"/>
        <pt x="774" y="1187" on="1"/>
        <pt x="774" y="1236" on="1"/>
        <pt x="915" y="1236" on="1"/>
      </contour>
    </TTGlyph>
    <TTGlyph name="two" xMin="109" yMin="0" xMax="852" yMax="1255">
      <contour>
        <pt x="793" y="932" on="1"/>
        <pt x="793" y="1036" on="0"/>
        <pt x="648" y="1183" on="0"/>
        <pt x="546" y="1183" on="1"/>
        <pt x="306" y="1184" on="0"/>
        <pt x="238" y="1016" on="1"/>
        <pt x="216" y="962" on="0"/>
        <pt x="216" y="836" on="0"/>
        <pt x="232" y="778" on="1"/>
        <pt x="147" y="778" on="1"/>
        <pt x="135" y="834" on="0"/>
        <pt x="135" y="906" on="1"/>
        <pt x="135" y="1063" on="0"/>
        <pt x="350" y="1255" on="0"/>
        <pt x="515" y="1255" on="1"/>
        <pt x="770" y="1255" on="0"/>
        <pt x="852" y="1056" on="1"/>
        <pt x="912" y="908" on="0"/>
        <pt x="765" y="612" on="0"/>
        <pt x="459" y="294" on="0"/>
        <pt x="255" y="113" on="0"/>
        <pt x="219" y="78" on="1"/>
        <pt x="819" y="78" on="1"/>
        <pt x="819" y="0" on="1"/>
        <pt x="109" y="0" on="1"/>
        <pt x="109" y="80" on="1"/>
        <pt x="130" y="102" on="0"/>
        <pt x="171" y="138" on="1"/>
        <pt x="562" y="486" on="0"/>
        <pt x="793" y="822" on="0"/>
      </contour>
    </TTGlyph>
    <TTGlyph name="twosuperior" xMin="133" yMin="0" xMax="680" yMax="881">
      <contour>
        <pt x="151" y="656" on="1"/>
        <pt x="151" y="741" on="0"/>
        <pt x="303" y="881" on="0"/>
        <pt x="390" y="881" on="1"/>
        <pt x="680" y="881" on="0"/>
        <pt x="680" y="631" on="1"/>
        <pt x="680" y="473" on="0"/>
        <pt x="339" y="164" on="1"/>
        <pt x="271" y="102" on="0"/>
        <pt x="241" y="72" on="1"/>
        <pt x="639" y="72" on="1"/>
        <pt x="639" y="0" on="1"/>
        <pt x="133" y="0" on="1"/>
        <pt x="133" y="70" on="1"/>
        <pt x="151" y="88" on="0"/>
        <pt x="193" y="125" on="1"/>
        <pt x="602" y="485" on="0"/>
        <pt x="602" y="635" on="1"/>
        <pt x="602" y="812" on="0"/>
        <pt x="418" y="812" on="1"/>
        <pt x="334" y="812" on="0"/>
        <pt x="224" y="716" on="0"/>
        <pt x="224" y="631" on="1"/>
        <pt x="224" y="595" on="0"/>
        <pt x="237" y="535" on="1"/>
        <pt x="159" y="535" on="1"/>
        <pt x="151" y="570" on="0"/>
      </contour>
    </TTGlyph>
    <TTGlyph name="u" xMin="14" yMin="-14" xMax="1036" yMax="836">
      <contour>
        <pt x="268" y="239" on="1"/>
        <pt x="268" y="141" on="0"/>
        <pt x="360" y="55" on="0"/>
        <pt x="459" y="53" on="1"/>
        <pt x="594" y="53" on="0"/>
        <pt x="784" y="173" on="1"/>
        <pt x="784" y="776" on="1"/>
        <pt x="610" y="776" on="1"/>
        <pt x="610" y="836" on="1"/>
        <pt x="863" y="836" on="1"/>
        <pt x="863" y="58" on="1"/>
        <pt x="1036" y="58" on="1"/>
        <pt x="1036" y="0" on="1"/>
        <pt x="796" y="0" on="1"/>
        <pt x="788" y="104" on="1"/>
        <pt x="634" y="12" on="0"/>
        <pt x="499" y="-14" on="0"/>
        <pt x="406" y="-14" on="1"/>
        <pt x="314" y="-14" on="0"/>
        <pt x="189" y="127" on="0"/>
        <pt x="189" y="223" on="1"/>
        <pt x="189" y="776" on="1"/>
        <pt x="14" y="776" on="1"/>
        <pt x="14" y="836" on="1"/>
        <pt x="268" y="836" on="1"/>
      </contour>
    </TTGlyph>
    <TTGlyph name="uacute" xMin="14" yMin="-14" xMax="1036" yMax="1225">
      <component glyphName="acute" x="384" y="-9" flags="0x1004"/>
      <component glyphName="u" x="0" y="0" flags="0x1204"/>
    </TTGlyph>
    <TTGlyph name="ucircumflex" xMin="14" yMin="-14" xMax="1036" yMax="1249">
      <component glyphName="circumflex" x="229" y="54" flags="0x1004"/>
      <component glyphName="u" x="0" y="0" flags="0x1204"/>
    </TTGlyph>
    <TTGlyph name="udieresis" xMin="14" yMin="-14" xMax="1036" yMax="1082">
      <component glyphName="dieresis" x="223" y="36" flags="0x1004"/>
      <component glyphName="u" x="0" y="0" flags="0x1204"/>
    </TTGlyph>
    <TTGlyph name="ugrave" xMin="14" yMin="-14" xMax="1036" yMax="1225">
      <component glyphName="grave" x="248" y="-9" flags="0x1004"/>
      <component glyphName="u" x="0" y="0" flags="0x1204"/>
    </TTGlyph>
    <TTGlyph name="underscore" xMin="139" yMin="-62" xMax="871" yMax="0">
      <contour>
        <pt x="871" y="-62" on="1"/>
        <pt x="139" y="-62" on="1"/>
        <pt x="139" y="0" on="1"/>
        <pt x="871" y="0" on="1"/>
      </contour>
    </TTGlyph>
    <TTGlyph name="uni0200" xMin="4" yMin="0" xMax="1288" yMax="1626">
      <component glyphName="uni030F" x="268" y="392" flags="0x1004"/>
      <component glyphName="A" x="0" y="0" flags="0x1204"/>
    </TTGlyph>
    <TTGlyph name="uni0201" xMin="80" yMin="-14" xMax="907" yMax="1225">
      <component glyphName="uni030F" x="115" y="-9" flags="0x1004"/>
      <component glyphName="a" x="0" y="0" flags="0x1204"/>
    </TTGlyph>
    <TTGlyph name="uni0202" xMin="4" yMin="0" xMax="1288" yMax="1569">
      <component glyphName="uni0311" x="220" y="297" flags="0x1004"/>
      <component glyphName="A" x="0" y="0" flags="0x1204"/>
    </TTGlyph>
    <TTGlyph name="uni0203" xMin="80" yMin="-14" xMax="907" yMax="1168">
      <component glyphName="uni0311" x="28" y="-104" flags="0x1004"/>
      <component glyphName="a" x="0" y="0" flags="0x1204"/>
    </TTGlyph>
    <TTGlyph name="uni0204" xMin="98" yMin="0" xMax="1117" yMax="1626">
      <component glyphName="uni030F" x="229" y="392" flags="0x1004"/>
      <component glyphName="E" x="0" y="0" flags="0x1204"/>
    </TTGlyph>
    <TTGlyph name="uni0205" xMin="57" yMin="-14" xMax="890" yMax="1225">
      <component glyphName="uni030F" x="95" y="-9" flags="0x1004"/>
      <component glyphName="e" x="0" y="0" flags="0x1204"/>
    </TTGlyph>
    <TTGlyph name="uni0206" xMin="98" yMin="0" xMax="1117" yMax="1569">
      <component glyphName="uni0311" x="232" y="297" flags="0x1004"/>
      <component glyphName="E" x="0" y="0" flags="0x1204"/>
    </TTGlyph>
    <TTGlyph name="uni0207" xMin="57" yMin="-14" xMax="890" yMax="1168">
      <component glyphName="uni0311" x="62" y="-104" flags="0x1004"/>
      <component glyphName="e" x="0" y="0" flags="0x1204"/>
    </TTGlyph>
    <TTGlyph name="uni0208" xMin="29" yMin="0" xMax="505" yMax="1626">
      <component glyphName="uni030F" x="-75" y="392" flags="0x1004"/>
      <component glyphName="I" x="0" y="0" flags="0x1204"/>
    </TTGlyph>
    <TTGlyph name="uni0209" xMin="23" yMin="0" xMax="489" yMax="1225">
      <component glyphName="uni030F" x="-81" y="-9" flags="0x1004"/>
      <component glyphName="dotlessi" x="0" y="0" flags="0x1204"/>
    </TTGlyph>
    <TTGlyph name="uni020A" xMin="9" yMin="0" xMax="599" yMax="1569">
      <component glyphName="uni0311" x="-122" y="297" flags="0x1004"/>
      <component glyphName="I" x="0" y="0" flags="0x1204"/>
    </TTGlyph>
    <TTGlyph name="uni020B" xMin="-27" yMin="0" xMax="563" yMax="1168">
      <component glyphName="uni0311" x="-158" y="-104" flags="0x1004"/>
      <component glyphName="dotlessi" x="0" y="0" flags="0x1204"/>
    </TTGlyph>
    <TTGlyph name="uni020C" xMin="78" yMin="-23" xMax="1358" yMax="1626">
      <component glyphName="uni030F" x="340" y="392" flags="0x1004"/>
      <component glyphName="O" x="0" y="0" flags="0x1204"/>
    </TTGlyph>
    <TTGlyph name="uni020D" xMin="57" yMin="-14" xMax="959" yMax="1225">
      <component glyphName="uni030F" x="130" y="-9" flags="0x1004"/>
      <component glyphName="o" x="0" y="0" flags="0x1204"/>
    </TTGlyph>
    <TTGlyph name="uni020E" xMin="78" yMin="-23" xMax="1358" yMax="1569">
      <component glyphName="uni0311" x="292" y="297" flags="0x1004"/>
      <component glyphName="O" x="0" y="0" flags="0x1204"/>
    </TTGlyph>
    <TTGlyph name="uni020F" xMin="57" yMin="-14" xMax="959" yMax="1168">
      <component glyphName="uni0311" x="82" y="-104" flags="0x1004"/>
      <component glyphName="o" x="0" y="0" flags="0x1204"/>
    </TTGlyph>
    <TTGlyph name="uni0210" xMin="88" yMin="0" xMax="1217" yMax="1626">
      <component glyphName="uni030F" x="274" y="392" flags="0x1004"/>
      <component glyphName="R" x="0" y="0" flags="0x1204"/>
    </TTGlyph>
    <TTGlyph name="uni0211" xMin="100" yMin="0" xMax="756" yMax="1225">
      <component glyphName="uni030F" x="50" y="-9" flags="0x1004"/>
      <component glyphName="r" x="0" y="0" flags="0x1204"/>
    </TTGlyph>
    <TTGlyph name="uni0212" xMin="88" yMin="0" xMax="1217" yMax="1569">
      <component glyphName="uni0311" x="196" y="297" flags="0x1004"/>
      <component glyphName="R" x="0" y="0" flags="0x1204"/>
    </TTGlyph>
    <TTGlyph name="uni0213" xMin="100" yMin="0" xMax="756" yMax="1168">
      <component glyphName="uni0311" x="2" y="-104" flags="0x1004"/>
      <component glyphName="r" x="0" y="0" flags="0x1204"/>
    </TTGlyph>
    <TTGlyph name="uni0214" xMin="2" yMin="-23" xMax="1384" yMax="1626">
      <component glyphName="uni030F" x="314" y="392" flags="0x1004"/>
      <component glyphName="U" x="0" y="0" flags="0x1204"/>
    </TTGlyph>
    <TTGlyph name="uni0215" xMin="14" yMin="-14" xMax="1036" yMax="1225">
      <component glyphName="uni030F" x="146" y="-9" flags="0x1004"/>
      <component glyphName="u" x="0" y="0" flags="0x1204"/>
    </TTGlyph>
    <TTGlyph name="uni0216" xMin="2" yMin="-23" xMax="1384" yMax="1569">
      <component glyphName="uni0311" x="267" y="297" flags="0x1004"/>
      <component glyphName="U" x="0" y="0" flags="0x1204"/>
    </TTGlyph>
    <TTGlyph name="uni0217" xMin="14" yMin="-14" xMax="1036" yMax="1168">
      <component glyphName="uni0311" x="99" y="-104" flags="0x1004"/>
      <component glyphName="u" x="0" y="0" flags="0x1204"/>
    </TTGlyph>
    <TTGlyph name="uni0218" xMin="143" yMin="-433" xMax="1049" yMax="1255">
      <component glyphName="uni0326" x="364" y="-253" flags="0x1004"/>
      <component glyphName="S" x="0" y="0" flags="0x1204"/>
    </TTGlyph>
    <TTGlyph name="uni0219" xMin="129" yMin="-424" xMax="811" yMax="853">
      <component glyphName="uni0326" x="238" y="-244" flags="0x1004"/>
      <component glyphName="s" x="0" y="0" flags="0x1204"/>
    </TTGlyph>
    <TTGlyph name="uni021A" xMin="-14" yMin="-410" xMax="1073" yMax="1234">
      <component glyphName="uni0326" x="298" y="-230" flags="0x1004"/>
      <component glyphName="T" x="0" y="0" flags="0x1204"/>
    </TTGlyph>
    <TTGlyph name="uni021B" xMin="37" yMin="-410" xMax="456" yMax="1166">
      <component glyphName="uni0326" x="74" y="-230" flags="0x1004"/>
      <component glyphName="t" x="0" y="0" flags="0x1204"/>
    </TTGlyph>
    <TTGlyph name="uni030F" xMin="104" yMin="985" xMax="499" yMax="1234">
      <contour>
        <pt x="258" y="985" on="1"/>
        <pt x="104" y="1234" on="1"/>
        <pt x="230" y="1234" on="1"/>
        <pt x="289" y="985" on="1"/>
      </contour>
      <contour>
        <pt x="468" y="985" on="1"/>
        <pt x="314" y="1234" on="1"/>
        <pt x="440" y="1234" on="1"/>
        <pt x="499" y="985" on="1"/>
      </contour>
    </TTGlyph>
</ttFont>
